<svg width="45" height="45" viewBox="0 0 45 45" fill="none" xmlns="http://www.w3.org/2000/svg">
<path d="M33.7963 2.9967H5.46875V23.7732H33.7963V2.9967Z" fill="url(#paint0_linear_157_3935)"/>
<path d="M19.7184 21.9775H8.45117V24.699H19.7184V21.9775Z" fill="#34E0A1"/>
<path d="M19.7184 15.8778H8.45117V18.5993H19.7184V15.8778Z" fill="#34E0A1"/>
<path d="M42.2528 2.62761C41.2127 2.15553 40.0333 2.0909 38.9479 2.44654C37.8624 2.80218 36.9499 3.55215 36.3908 4.54819L35.9592 5.29897C35.7086 5.28969 35.4601 5.34812 35.2399 5.46813C35.0197 5.58813 34.836 5.76524 34.708 5.98086L33.1815 8.64596H2.88952C2.12444 8.65742 1.39439 8.96854 0.85627 9.51251C0.31815 10.0565 0.0149098 10.7899 0.0117188 11.5551V18.5744H2.77065V11.53C2.76981 11.5127 2.77238 11.4955 2.77821 11.4792C2.78405 11.463 2.79304 11.448 2.80466 11.4352C2.81628 11.4224 2.83031 11.4121 2.84595 11.4048C2.86158 11.3974 2.87851 11.3932 2.89577 11.3924H31.5486L24.9797 22.8348C24.7976 23.1557 24.7483 23.5351 24.8421 23.892L25.9557 28.0085L25.9932 28.0523H8.45117V30.7737H28.064V30.7049L28.1203 30.7737H28.1578L33.5318 28.8969C33.8493 28.7857 34.1159 28.5635 34.2825 28.2713L37.8172 22.1028V35.0779C37.8172 35.1144 37.8027 35.1494 37.7769 35.1752C37.7511 35.201 37.7161 35.2155 37.6796 35.2155H24.4667C24.2315 35.2156 24.0004 35.2782 23.7973 35.397L17.485 38.9754V36.6044C17.4866 36.4226 17.4522 36.2423 17.3838 36.0738C17.3154 35.9054 17.2143 35.7522 17.0863 35.6231C16.9583 35.494 16.806 35.3915 16.6382 35.3215C16.4704 35.2516 16.2904 35.2155 16.1086 35.2155H2.9208C2.90301 35.2155 2.88539 35.212 2.86903 35.205C2.85267 35.198 2.8379 35.1878 2.82561 35.1749C2.81333 35.162 2.80379 35.1467 2.79756 35.1301C2.79134 35.1134 2.78857 35.0957 2.78942 35.0779V27.5706H0.0304862V35.0779C0.0304578 35.8451 0.33351 36.5813 0.873667 37.1261C1.41382 37.6709 2.14735 37.9804 2.91454 37.987H14.7323V41.3403C14.7291 41.5847 14.7905 41.8256 14.9102 42.0387C15.0299 42.2518 15.2038 42.4295 15.4142 42.5539C15.6199 42.6718 15.8527 42.7344 16.0899 42.7353C16.3271 42.7352 16.5601 42.6726 16.7655 42.5539L24.8233 37.987H37.6358C38.0163 37.9888 38.3933 37.9144 38.7446 37.7683C39.096 37.6222 39.4145 37.4073 39.6815 37.1362C39.9507 36.8655 40.1639 36.5443 40.3088 36.1911C40.4538 35.8379 40.5276 35.4597 40.5261 35.0779V17.3231L43.9294 11.3736C44.051 11.1519 44.1094 10.9012 44.0984 10.6486C44.0874 10.396 44.0073 10.1512 43.8669 9.94093L44.6927 8.37691V8.33942C45.0678 7.25436 45.0257 6.06852 44.5747 5.01274C44.1237 3.95697 43.2961 3.10679 42.2528 2.62761ZM28.6959 27.6519L28.383 26.4821L29.7594 27.2829L28.6959 27.6519ZM37.8986 16.391V16.4598L32.5559 25.7188L28.064 23.11L36.3971 8.59594L40.8827 11.2047L37.8986 16.391ZM41.915 7.82019L41.5584 8.4458L38.3928 6.60647L38.7431 5.98086C38.9002 5.69517 39.1311 5.45691 39.4117 5.29095C39.6924 5.125 40.0124 5.03741 40.3384 5.03741C40.6644 5.03741 40.9845 5.125 41.2651 5.29095C41.5457 5.45691 41.7767 5.69517 41.9337 5.98086C42.0809 6.25787 42.1563 6.56736 42.153 6.88101C42.1497 7.19467 42.0679 7.50248 41.915 7.77635V7.82019Z" fill="#34E0A1"/>
<path d="M2.79018 20.3823H0.03125V24.1422H2.79018V20.3823Z" fill="#34E0A1"/>
<defs>
<linearGradient id="paint0_linear_157_3935" x1="19.6325" y1="2.9967" x2="19.6325" y2="23.7732" gradientUnits="userSpaceOnUse">
<stop stop-color="#FFC700"/>
<stop offset="1" stop-color="white" stop-opacity="0"/>
</linearGradient>
</defs>
</svg>
