<svg width="45" height="45" viewBox="0 0 45 45" fill="none" xmlns="http://www.w3.org/2000/svg">
<path d="M22.6964 17.3172V32.8345C22.7033 33.0907 22.6089 33.3392 22.4336 33.5262C22.2583 33.7131 22.0163 33.8233 21.7601 33.8327H6.67221C6.41564 33.8233 6.1731 33.7133 5.99696 33.5265C5.82082 33.3397 5.72522 33.0911 5.73083 32.8345V12.1862C5.72386 11.9291 5.81901 11.6798 5.99543 11.4927C6.17185 11.3056 6.41519 11.196 6.67221 11.1879H16.9136L22.6964 17.3172Z" fill="url(#paint0_linear_157_3953)"/>
<path d="M23.9374 18.5846H15.1133V20.7001H23.9374V18.5846Z" fill="#34E0A1"/>
<path d="M27.2426 24.9569H15.1133V27.0725H27.2426V24.9569Z" fill="#34E0A1"/>
<path d="M30.5064 31.3295H15.1133V33.445H30.5064V31.3295Z" fill="#34E0A1"/>
<path d="M35.4306 30.4035V38.3277C35.4321 38.4463 35.3878 38.561 35.3068 38.6477C35.2259 38.7344 35.1146 38.7865 34.9961 38.7932H11.0168C10.8988 38.7865 10.788 38.7342 10.7079 38.6473C10.6278 38.5604 10.5846 38.4458 10.5875 38.3277V6.6673C10.5859 6.54951 10.6295 6.43561 10.7094 6.34902C10.7892 6.26242 10.8993 6.20977 11.0168 6.20184H26.0168V13.8621C25.9915 14.5759 26.249 15.2708 26.7333 15.7958C27.2176 16.3208 27.8895 16.6334 28.603 16.6656H35.4306V21.4966H37.5461V14.1467L27.7185 4.10181H11.0168C10.3372 4.11132 9.68864 4.38801 9.21144 4.87199C8.73423 5.35597 8.46673 6.00834 8.4668 6.68801V38.3432C8.46673 39.0228 8.73423 39.6753 9.21144 40.1592C9.68864 40.6432 10.3372 40.9198 11.0168 40.9294H34.9909C35.3248 40.9293 35.6554 40.863 35.9635 40.7343C36.2716 40.6055 36.5511 40.4169 36.7858 40.1794C37.027 39.9375 37.2179 39.6503 37.3476 39.3343C37.4772 39.0182 37.5429 38.6796 37.5409 38.338V30.4139L35.4306 30.4035ZM28.1427 7.53112L34.9858 14.5449H28.6185C28.3651 14.5449 28.1427 14.2294 28.1427 13.8621V7.53112Z" fill="#34E0A1"/>
<path d="M37.5413 23.3948H35.4258V25.8465H37.5413V23.3948Z" fill="#34E0A1"/>
<defs>
<linearGradient id="paint0_linear_157_3953" x1="14.2136" y1="11.1879" x2="14.2136" y2="33.8327" gradientUnits="userSpaceOnUse">
<stop stop-color="#FFC700"/>
<stop offset="1" stop-color="white" stop-opacity="0"/>
</linearGradient>
</defs>
</svg>
