<svg width="45" height="45" viewBox="0 0 45 45" fill="none" xmlns="http://www.w3.org/2000/svg">
<path d="M39.7532 8.36304H5.56445V30.7287H39.7532V8.36304Z" fill="url(#paint0_linear_157_3973)"/>
<path d="M28.9101 9.65588H36.867C37.1936 9.63314 37.4994 9.48737 37.7226 9.24801C37.9459 9.00864 38.0701 8.69349 38.0701 8.36615C38.0701 8.03881 37.9459 7.72365 37.7226 7.48429C37.4994 7.24492 37.1936 7.09915 36.867 7.07642H28.9101C28.5835 7.09915 28.2778 7.24492 28.0545 7.48429C27.8312 7.72365 27.707 8.03881 27.707 8.36615C27.707 8.69349 27.8312 9.00864 28.0545 9.24801C28.2778 9.48737 28.5835 9.63314 28.9101 9.65588Z" fill="#34E0A1"/>
<path d="M22.0916 16.4761H36.8689C37.1954 16.4534 37.5012 16.3076 37.7245 16.0683C37.9477 15.8289 38.0719 15.5137 38.0719 15.1864C38.0719 14.8591 37.9477 14.5439 37.7245 14.3045C37.5012 14.0652 37.1954 13.9194 36.8689 13.8967H22.0916C21.9147 13.8844 21.7372 13.9086 21.57 13.9678C21.4028 14.027 21.2497 14.1201 21.12 14.241C20.9903 14.362 20.8869 14.5083 20.8162 14.671C20.7455 14.8336 20.709 15.0091 20.709 15.1864C20.709 15.3638 20.7455 15.5392 20.8162 15.7019C20.8869 15.8645 20.9903 16.0108 21.12 16.1318C21.2497 16.2528 21.4028 16.3458 21.57 16.405C21.7372 16.4643 21.9147 16.4885 22.0916 16.4761Z" fill="#34E0A1"/>
<path d="M9.01823 16.476H15.8385C16.3354 16.476 16.812 16.2786 17.1634 15.9273C17.5148 15.5759 17.7122 15.0993 17.7122 14.6023V8.9188C17.7101 8.42726 17.515 7.95621 17.1688 7.60721C16.8198 7.26106 16.3488 7.06591 15.8572 7.06384H9.01823C8.52129 7.06384 8.04471 7.26124 7.69332 7.61262C7.34194 7.96401 7.14453 8.4406 7.14453 8.93754V14.6211C7.14947 15.1148 7.34905 15.5865 7.6999 15.9339C8.05076 16.2812 8.52452 16.4761 9.01823 16.476ZM9.75522 9.65579H15.1327V13.8966H9.75522V9.65579Z" fill="#34E0A1"/>
<path d="M36.8999 30.9723H30.7354L28.8617 28.1492C28.7459 27.9748 28.5891 27.8313 28.4052 27.7311C28.2213 27.631 28.0156 27.5773 27.8062 27.5747C27.5991 27.5681 27.3936 27.6132 27.2083 27.7059C27.0229 27.7986 26.8635 27.9359 26.7445 28.1055L22.2476 34.3512L16.4142 23.6836C16.295 23.4622 16.1135 23.2805 15.8922 23.1611C15.6709 23.0417 15.4195 22.9897 15.169 23.0116C14.9185 23.0335 14.6799 23.1284 14.4827 23.2845C14.2856 23.4405 14.1384 23.6509 14.0595 23.8897L12.0797 29.8168H8.46343C8.21761 29.7935 7.97018 29.8396 7.74933 29.9501C7.52847 30.0605 7.34308 30.2307 7.2143 30.4414C7.09199 30.644 7.02734 30.8762 7.02734 31.1128C7.02734 31.3495 7.09199 31.5816 7.2143 31.7842C7.33653 31.9894 7.51344 32.1564 7.72522 32.2667C7.93701 32.377 8.17531 32.4262 8.41346 32.4088H12.9915C13.2665 32.4148 13.5362 32.3325 13.761 32.174C13.9858 32.0155 14.1539 31.7892 14.2407 31.5281L15.5772 27.5309L20.9797 37.4053C21.081 37.5987 21.2312 37.7621 21.4153 37.8794C21.5993 37.9966 21.811 38.0636 22.029 38.0736H22.1102C22.3168 38.0784 22.5214 38.0318 22.7056 37.9381C22.8899 37.8443 23.0479 37.7063 23.1657 37.5365L27.7563 31.1222L29.0054 32.9959C29.1225 33.1721 29.2812 33.3167 29.4674 33.4169C29.6537 33.5171 29.8619 33.5699 30.0734 33.5705H36.8999C37.1458 33.5946 37.3935 33.5488 37.6145 33.4383C37.8355 33.3278 38.0208 33.1571 38.149 32.9459C38.2731 32.7435 38.3387 32.5107 38.3387 32.2733C38.3386 32.0359 38.2729 31.8032 38.1488 31.6008C38.0247 31.3985 37.847 31.2344 37.6354 31.1268C37.4238 31.0191 37.1865 30.9722 36.9499 30.991L36.8999 30.9723Z" fill="#34E0A1"/>
<path d="M42.4024 24.2521V39.6289C42.4007 40.3417 42.1164 41.0248 41.6118 41.5283C41.1071 42.0318 40.4234 42.3145 39.7105 42.3145H5.60923C4.89638 42.3145 4.21263 42.0318 3.70799 41.5283C3.20334 41.0248 2.919 40.3417 2.91735 39.6289V5.52135C2.919 4.80792 3.20313 4.12418 3.7076 3.61971C4.21207 3.11524 4.8958 2.83112 5.60923 2.82947H39.7355C40.4489 2.83112 41.1326 3.11524 41.6371 3.61971C42.1416 4.12418 42.4257 4.80792 42.4274 5.52135V9.65597H45.0006V4.38463C45.0022 3.84203 44.8966 3.30445 44.6897 2.80283C44.4828 2.3012 44.1788 1.84543 43.7951 1.46175C43.4114 1.07806 42.9556 0.774041 42.454 0.567155C41.9524 0.360269 41.4148 0.254595 40.8722 0.256245H4.47252C3.92985 0.255424 3.39234 0.361615 2.89074 0.568718C2.38914 0.775821 1.93329 1.07978 1.54927 1.46321C1.16526 1.84665 0.860603 2.30204 0.652742 2.80332C0.444881 3.30461 0.33789 3.84196 0.337891 4.38463V40.7656C0.339545 41.8611 0.77589 42.9111 1.5511 43.6852C2.32632 44.4592 3.37703 44.894 4.47252 44.894H40.8472C41.3894 44.894 41.9262 44.7872 42.4271 44.5797C42.928 44.3722 43.3831 44.0681 43.7664 43.6848C44.1498 43.3014 44.4539 42.8463 44.6613 42.3455C44.8688 41.8446 44.9756 41.3077 44.9756 40.7656V24.2521H42.4024Z" fill="#34E0A1"/>
<path d="M44.9256 12.635H42.4023V18.712H44.9256V12.635Z" fill="#34E0A1"/>
<defs>
<linearGradient id="paint0_linear_157_3973" x1="22.6588" y1="8.36304" x2="22.6588" y2="30.7287" gradientUnits="userSpaceOnUse">
<stop stop-color="#FFC700"/>
<stop offset="1" stop-color="white" stop-opacity="0"/>
</linearGradient>
</defs>
</svg>
