<svg width="236" height="30" viewBox="0 0 236 30" fill="none" xmlns="http://www.w3.org/2000/svg">
<path d="M0.973787 28.2184C0.726762 28.3418 0.626564 28.6421 0.749988 28.8892C0.873412 29.1362 1.17372 29.2364 1.42074 29.113L0.973787 28.2184ZM235.332 28.6657L232.123 23.8667L229.571 29.046L235.332 28.6657ZM1.42074 29.113C2.32373 28.6618 3.22941 28.2157 4.13776 27.7747L3.70102 26.8751C2.78925 27.3178 1.88016 27.7655 0.973787 28.2184L1.42074 29.113ZM9.61674 25.1915C11.4521 24.3517 13.2978 23.5325 15.1536 22.7342L14.7585 21.8156C12.8956 22.6169 11.0429 23.4392 9.20065 24.2822L9.61674 25.1915ZM20.745 20.4048C22.6166 19.6503 24.4979 18.9169 26.3887 18.2048L26.0363 17.269C24.1382 17.9838 22.2498 18.72 20.3711 19.4774L20.745 20.4048ZM32.082 16.1357C33.9859 15.4686 35.899 14.823 37.8211 14.1991L37.5124 13.248C35.5829 13.8742 33.6625 14.5223 31.7514 15.1919L32.082 16.1357ZM43.604 12.3962C45.5365 11.8183 47.4776 11.2623 49.4271 10.7284L49.163 9.76394C47.206 10.2999 45.2574 10.858 43.3175 11.4382L43.604 12.3962ZM55.2873 9.19682C57.2444 8.70963 59.2095 8.24465 61.1825 7.80215L60.9636 6.82639C58.9831 7.2706 57.0103 7.73737 55.0457 8.22644L55.2873 9.19682ZM67.1072 6.5458C69.0843 6.15062 71.0688 5.77793 73.0607 5.42797L72.8876 4.44306C70.8881 4.79437 68.8959 5.1685 66.9112 5.56519L67.1072 6.5458ZM79.0384 4.4495C81.031 4.14717 83.0306 3.86752 85.0369 3.61083L84.91 2.61891C82.896 2.8766 80.8887 3.15732 78.8884 3.46082L79.0384 4.4495ZM91.0547 2.91201C93.0585 2.70292 95.0688 2.51668 97.0851 2.35353L97.0044 1.35679C94.9804 1.52056 92.9625 1.70752 90.9509 1.91741L91.0547 2.91201ZM103.129 1.935C105.14 1.81911 107.157 1.72617 109.179 1.65644L109.144 0.657029C107.114 0.727033 105.09 0.820322 103.071 0.936652L103.129 1.935ZM115.235 1.51736C116.244 1.5058 117.254 1.5 118.265 1.5V0.5C117.25 0.5 116.236 0.50582 115.224 0.51743L115.235 1.51736ZM118.265 1.5C119.276 1.5 120.286 1.5058 121.295 1.51736L121.306 0.51743C120.294 0.50582 119.28 0.5 118.265 0.5V1.5ZM127.351 1.65644C129.373 1.72617 131.39 1.81911 133.401 1.935L133.458 0.936651C131.44 0.820322 129.415 0.727033 127.385 0.657029L127.351 1.65644ZM139.445 2.35353C141.461 2.51668 143.471 2.70292 145.475 2.91201L145.579 1.91741C143.567 1.70751 141.549 1.52056 139.525 1.35679L139.445 2.35353ZM151.493 3.61083C153.499 3.86752 155.499 4.14717 157.491 4.4495L157.641 3.46082C155.641 3.15732 153.634 2.8766 151.62 2.61891L151.493 3.61083ZM163.469 5.42797C165.461 5.77793 167.445 6.15062 169.422 6.54579L169.618 5.56519C167.634 5.16849 165.642 4.79436 163.642 4.44306L163.469 5.42797ZM175.347 7.80215C177.32 8.24465 179.285 8.70963 181.242 9.19682L181.484 8.22644C179.519 7.73737 177.547 7.2706 175.566 6.82639L175.347 7.80215ZM187.103 10.7284C189.052 11.2623 190.993 11.8183 192.926 12.3962L193.212 11.4382C191.272 10.858 189.324 10.2999 187.367 9.76394L187.103 10.7284ZM198.709 14.1991C200.631 14.823 202.544 15.4686 204.448 16.1357L204.778 15.1919C202.867 14.5223 200.947 13.8742 199.017 13.248L198.709 14.1991ZM210.141 18.2048C212.032 18.9169 213.913 19.6503 215.785 20.4048L216.159 19.4774C214.28 18.72 212.391 17.9838 210.493 17.269L210.141 18.2048ZM221.376 22.7342C223.232 23.5325 225.078 24.3517 226.913 25.1915L227.329 24.2822C225.487 23.4392 223.634 22.6169 221.771 21.8156L221.376 22.7342ZM0.973787 28.2184C0.726762 28.3418 0.626564 28.6421 0.749988 28.8892C0.873412 29.1362 1.17372 29.2364 1.42074 29.113L0.973787 28.2184ZM235.332 28.6657L232.123 23.8667L229.571 29.046L235.332 28.6657ZM1.42074 29.113C2.32373 28.6618 3.22941 28.2157 4.13776 27.7747L3.70102 26.8751C2.78925 27.3178 1.88016 27.7655 0.973787 28.2184L1.42074 29.113ZM9.61674 25.1915C11.4521 24.3517 13.2978 23.5325 15.1536 22.7342L14.7585 21.8156C12.8956 22.6169 11.0429 23.4392 9.20065 24.2822L9.61674 25.1915ZM20.745 20.4048C22.6166 19.6503 24.4979 18.9169 26.3887 18.2048L26.0363 17.269C24.1382 17.9838 22.2498 18.72 20.3711 19.4774L20.745 20.4048ZM32.082 16.1357C33.9859 15.4686 35.899 14.823 37.8211 14.1991L37.5124 13.248C35.5829 13.8742 33.6625 14.5223 31.7514 15.1919L32.082 16.1357ZM43.604 12.3962C45.5365 11.8183 47.4776 11.2623 49.4271 10.7284L49.163 9.76394C47.206 10.2999 45.2574 10.858 43.3175 11.4382L43.604 12.3962ZM55.2873 9.19682C57.2444 8.70963 59.2095 8.24465 61.1825 7.80215L60.9636 6.82639C58.9831 7.2706 57.0103 7.73737 55.0457 8.22644L55.2873 9.19682ZM67.1072 6.5458C69.0843 6.15062 71.0688 5.77793 73.0607 5.42797L72.8876 4.44306C70.8881 4.79437 68.8959 5.1685 66.9112 5.56519L67.1072 6.5458ZM79.0384 4.4495C81.031 4.14717 83.0306 3.86752 85.0369 3.61083L84.91 2.61891C82.896 2.8766 80.8887 3.15732 78.8884 3.46082L79.0384 4.4495ZM91.0547 2.91201C93.0585 2.70292 95.0688 2.51668 97.0851 2.35353L97.0044 1.35679C94.9804 1.52056 92.9625 1.70752 90.9509 1.91741L91.0547 2.91201ZM103.129 1.935C105.14 1.81911 107.157 1.72617 109.179 1.65644L109.144 0.657029C107.114 0.727033 105.09 0.820322 103.071 0.936652L103.129 1.935ZM115.235 1.51736C116.244 1.5058 117.254 1.5 118.265 1.5V0.5C117.25 0.5 116.236 0.50582 115.224 0.51743L115.235 1.51736ZM118.265 1.5C119.276 1.5 120.286 1.5058 121.295 1.51736L121.306 0.51743C120.294 0.50582 119.28 0.5 118.265 0.5V1.5ZM127.351 1.65644C129.373 1.72617 131.39 1.81911 133.401 1.935L133.458 0.936651C131.44 0.820322 129.415 0.727033 127.385 0.657029L127.351 1.65644ZM139.445 2.35353C141.461 2.51668 143.471 2.70292 145.475 2.91201L145.579 1.91741C143.567 1.70751 141.549 1.52056 139.525 1.35679L139.445 2.35353ZM151.493 3.61083C153.499 3.86752 155.499 4.14717 157.491 4.4495L157.641 3.46082C155.641 3.15732 153.634 2.8766 151.62 2.61891L151.493 3.61083ZM163.469 5.42797C165.461 5.77793 167.445 6.15062 169.422 6.54579L169.618 5.56519C167.634 5.16849 165.642 4.79436 163.642 4.44306L163.469 5.42797ZM175.347 7.80215C177.32 8.24465 179.285 8.70963 181.242 9.19682L181.484 8.22644C179.519 7.73737 177.547 7.2706 175.566 6.82639L175.347 7.80215ZM187.103 10.7284C189.052 11.2623 190.993 11.8183 192.926 12.3962L193.212 11.4382C191.272 10.858 189.324 10.2999 187.367 9.76394L187.103 10.7284ZM198.709 14.1991C200.631 14.823 202.544 15.4686 204.448 16.1357L204.778 15.1919C202.867 14.5223 200.947 13.8742 199.017 13.248L198.709 14.1991ZM210.141 18.2048C212.032 18.9169 213.913 19.6503 215.785 20.4048L216.159 19.4774C214.28 18.72 212.391 17.9838 210.493 17.269L210.141 18.2048ZM221.376 22.7342C223.232 23.5325 225.078 24.3517 226.913 25.1915L227.329 24.2822C225.487 23.4392 223.634 22.6169 221.771 21.8156L221.376 22.7342Z" fill="url(#paint0_linear_157_3989)"/>
<defs>
<linearGradient id="paint0_linear_157_3989" x1="1.19727" y1="14.8328" x2="235.332" y2="14.8328" gradientUnits="userSpaceOnUse">
<stop stop-color="#1C2805"/>
<stop offset="1" stop-color="#34E0A1"/>
</linearGradient>
</defs>
</svg>
