<svg width="201" height="19" viewBox="0 0 201 19" fill="none" xmlns="http://www.w3.org/2000/svg">
<g clip-path="url(#clip0_2055_585)">
<rect width="200" height="17.2674" transform="translate(0.5 0.746094)" fill="white"/>
<path d="M99.6287 6.08799C99.6287 7.4177 100.236 8.08364 101.45 8.08581H101.694V10.7505C98.4986 10.7505 96.8845 9.4336 96.8516 6.79987V5.44339C96.8516 2.7818 98.4657 1.44992 101.694 1.44775H116.178V4.08963H101.45C100.238 4.08963 99.6312 4.75557 99.6293 6.08745" fill="black"/>
<path d="M113.402 12.7682C113.402 11.4522 112.795 10.7953 111.581 10.7975H111.387V8.13281C114.582 8.13281 116.18 9.44859 116.18 12.0802V13.4111C116.18 16.0908 114.582 17.4306 111.387 17.4306H96.8555V14.8018H111.584C112.798 14.8018 113.405 14.127 113.405 12.7774" fill="black"/>
<path d="M92.603 1.44873H89.8477V17.4302H92.603V1.44873Z" fill="black"/>
<path d="M68.8729 17.4096H66.1484V1.44873H75.8332C82.2093 1.44873 85.3964 4.11231 85.3946 9.43946V17.428H82.6118V9.41884C82.6118 5.8779 80.3235 4.10742 75.7468 4.10742H68.8729V17.4096Z" fill="black"/>
<path d="M77.1566 6.4043H74.4355V17.4064H77.1566V6.4043Z" fill="black"/>
<path d="M36.6103 4.08952H21.8828V1.44873H36.4139C39.6115 1.44873 41.2103 2.78061 41.2103 5.44437V6.80084C41.2103 9.43241 39.6115 10.7482 36.4139 10.7482H27.5634L41.0397 17.428H35.2351L21.8828 10.7493V8.08461H36.6103C37.8244 8.08461 38.4314 7.41867 38.4314 6.0868C38.4314 4.75492 37.8244 4.08916 36.6103 4.08952Z" fill="black"/>
<path d="M6.68441 10.7944L9.48291 5.44116C9.74249 4.93294 9.97139 4.67883 10.1696 4.67883C10.3492 4.67883 10.5719 4.93276 10.8311 5.44116L13.5954 10.7944H6.68441ZM12.2505 2.94416C12.1065 2.69363 11.9374 2.45738 11.7456 2.2388C11.333 1.79521 10.7639 1.51673 10.15 1.45801C9.53103 1.52021 8.96013 1.80908 8.55438 2.26538C8.09849 2.83816 7.71149 3.45927 7.40087 4.1167L0.5 17.4308H3.22724L5.31434 13.4292H14.9593L17.0251 17.4308H19.7775L12.8991 4.10748C12.6551 3.65007 12.4391 3.26429 12.2505 2.94416Z" fill="black"/>
<path d="M49.9774 10.7944L52.7602 5.43845C53.0199 4.9333 53.2516 4.67883 53.4469 4.67883C53.6421 4.67883 53.8492 4.93276 54.1117 5.43845L56.8732 10.7944H49.9774ZM56.1837 4.10748C55.9396 3.65007 55.723 3.26104 55.5345 2.94416C55.3913 2.69317 55.2221 2.45684 55.0296 2.2388C54.6165 1.79473 54.0465 1.51621 53.4317 1.45801C52.8129 1.51715 52.2408 1.80289 51.8328 2.2567C51.3784 2.8305 50.9915 3.45143 50.6792 4.10802L43.793 17.4308H46.5202L48.6107 13.4292H58.2556L60.3214 17.4308H63.0705L56.1837 4.10748Z" fill="black"/>
<path d="M108.581 9.4402C108.581 9.83533 108.46 10.2216 108.233 10.5501C108.006 10.8787 107.683 11.1347 107.306 11.2859C106.928 11.4372 106.513 11.4767 106.112 11.3996C105.711 11.3225 105.343 11.1323 105.054 10.8529C104.765 10.5735 104.569 10.2175 104.489 9.82996C104.409 9.44242 104.45 9.04072 104.606 8.67567C104.763 8.31062 105.028 7.9986 105.367 7.77908C105.707 7.55955 106.106 7.44238 106.515 7.44238C107.063 7.44238 107.588 7.65287 107.976 8.02753C108.363 8.40219 108.581 8.91035 108.581 9.4402Z" fill="#FFCD00"/>
<path d="M135.685 1.5625H135.289V7.05026H135.685V1.5625Z" fill="black"/>
<path d="M142.214 7.05015H141.818L138.452 2.17552H138.415C138.449 2.77237 138.464 3.19505 138.464 3.4913V7.05015H138.084V1.56293H138.48L141.841 6.42835H141.863C141.841 5.97691 141.829 5.54935 141.829 5.14241V1.55371H142.212L142.214 7.05015Z" fill="black"/>
<path d="M148.739 7.05015H148.34L144.98 2.17552H144.949C144.98 2.77237 144.996 3.19505 144.996 3.4913V7.05015H144.615V1.56293H145.011L148.37 6.42835H148.394C148.37 5.97691 148.357 5.54935 148.357 5.14241V1.55371H148.741L148.739 7.05015Z" fill="black"/>
<path d="M155.916 4.29898C155.959 5.04421 155.72 5.77917 155.243 6.3657C155.001 6.60441 154.712 6.79404 154.394 6.9235C154.075 7.05297 153.733 7.11965 153.387 7.11965C153.042 7.11965 152.7 7.05297 152.381 6.9235C152.062 6.79404 151.774 6.60441 151.532 6.3657C151.054 5.77622 150.814 5.03829 150.859 4.29029C150.815 3.54538 151.057 2.81111 151.539 2.22845C151.772 1.97873 152.059 1.78195 152.38 1.65221C152.701 1.52247 153.047 1.463 153.395 1.47805C153.743 1.46074 154.091 1.51978 154.412 1.65076C154.733 1.78174 155.02 1.98126 155.25 2.23442C155.727 2.82095 155.967 3.55591 155.923 4.30115M151.285 4.30115C151.239 4.95319 151.429 5.6005 151.823 6.1313C152.025 6.33528 152.268 6.49761 152.536 6.6085C152.805 6.7194 153.094 6.77656 153.386 6.77656C153.678 6.77656 153.967 6.7194 154.236 6.6085C154.505 6.49761 154.747 6.33528 154.949 6.1313C155.344 5.60154 155.535 4.95535 155.491 4.30386C155.536 3.6542 155.344 3.00984 154.949 2.48238C154.758 2.27015 154.52 2.10295 154.252 1.99358C153.984 1.8842 153.693 1.83556 153.403 1.85135C153.109 1.83429 152.814 1.88275 152.542 1.99299C152.27 2.10323 152.028 2.27232 151.834 2.48727C151.437 3.0119 151.244 3.6543 151.286 4.30277" fill="black"/>
<path d="M161.37 1.5625H161.803L159.679 7.05026H159.33L157.213 1.5625H157.636L159.062 5.29769C159.231 5.71289 159.377 6.13612 159.501 6.56573C159.554 6.37745 159.656 6.08716 159.811 5.6927L161.37 1.5625Z" fill="black"/>
<path d="M166.135 5.11256H163.828L163.036 7.0507H162.598L164.88 1.53906H165.134L167.367 7.0507H166.918L166.135 5.11256ZM163.971 4.76748H166.002L165.229 2.78919C165.165 2.62388 165.092 2.40847 165.01 2.14297C164.938 2.38496 164.861 2.60037 164.781 2.79787L163.971 4.76748Z" fill="black"/>
<path d="M170.446 7.05026H170.041V1.92115H168.201V1.5625H172.289V1.92115H170.446V7.05026Z" fill="black"/>
<path d="M174.323 1.5625H173.928V7.05026H174.323V1.5625Z" fill="black"/>
<path d="M180.079 1.5625H180.512L178.388 7.05026H178.039L175.922 1.5625H176.345L177.774 5.29769C177.99 5.85982 178.136 6.28467 178.213 6.56573C178.266 6.37745 178.365 6.08716 178.522 5.6927L180.079 1.5625Z" fill="black"/>
<path d="M185.211 7.05026H182.109V1.5625H185.211V1.91518H182.505V3.99059H185.059V4.34328H182.505V6.69703H185.211V7.05026Z" fill="black"/>
<path d="M136.768 17.6936H136.366V12.565H134.523V12.2031H138.613V12.565H136.77L136.768 17.6936Z" fill="black"/>
<path d="M143.351 17.6936H140.25V12.2031H143.351V12.5558H140.646V14.6312H143.2V14.9839H140.646V17.3404H143.351V17.6936Z" fill="black"/>
<path d="M147.853 12.4693C147.54 12.4549 147.227 12.5066 146.936 12.6207C146.645 12.7348 146.384 12.9086 146.17 13.1301C145.736 13.6366 145.515 14.2829 145.553 14.9397C145.514 15.5984 145.725 16.248 146.146 16.7671C146.354 16.9881 146.611 17.1613 146.897 17.274C147.183 17.3866 147.492 17.4359 147.801 17.4182C148.244 17.4222 148.686 17.3627 149.112 17.2419V17.5799C148.658 17.7178 148.184 17.7825 147.709 17.7715C147.358 17.7882 147.007 17.7299 146.681 17.6007C146.356 17.4715 146.064 17.2745 145.826 17.0238C145.335 16.4334 145.09 15.6867 145.139 14.9305C145.128 14.4201 145.24 13.9142 145.467 13.453C145.672 13.0399 146.001 12.6961 146.411 12.466C146.846 12.2285 147.34 12.1087 147.839 12.1193C148.352 12.1102 148.86 12.2123 149.327 12.4183L149.169 12.765C148.764 12.5676 148.317 12.4651 147.864 12.466" fill="black"/>
<path d="M155.274 17.6936H154.875V14.9931H151.56V17.6936H151.164V12.2031H151.56V14.6394H154.875V12.2031H155.274V17.6936Z" fill="black"/>
<path d="M161.806 17.6932H161.404L158.042 12.8186H158.012C158.042 13.3986 158.058 13.8381 158.058 14.1317V17.6932H157.678V12.2022H158.076L161.435 17.0676H161.459C161.435 16.6189 161.425 16.1886 161.425 15.7849V12.1968H161.808L161.806 17.6932Z" fill="black"/>
<path d="M168.98 14.939C169.023 15.6855 168.782 16.4213 168.303 17.0084C168.061 17.2471 167.773 17.4367 167.454 17.5662C167.135 17.6957 166.793 17.7624 166.448 17.7624C166.102 17.7624 165.76 17.6957 165.441 17.5662C165.123 17.4367 164.834 17.2471 164.592 17.0084C164.115 16.4183 163.876 15.6808 163.919 14.933C163.875 14.1881 164.118 13.4538 164.6 12.8712C164.832 12.6203 165.119 12.4226 165.44 12.2922C165.76 12.1619 166.107 12.1022 166.455 12.1175C166.803 12.1008 167.151 12.1602 167.472 12.2911C167.793 12.422 168.08 12.6212 168.31 12.8739C168.787 13.4607 169.027 14.1954 168.984 14.9406M164.345 14.9406C164.304 15.5912 164.496 16.2358 164.89 16.7648C165.092 16.9688 165.334 17.1311 165.603 17.242C165.872 17.3529 166.161 17.41 166.453 17.41C166.745 17.41 167.034 17.3529 167.303 17.242C167.571 17.1311 167.814 16.9688 168.016 16.7648C168.411 16.2341 168.602 15.5869 168.557 14.9346C168.601 14.286 168.41 13.6427 168.015 13.1164C167.813 12.9133 167.571 12.7518 167.303 12.6415C167.035 12.5311 166.747 12.4743 166.455 12.4743C166.164 12.4743 165.876 12.5311 165.608 12.6415C165.34 12.7518 165.097 12.9133 164.895 13.1164C164.496 13.6385 164.301 14.2806 164.345 14.9287" fill="black"/>
<path d="M171.08 17.6936V12.2031H171.476V17.3317H174.182V17.6936H171.08Z" fill="black"/>
<path d="M180.724 14.9392C180.766 15.685 180.527 16.4203 180.051 17.0086C179.809 17.2473 179.521 17.4369 179.202 17.5664C178.883 17.6959 178.541 17.7625 178.196 17.7625C177.85 17.7625 177.508 17.6959 177.189 17.5664C176.871 17.4369 176.582 17.2473 176.34 17.0086C175.861 16.4197 175.62 15.6817 175.663 14.9332C175.62 14.1879 175.864 13.4536 176.347 12.8713C176.589 12.6337 176.878 12.445 177.196 12.3162C177.515 12.1874 177.857 12.1211 178.202 12.1211C178.547 12.1211 178.889 12.1874 179.207 12.3162C179.526 12.445 179.815 12.6337 180.057 12.8713C180.534 13.458 180.774 14.1929 180.731 14.9381M176.092 14.9381C176.049 15.5889 176.241 16.234 176.637 16.7623C176.825 16.9777 177.063 17.1479 177.332 17.2594C177.6 17.371 177.891 17.4209 178.183 17.4052C178.477 17.423 178.772 17.3748 179.044 17.2643C179.316 17.1538 179.558 16.984 179.75 16.7682C180.145 16.2376 180.336 15.5904 180.291 14.9381C180.336 14.2894 180.144 13.6461 179.75 13.1198C179.547 12.9182 179.304 12.7579 179.036 12.6485C178.767 12.539 178.479 12.4827 178.188 12.4827C177.897 12.4827 177.609 12.539 177.341 12.6485C177.072 12.7579 176.83 12.9182 176.626 13.1198C176.23 13.643 176.036 14.2846 176.079 14.9321" fill="black"/>
<path d="M185.057 14.9247H187.15V17.4293C186.562 17.6616 185.931 17.7766 185.295 17.7673C184.917 17.7917 184.539 17.7388 184.184 17.612C183.829 17.4852 183.506 17.2874 183.235 17.0315C182.726 16.4496 182.468 15.6994 182.518 14.9382C182.506 14.419 182.629 13.9052 182.873 13.4429C183.101 13.0181 183.456 12.6692 183.891 12.4412C184.362 12.2065 184.889 12.0931 185.419 12.1119C185.992 12.1028 186.56 12.2162 187.082 12.4439L186.925 12.7879C186.441 12.5697 185.913 12.4574 185.378 12.4591C185.05 12.4434 184.722 12.495 184.415 12.6105C184.109 12.726 183.831 12.9027 183.601 13.1292C183.146 13.6206 182.909 14.265 182.942 14.9236C182.889 15.5995 183.111 16.2686 183.559 16.7895C183.805 17.0162 184.098 17.1905 184.418 17.3012C184.738 17.412 185.079 17.4567 185.418 17.4325C185.871 17.4435 186.323 17.3698 186.747 17.2155V15.2866H185.06L185.057 14.9247Z" fill="black"/>
<path d="M189.767 12.2031H189.371V17.6909H189.767V12.2031Z" fill="black"/>
<path d="M195.271 17.6936H192.17V12.2031H195.271V12.5558H192.565V14.6312H195.12V14.9839H192.565V17.3404H195.271V17.6936Z" fill="black"/>
<path d="M200.485 16.2759C200.493 16.4852 200.448 16.6933 200.356 16.8827C200.263 17.0721 200.125 17.2373 199.953 17.3643C199.552 17.6493 199.061 17.7918 198.564 17.768C198.023 17.7903 197.482 17.7152 196.969 17.5466V17.1609C197.467 17.3462 198 17.4326 198.534 17.4148C198.928 17.4383 199.319 17.333 199.644 17.1158C199.777 17.0221 199.884 16.8986 199.957 16.7559C200.03 16.6132 200.065 16.4555 200.061 16.2965C200.068 16.116 200.021 15.9374 199.925 15.7821C199.813 15.6209 199.661 15.4894 199.483 15.3996C199.197 15.2512 198.896 15.1291 198.586 15.035C198.142 14.9159 197.731 14.7024 197.383 14.4099C197.269 14.289 197.181 14.1474 197.125 13.9935C197.068 13.8395 197.043 13.6762 197.052 13.513C197.047 13.3199 197.089 13.1284 197.176 12.9542C197.262 12.7801 197.39 12.6283 197.549 12.5114C197.917 12.2409 198.371 12.1033 198.833 12.1224C199.35 12.1202 199.861 12.222 200.336 12.4213L200.19 12.7501C199.765 12.5652 199.305 12.4636 198.839 12.4512C198.483 12.4327 198.13 12.5318 197.84 12.7322C197.72 12.8241 197.624 12.9428 197.562 13.0782C197.499 13.2137 197.472 13.3618 197.482 13.5098C197.468 13.682 197.507 13.8543 197.594 14.0053C197.681 14.1562 197.812 14.2792 197.97 14.3589C198.255 14.5114 198.554 14.6367 198.864 14.7328C199.212 14.8408 199.547 14.9852 199.863 15.1636C200.062 15.2806 200.228 15.4428 200.348 15.6362C200.456 15.8331 200.509 16.0537 200.503 16.2764" fill="black"/>
<path d="M127.092 0.746094H126.477V18.0135H127.092V0.746094Z" fill="#FFCD00"/>
</g>
<defs>
<clipPath id="clip0_2055_585">
<rect width="200" height="17.2674" fill="white" transform="translate(0.5 0.746094)"/>
</clipPath>
</defs>
</svg>
