<svg width="61" height="41" viewBox="0 0 61 41" fill="none" xmlns="http://www.w3.org/2000/svg">
<path d="M31.7837 40.3784C30.9315 40.3784 30.0771 40.3784 29.2249 40.3784C29.1084 40.3645 28.993 40.3475 28.8765 40.339C27.8068 40.2613 26.7349 40.2102 25.6674 40.1048C23.0065 39.8419 20.3967 39.3023 17.8389 38.5062C14.0751 37.3332 10.5587 35.6451 7.43504 33.1556C5.47654 31.5942 3.78214 29.7783 2.51716 27.573C0.372237 23.8307 -0.113782 19.8914 1.31653 15.7659C2.21533 13.1795 3.76549 11.0274 5.68515 9.14665C8.07197 6.81036 10.8449 5.08076 13.8554 3.74285C18.2229 1.80145 22.8046 0.795619 27.5393 0.476309C29.8318 0.321976 32.1221 0.352843 34.4124 0.549751C36.8913 0.764753 39.337 1.18198 41.7426 1.83231C45.441 2.83175 48.9353 4.31229 52.1199 6.51447C54.449 8.12379 56.4874 10.0439 58.0531 12.4611C59.2693 14.3365 60.0904 16.3705 60.3789 18.6163C60.4244 18.9665 60.461 19.3188 60.5021 19.6711C60.5021 20.1405 60.5021 20.6088 60.5021 21.0793C60.4865 21.1687 60.471 21.256 60.4588 21.3454C60.4055 21.7881 60.3733 22.233 60.299 22.6716C59.8918 25.0664 58.8931 27.1919 57.4817 29.1227C55.7329 31.5133 53.5336 33.3823 51.0658 34.932C47.9998 36.8575 44.6898 38.1698 41.2133 39.0575C38.548 39.7376 35.8416 40.1464 33.0997 40.2943C32.6614 40.3188 32.2231 40.3507 31.7837 40.3784ZM8.22177 10.6847C8.16629 10.7443 8.13855 10.7666 8.11858 10.7964C7.67361 11.4712 7.17983 12.1194 6.79257 12.8262C4.59217 16.842 4.33917 20.9792 6.17672 25.2048C7.30965 27.8071 9.08617 29.8954 11.2333 31.6644C13.8409 33.8134 16.7848 35.3035 19.9539 36.3434C22.3141 37.1161 24.7331 37.594 27.1976 37.8303C27.4373 37.8526 27.6781 37.8643 27.981 37.8856C27.1754 37.1714 26.5895 36.3689 26.0924 35.4961C25.1215 33.7921 24.489 31.9507 24.0251 30.0466C23.2617 26.9099 22.9688 23.7189 23.0032 20.4896C23.0043 20.4023 23.0032 20.314 23.0032 20.2246C22.7058 20.1735 22.4373 20.1267 22.1709 20.0788C19.8141 19.6594 17.5049 19.057 15.2835 18.1363C13.6057 17.4423 12.0001 16.6089 10.6164 15.3945C9.21933 14.1747 8.18626 12.741 8.22177 10.6847ZM33.052 37.8761C33.1641 37.8761 33.2351 37.8814 33.3061 37.8761C35.42 37.7026 37.505 37.3588 39.5533 36.7957C43.1086 35.8186 46.4197 34.3104 49.3591 32.0039C51.5806 30.2605 53.4248 28.1786 54.6676 25.5805C55.9049 22.9941 56.3287 20.2714 55.8583 17.4221C55.4499 14.9517 54.3969 12.7793 52.9055 10.8177C52.8767 10.7815 52.839 10.7538 52.809 10.7251C52.7768 11.0753 52.7668 11.4169 52.7102 11.7501C52.5216 12.8336 51.9812 13.7341 51.2722 14.5355C50.3301 15.601 49.1905 16.3992 47.9643 17.073C45.4 18.4801 42.6481 19.3177 39.8141 19.8989C39.2171 20.0202 38.6179 20.1235 38.0132 20.2352C38.0098 20.3065 38.0043 20.3651 38.0043 20.4257C38.0309 22.4491 37.9188 24.464 37.6503 26.4682C37.3718 28.5554 36.9401 30.6054 36.2278 32.584C35.522 34.5478 34.6377 36.4062 33.052 37.8761ZM29.3281 3.20322C29.1295 3.20322 28.9774 3.19257 28.8287 3.20535C27.3363 3.33201 25.8394 3.42673 24.3514 3.60236C22.445 3.82587 20.5731 4.24843 18.75 4.87002C17.4217 5.32344 16.1357 5.87265 14.9939 6.72627C14.4546 7.12967 13.9708 7.59054 13.6357 8.1951C13.315 8.77199 13.2107 9.38187 13.3904 10.029C13.5203 10.4963 13.7688 10.8943 14.0828 11.252C14.7087 11.9651 15.4777 12.4771 16.2999 12.9081C17.9732 13.7862 19.7597 14.3237 21.5862 14.7293C22.1798 14.8612 22.7768 14.9677 23.3849 15.0879C23.4082 14.9847 23.4304 14.9123 23.4404 14.8389C23.6401 13.4925 23.912 12.1631 24.2892 10.8571C24.7974 9.08917 25.4455 7.38405 26.4441 5.83966C27.0567 4.8913 27.7768 4.05152 28.7599 3.48953C28.933 3.39161 29.1117 3.31072 29.3281 3.20322ZM37.6126 15.0752C38.9042 14.8676 40.1536 14.5941 41.3787 14.2247C42.8623 13.7788 44.3059 13.2338 45.6175 12.3685C46.2034 11.9821 46.7382 11.5372 47.1576 10.9582C47.8867 9.94812 47.8867 8.87097 47.1587 7.8577C46.7371 7.27017 46.1923 6.82526 45.6019 6.43357C44.5311 5.72577 43.3649 5.23297 42.1587 4.83489C38.7877 3.72369 35.309 3.30753 31.7881 3.1947C31.7659 3.1947 31.7449 3.20322 31.6761 3.21705C32.6303 3.60342 33.3505 4.2282 33.9497 5.002C34.2837 5.43094 34.5988 5.8833 34.8718 6.35587C36.1479 8.56657 36.8492 10.9933 37.3341 13.4946C37.435 14.0097 37.5172 14.5323 37.6126 15.0752ZM26.0036 20.5918C26.0036 20.6982 26.0003 20.7855 26.0036 20.8749C26.0669 22.5257 26.2366 24.1606 26.6006 25.7721C26.9057 27.1238 27.3141 28.4362 27.9921 29.6474C28.2972 30.1956 28.6579 30.699 29.1383 31.1024C30.016 31.839 31.0114 31.8613 31.8603 31.0918C32.2453 30.7427 32.5826 30.3159 32.87 29.8741C33.4659 28.9567 33.8254 27.921 34.1283 26.8684C34.5999 25.2229 34.8396 23.5358 34.955 21.8265C34.9839 21.422 34.9939 21.0165 35.0116 20.5907C31.9956 20.8547 29.0118 20.8547 26.0036 20.5918ZM26.311 15.4445C29.1217 15.6968 31.8991 15.6989 34.6965 15.4424C34.6343 15.0975 34.5833 14.7782 34.52 14.46C34.2315 13.0188 33.8321 11.616 33.1563 10.31C32.8123 9.64477 32.404 9.02744 31.8203 8.55486C30.9692 7.8694 30.0438 7.8694 29.1927 8.55166C28.7089 8.93803 28.3449 9.43083 28.0398 9.97047C27.0844 11.6575 26.6361 13.5116 26.311 15.4445Z" fill="black"/>
</svg>
