<svg width="55" height="51" viewBox="0 0 55 51" fill="none" xmlns="http://www.w3.org/2000/svg">
<g clip-path="url(#clip0_2055_649)">
<rect width="54.6591" height="50" transform="translate(0.169922 0.379883)" fill="white"/>
<path d="M25.5819 0.433214C39.8271 -0.48872 52.1481 9.93206 53.1014 23.7084C54.0547 37.4853 43.2795 49.4008 29.0346 50.3233C14.789 51.2452 2.46833 40.8245 1.51504 27.0475C0.853278 17.4914 5.89521 8.4091 14.4975 3.66303C17.8926 1.79084 21.6821 0.686228 25.5819 0.433214ZM26.3627 2.55841C13.3308 3.05957 3.18645 13.6828 3.70497 26.2857C4.22317 38.8892 15.2074 48.6999 28.2393 48.1987C41.2709 47.6973 51.4152 37.0743 50.897 24.4708C50.5813 16.7954 46.2974 9.78774 39.4953 5.8208C35.5417 3.51201 30.973 2.37725 26.3579 2.55841H26.3627Z" fill="#0D392E"/>
<path d="M20.6509 6.5711C23.1739 5.76577 25.8298 5.42264 28.4825 5.55965C28.7611 5.54716 29.0388 5.59314 29.2969 5.69483C32.2085 7.93329 34.5123 10.8242 36.0103 14.1171C37.6329 17.9165 38.232 22.0528 37.75 26.1375C37.4531 29.1088 36.7183 32.0232 35.5667 34.7927H37.6389C37.8413 34.2845 38.0245 33.7721 38.2364 33.2685C40.6489 33.5651 42.887 34.6408 44.5883 36.3214C42.8933 38.0134 40.6496 39.0909 38.2317 39.3743C38.034 38.8756 37.8366 38.3815 37.6534 37.8828C31.3014 37.8828 24.9448 37.8828 18.5929 37.8828C18.2749 37.9031 17.9692 38.01 17.711 38.1903C17.0121 38.5304 16.323 38.8848 15.6244 39.2248C15.3684 39.339 15.086 39.3871 14.8052 39.3646C13.986 39.3646 13.1665 39.3646 12.3426 39.3646C10.613 37.581 9.21295 35.5237 8.20268 33.2822H13.8173C14.2168 33.2426 14.6207 33.2837 15.0029 33.4034C15.9345 33.7916 16.8667 34.185 17.7982 34.5826C18.5019 34.9836 19.3453 34.7458 20.121 34.8064C20.002 32.8806 19.4265 31.0063 18.4389 29.3299C17.3893 27.7089 15.9276 26.3753 14.1932 25.4567C11.8682 24.2477 9.36029 23.4028 6.76172 22.954C7.10834 20.2981 8.01 17.739 9.41224 15.4315C11.2407 15.8337 13.0387 16.3537 14.7954 16.9882C16.6797 17.637 18.4635 18.5325 20.0968 19.6496L20.6222 19.4027C19.5669 18.2636 18.3778 17.247 17.0801 16.3732C15.2337 15.071 13.3022 13.8863 11.2968 12.8264C12.982 10.8349 15.053 9.1807 17.3934 7.95582C18.9949 8.5879 20.4919 9.44407 21.8368 10.496C23.8816 12.0826 25.7797 13.8388 27.5094 15.7442L28.184 15.5718C26.4487 12.057 23.6871 9.10215 20.6509 6.5711ZM30.039 27.6614C28.695 28.0752 27.9517 29.4642 28.3795 30.7646C28.8074 32.0643 30.2436 32.7832 31.5882 32.3694C32.9322 31.9556 33.6749 30.566 33.2477 29.2663C33.0871 28.7791 32.7745 28.3519 32.3523 28.0438C31.6903 27.5621 30.8289 27.42 30.039 27.6614Z" fill="#0D392E"/>
</g>
<defs>
<clipPath id="clip0_2055_649">
<rect width="54.6591" height="50" fill="white" transform="translate(0.169922 0.379883)"/>
</clipPath>
</defs>
</svg>
