<svg width="61" height="61" viewBox="0 0 61 61" fill="none" xmlns="http://www.w3.org/2000/svg">
<path d="M30.5363 57.4437C15.6716 57.4437 3.49329 45.2057 3.49329 30.341C3.49329 26.9979 4.09026 23.8339 5.22452 20.8491L21.0444 52.6679C21.2235 53.0858 21.522 53.4439 21.9995 53.4439C22.4771 53.4439 22.7756 53.0858 22.9547 52.6679L30.2378 36.3704C30.2975 36.1913 30.4169 36.0123 30.596 36.0123C30.7751 36.0123 30.8348 36.1913 30.9542 36.3704L38.2373 52.6679C38.4164 53.0858 38.7149 53.4439 39.1924 53.4439C39.67 53.4439 39.9685 53.0858 40.1476 52.6679L55.9675 20.8491C57.1017 23.8339 57.6987 26.9979 57.6987 30.341C57.5793 45.2057 45.401 57.4437 30.5363 57.4437ZM30.5363 24.1921C30.3572 24.1921 30.2975 24.013 30.1781 23.8339L21.7011 4.73072C24.4471 3.71586 27.432 3.17858 30.5363 3.17858C33.6406 3.17858 36.6255 3.71586 39.3715 4.73072L30.8945 23.8339C30.7751 24.0727 30.7154 24.1921 30.5363 24.1921ZM21.8801 43.8326C21.701 43.8326 21.6414 43.6535 21.522 43.4744L7.79151 15.7748C10.2391 12.0138 13.5225 8.84985 17.5222 6.64104L27.432 28.6694C27.5514 29.0276 27.8499 29.147 28.1484 29.147H32.9242C33.2824 29.147 33.5212 29.0873 33.7003 28.6694L43.6101 6.64104C47.5501 8.84985 50.8932 12.0138 53.3408 15.7748L39.4909 43.4744C39.4312 43.6535 39.3118 43.8326 39.1327 43.8326C38.9537 43.8326 38.894 43.6535 38.7746 43.4744L33.5809 31.6543C33.4018 31.2364 33.163 31.1767 32.8048 31.1767H28.029C27.6708 31.1767 27.432 31.2364 27.2529 31.6543L22.2383 43.4744C22.1786 43.6535 22.0592 43.8326 21.8801 43.8326ZM30.5363 60.1898C47.0725 60.1898 60.3851 46.8772 60.3851 30.341C60.3851 13.8047 47.0725 0.492188 30.5363 0.492188C14.0001 0.492188 0.6875 13.8047 0.6875 30.341C0.6875 46.8772 14.0001 60.1898 30.5363 60.1898Z" fill="#001E50"/>
</svg>
