<svg width="48" height="48" viewBox="0 0 48 48" fill="none" xmlns="http://www.w3.org/2000/svg">
<rect width="48" height="48" rx="24" fill="#34E0A1"/>
<g clip-path="url(#clip0_329_15089)">
<path d="M22.5 22.5001V14.1211C22.5 13.7233 22.658 13.3417 22.9393 13.0604C23.2206 12.7791 23.6022 12.6211 24 12.6211C24.3978 12.6211 24.7794 12.7791 25.0607 13.0604C25.342 13.3417 25.5 13.7233 25.5 14.1211V15.0001H33C33.2329 15.0001 33.4625 15.0543 33.6708 15.1585C33.8791 15.2626 34.0603 15.4138 34.2 15.6001L35.6625 17.5501C35.7599 17.6799 35.8125 17.8378 35.8125 18.0001C35.8125 18.1624 35.7599 18.3203 35.6625 18.4501L34.2 20.4001C34.0603 20.5864 33.8791 20.7376 33.6708 20.8417C33.4625 20.9459 33.2329 21.0001 33 21.0001H25.5V36.0001H22.5V28.5001H15C14.7671 28.5001 14.5375 28.4459 14.3292 28.3417C14.1209 28.2376 13.9397 28.0864 13.8 27.9001L12.3375 25.9501C12.2401 25.8203 12.1875 25.6624 12.1875 25.5001C12.1875 25.3378 12.2401 25.1799 12.3375 25.0501L13.8 23.1001C13.9397 22.9138 14.1209 22.7626 14.3292 22.6585C14.5375 22.5543 14.7671 22.5001 15 22.5001H22.5ZM24 27.0001V24.0001H15L13.875 25.5001L15 27.0001H24ZM24 19.5001H33L34.125 18.0001L33 16.5001H24V19.5001Z" fill="white"/>
</g>
<defs>
<clipPath id="clip0_329_15089">
<rect width="24" height="24" fill="white" transform="translate(12 12)"/>
</clipPath>
</defs>
</svg>
