<svg width="48" height="48" viewBox="0 0 48 48" fill="none" xmlns="http://www.w3.org/2000/svg">
<rect width="48" height="48" rx="24" fill="#34E0A1"/>
<g clip-path="url(#clip0_329_15095)">
<path d="M19.5 21.375C19.5 21.6734 19.3815 21.9595 19.1705 22.1705C18.9595 22.3815 18.6734 22.5 18.375 22.5C18.0766 22.5 17.7905 22.3815 17.5795 22.1705C17.3685 21.9595 17.25 21.6734 17.25 21.375C17.25 21.0766 17.3685 20.7905 17.5795 20.5795C17.7905 20.3685 18.0766 20.25 18.375 20.25C18.6734 20.25 18.9595 20.3685 19.1705 20.5795C19.3815 20.7905 19.5 21.0766 19.5 21.375ZM21.207 19.131C22.0977 18.8768 23.0197 18.7485 23.946 18.75C24.945 18.75 25.9005 18.8955 26.7855 19.1595C26.9746 19.2117 27.1767 19.1877 27.3483 19.0926C27.5199 18.9976 27.6475 18.8391 27.7036 18.6511C27.7597 18.4631 27.7399 18.2606 27.6485 18.087C27.5571 17.9134 27.4013 17.7826 27.2145 17.7225C26.1537 17.4072 25.0527 17.2481 23.946 17.25C22.845 17.25 21.7845 17.4045 20.793 17.688C20.6016 17.7429 20.4399 17.8716 20.3435 18.0457C20.247 18.2198 20.2236 18.4252 20.2785 18.6165C20.3334 18.8079 20.4621 18.9696 20.6362 19.0661C20.8103 19.1626 21.0156 19.1859 21.207 19.131Z" fill="#F8FAFF"/>
<path fill-rule="evenodd" clip-rule="evenodd" d="M23.9459 14.2905C19.4804 14.2905 15.5894 16.8465 14.4659 20.478H13.6409C13.4222 20.4783 13.2063 20.5263 13.0081 20.6188C12.8099 20.7113 12.6344 20.846 12.4938 21.0135C12.3532 21.181 12.2509 21.3772 12.1941 21.5884C12.1373 21.7996 12.1273 22.0206 12.1649 22.236L12.5459 24.426C12.6367 24.9481 12.9089 25.4214 13.3145 25.7625C13.72 26.1036 14.233 26.2906 14.7629 26.2905H15.1574C15.6074 27.06 16.1894 27.7575 16.8749 28.3635L15.7814 32.079C15.7486 32.1909 15.7422 32.3089 15.7629 32.4236C15.7836 32.5384 15.8308 32.6467 15.9007 32.7401C15.9705 32.8334 16.0612 32.9092 16.1655 32.9613C16.2698 33.0135 16.3848 33.0406 16.5014 33.0405H19.5014C19.6562 33.0405 19.8072 32.9927 19.9336 32.9035C20.0601 32.8144 20.1559 32.6883 20.2079 32.5425L20.9309 30.516C21.8834 30.7755 22.8959 30.9165 23.9474 30.9165C25.0079 30.9165 26.0294 30.774 26.9894 30.5085L27.8039 32.5665C27.8593 32.7064 27.9554 32.8263 28.0798 32.9108C28.2041 32.9954 28.3511 33.0406 28.5014 33.0405H31.5014C31.6185 33.0404 31.7338 33.0129 31.8383 32.9602C31.9428 32.9075 32.0336 32.8311 32.1032 32.7371C32.1729 32.6431 32.2196 32.534 32.2396 32.4187C32.2596 32.3034 32.2524 32.185 32.2184 32.073L31.0769 28.314C32.7149 26.8425 33.7499 24.8385 33.7499 22.6035C33.7499 22.386 33.7394 22.1685 33.7199 21.957C34.1114 21.792 34.4819 21.558 34.7774 21.291C35.2499 21.75 35.9999 21.75 35.9999 20.6655C35.9999 21 35.2499 21 35.3084 20.6265C35.3714 20.5061 35.4169 20.3773 35.4434 20.244C35.4787 20.0703 35.4694 19.8905 35.4164 19.7213C35.3635 19.5521 35.2685 19.3991 35.1404 19.2765C35.0054 19.1373 34.8276 19.0472 34.6355 19.0206C34.4433 18.9939 34.2478 19.0323 34.0799 19.1295C33.9256 19.2148 33.794 19.3359 33.6961 19.4826C33.5982 19.6292 33.5369 19.7973 33.5174 19.9725C33.4814 20.337 33.6404 20.6925 33.9974 20.9535C33.8736 21.0392 33.7437 21.1159 33.6089 21.183C32.8079 17.187 28.6829 14.2905 23.9459 14.2905ZM15.7739 21.39C16.4564 18.291 19.7744 15.7905 23.9459 15.7905C28.6649 15.7905 32.2499 18.9615 32.2499 22.6035C32.2499 24.4845 31.3139 26.2185 29.7449 27.4755C29.6283 27.5693 29.5424 27.6959 29.4983 27.8389C29.4542 27.9819 29.4539 28.1348 29.4974 28.278L30.4874 31.5405H29.0099L28.1249 29.31C28.0537 29.1303 27.9158 28.985 27.74 28.9045C27.5642 28.824 27.3641 28.8145 27.1814 28.878C26.1899 29.223 25.0964 29.4165 23.9459 29.4165C22.8449 29.4194 21.7512 29.2373 20.7104 28.878C20.5236 28.8131 20.3187 28.8246 20.1403 28.91C19.9619 28.9954 19.8245 29.1478 19.7579 29.334L18.9704 31.5405H17.5019L18.4514 28.3155C18.4938 28.1718 18.4921 28.0187 18.4467 27.8759C18.4012 27.7332 18.3141 27.6073 18.1964 27.5145C17.3939 26.8934 16.7366 26.1045 16.2704 25.203C16.208 25.0791 16.1124 24.975 15.9943 24.9021C15.8762 24.8293 15.7402 24.7907 15.6014 24.7905H14.7614C14.585 24.7903 14.4143 24.728 14.2794 24.6144C14.1444 24.5008 14.0538 24.3433 14.0234 24.1695L13.6424 21.9795H15.0419C15.2129 21.9794 15.3786 21.9209 15.5117 21.8137C15.6448 21.7065 15.7374 21.557 15.7739 21.39ZM34.7054 20.1045C34.6787 20.2186 34.6287 20.3258 34.5584 20.4195C34.536 20.4078 34.514 20.3953 34.4924 20.382C34.2734 20.247 34.2569 20.1195 34.2644 20.0475C34.2718 19.9937 34.2915 19.9423 34.3219 19.8973C34.3524 19.8523 34.3927 19.8149 34.4399 19.788C34.5134 19.7475 34.5599 19.7565 34.6094 19.806C34.6511 19.8423 34.6821 19.8893 34.699 19.9419C34.716 19.9945 34.7182 20.0507 34.7054 20.1045Z" fill="#F8FAFF"/>
</g>
<defs>
<clipPath id="clip0_329_15095">
<rect width="24" height="24" fill="white" transform="translate(12 12)"/>
</clipPath>
</defs>
</svg>
