<svg width="48" height="48" viewBox="0 0 48 48" fill="none" xmlns="http://www.w3.org/2000/svg">
<rect width="48" height="48" rx="24" fill="#34E0A1"/>
<g clip-path="url(#clip0_329_15101)">
<path d="M20.2876 16.5376C20.7752 16.05 21.3539 15.6632 21.9909 15.3994C22.6279 15.1355 23.3107 14.9997 24.0001 14.9997C24.6896 14.9997 25.3724 15.1355 26.0093 15.3994C26.6463 15.6632 27.2251 16.05 27.7126 16.5376C27.7818 16.6092 27.8646 16.6663 27.9561 16.7056C28.0476 16.7449 28.146 16.7656 28.2456 16.7665C28.3452 16.7674 28.4439 16.7484 28.5361 16.7107C28.6283 16.673 28.712 16.6173 28.7824 16.5469C28.8528 16.4764 28.9085 16.3927 28.9463 16.3005C28.984 16.2084 29.0029 16.1096 29.0021 16.01C29.0012 15.9104 28.9805 15.812 28.9412 15.7205C28.9019 15.629 28.8448 15.5462 28.7731 15.4771C28.1463 14.8503 27.4022 14.353 26.5833 14.0138C25.7643 13.6746 24.8866 13.5 24.0001 13.5C23.1137 13.5 22.236 13.6746 21.417 14.0138C20.598 14.353 19.8539 14.8503 19.2271 15.4771C19.0905 15.6185 19.0149 15.808 19.0166 16.0046C19.0183 16.2013 19.0972 16.3894 19.2363 16.5284C19.3753 16.6675 19.5634 16.7464 19.7601 16.7481C19.9567 16.7498 20.1462 16.6742 20.2876 16.5376Z" fill="#F8FAFF"/>
<path d="M22.41 18.6602C22.8319 18.2389 23.4037 18.0022 24 18.0022C24.5963 18.0022 25.1681 18.2389 25.59 18.6602C25.7308 18.801 25.9218 18.8802 26.121 18.8802C26.3202 18.8802 26.5112 18.801 26.652 18.6602C26.7928 18.5194 26.8719 18.3284 26.8719 18.1292C26.8719 17.93 26.7928 17.739 26.652 17.5982C26.3038 17.2499 25.8903 16.9736 25.4353 16.7851C24.9803 16.5965 24.4925 16.4995 24 16.4995C23.5075 16.4995 23.0197 16.5965 22.5647 16.7851C22.1097 16.9736 21.6962 17.2499 21.348 17.5982C21.2114 17.7397 21.1358 17.9291 21.1375 18.1258C21.1392 18.3224 21.2181 18.5105 21.3571 18.6496C21.4962 18.7886 21.6843 18.8675 21.8809 18.8692C22.0776 18.8709 22.267 18.7953 22.4085 18.6587L22.41 18.6602ZM15.75 28.5002C15.5511 28.5002 15.3603 28.4212 15.2197 28.2805C15.079 28.1399 15 27.9491 15 27.7502C15 27.5513 15.079 27.3605 15.2197 27.2199C15.3603 27.0792 15.5511 27.0002 15.75 27.0002C15.9489 27.0002 16.1397 27.0792 16.2803 27.2199C16.421 27.3605 16.5 27.5513 16.5 27.7502C16.5 27.9491 16.421 28.1399 16.2803 28.2805C16.1397 28.4212 15.9489 28.5002 15.75 28.5002ZM22.5 27.7502C22.5 27.9491 22.579 28.1399 22.7197 28.2805C22.8603 28.4212 23.0511 28.5002 23.25 28.5002C23.4489 28.5002 23.6397 28.4212 23.7803 28.2805C23.921 28.1399 24 27.9491 24 27.7502C24 27.5513 23.921 27.3605 23.7803 27.2199C23.6397 27.0792 23.4489 27.0002 23.25 27.0002C23.0511 27.0002 22.8603 27.0792 22.7197 27.2199C22.579 27.3605 22.5 27.5513 22.5 27.7502ZM26.25 28.5002C26.0511 28.5002 25.8603 28.4212 25.7197 28.2805C25.579 28.1399 25.5 27.9491 25.5 27.7502C25.5 27.5513 25.579 27.3605 25.7197 27.2199C25.8603 27.0792 26.0511 27.0002 26.25 27.0002C26.4489 27.0002 26.6397 27.0792 26.7803 27.2199C26.921 27.3605 27 27.5513 27 27.7502C27 27.9491 26.921 28.1399 26.7803 28.2805C26.6397 28.4212 26.4489 28.5002 26.25 28.5002ZM28.5 27.7502C28.5 27.9491 28.579 28.1399 28.7197 28.2805C28.8603 28.4212 29.0511 28.5002 29.25 28.5002C29.4489 28.5002 29.6397 28.4212 29.7803 28.2805C29.921 28.1399 30 27.9491 30 27.7502C30 27.5513 29.921 27.3605 29.7803 27.2199C29.6397 27.0792 29.4489 27.0002 29.25 27.0002C29.0511 27.0002 28.8603 27.0792 28.7197 27.2199C28.579 27.3605 28.5 27.5513 28.5 27.7502ZM31.5 27.7502C31.5 27.9491 31.579 28.1399 31.7197 28.2805C31.8603 28.4212 32.0511 28.5002 32.25 28.5002C32.4489 28.5002 32.6397 28.4212 32.7803 28.2805C32.921 28.1399 33 27.9491 33 27.7502C33 27.5513 32.921 27.3605 32.7803 27.2199C32.6397 27.0792 32.4489 27.0002 32.25 27.0002C32.0511 27.0002 31.8603 27.0792 31.7197 27.2199C31.579 27.3605 31.5 27.5513 31.5 27.7502Z" fill="#F8FAFF"/>
<path d="M16.461 15.5131C16.4328 15.4163 16.3853 15.3261 16.3213 15.2481C16.2574 15.17 16.1784 15.1056 16.0891 15.0588C15.9997 15.012 15.9018 14.9837 15.8013 14.9756C15.7007 14.9675 15.5995 14.9797 15.5038 15.0116C15.4081 15.0435 15.3198 15.0944 15.2442 15.1612C15.1687 15.2281 15.1073 15.3094 15.0639 15.4005C15.0205 15.4916 14.996 15.5905 14.9917 15.6913C14.9874 15.7921 15.0035 15.8927 15.039 15.9871L17.709 24.0001H14.25C13.6533 24.0001 13.081 24.2372 12.659 24.6592C12.2371 25.0811 12 25.6534 12 26.2501V29.2501C12 29.8469 12.2371 30.4192 12.659 30.8411C13.081 31.2631 13.6533 31.5001 14.25 31.5001H15C15 31.6991 15.079 31.8898 15.2197 32.0305C15.3603 32.1711 15.5511 32.2501 15.75 32.2501H18.75C18.9489 32.2501 19.1397 32.1711 19.2803 32.0305C19.421 31.8898 19.5 31.6991 19.5 31.5001H28.5C28.5 31.6991 28.579 31.8898 28.7197 32.0305C28.8603 32.1711 29.0511 32.2501 29.25 32.2501H32.25C32.4489 32.2501 32.6397 32.1711 32.7803 32.0305C32.921 31.8898 33 31.6991 33 31.5001H33.75C34.3467 31.5001 34.919 31.2631 35.341 30.8411C35.7629 30.4192 36 29.8469 36 29.2501V26.2501C36 25.6534 35.7629 25.0811 35.341 24.6592C34.919 24.2372 34.3467 24.0001 33.75 24.0001H30.291L32.961 15.9871C32.9965 15.8927 33.0126 15.7921 33.0083 15.6913C33.004 15.5905 32.9795 15.4916 32.9361 15.4005C32.8927 15.3094 32.8313 15.2281 32.7558 15.1612C32.6802 15.0944 32.5919 15.0435 32.4962 15.0116C32.4005 14.9797 32.2993 14.9675 32.1987 14.9756C32.0982 14.9837 32.0003 15.012 31.9109 15.0588C31.8216 15.1056 31.7426 15.17 31.6787 15.2481C31.6147 15.3261 31.5672 15.4163 31.539 15.5131L28.71 24.0001H19.29L16.461 15.5131ZM33.75 25.5001C33.9489 25.5001 34.1397 25.5792 34.2803 25.7198C34.421 25.8605 34.5 26.0512 34.5 26.2501V29.2501C34.5 29.4491 34.421 29.6398 34.2803 29.7805C34.1397 29.9211 33.9489 30.0001 33.75 30.0001H14.25C14.0511 30.0001 13.8603 29.9211 13.7197 29.7805C13.579 29.6398 13.5 29.4491 13.5 29.2501V26.2501C13.5 26.0512 13.579 25.8605 13.7197 25.7198C13.8603 25.5792 14.0511 25.5001 14.25 25.5001H33.75Z" fill="#F8FAFF"/>
<path d="M24.75 20.25C24.75 20.4489 24.671 20.6397 24.5303 20.7803C24.3897 20.921 24.1989 21 24 21C23.8011 21 23.6103 20.921 23.4697 20.7803C23.329 20.6397 23.25 20.4489 23.25 20.25C23.25 20.0511 23.329 19.8603 23.4697 19.7197C23.6103 19.579 23.8011 19.5 24 19.5C24.1989 19.5 24.3897 19.579 24.5303 19.7197C24.671 19.8603 24.75 20.0511 24.75 20.25Z" fill="#F8FAFF"/>
</g>
<defs>
<clipPath id="clip0_329_15101">
<rect width="24" height="24" fill="white" transform="translate(12 12)"/>
</clipPath>
</defs>
</svg>
