<svg width="56" height="55" viewBox="0 0 56 55" fill="none" xmlns="http://www.w3.org/2000/svg">
<rect x="0.5" width="55" height="55" rx="27.5" fill="#34E0A1"/>
<g clip-path="url(#clip0_2001_6753)">
<path d="M29.1248 21.875C29.1248 21.5766 29.0063 21.2905 28.7953 21.0795C28.5843 20.8685 28.2982 20.75 27.9998 20.75C27.7014 20.75 27.4153 20.8685 27.2043 21.0795C26.9933 21.2905 26.8748 21.5766 26.8748 21.875V29.4395L23.6596 34.7945C23.5059 35.0505 23.4602 35.3571 23.5326 35.6467C23.605 35.9364 23.7894 36.1855 24.0454 36.3391C24.3014 36.4928 24.608 36.5385 24.8977 36.4661C25.1873 36.3937 25.4364 36.2093 25.5901 35.9532L28.9651 30.3282C29.0697 30.1535 29.1249 29.9537 29.1248 29.75V21.875Z" fill="white"/>
<path d="M24.625 9.5C24.3266 9.5 24.0405 9.61853 23.8295 9.8295C23.6185 10.0405 23.5 10.3266 23.5 10.625C23.5 10.9234 23.6185 11.2095 23.8295 11.4205C24.0405 11.6315 24.3266 11.75 24.625 11.75H25.75V14.1575C22.6861 14.6001 19.8206 15.9358 17.5114 17.9975C15.2021 20.0593 13.5516 22.7557 12.7659 25.75C11.9802 28.7444 12.0943 31.9038 13.0938 34.8337C14.0933 37.7636 15.9339 40.3341 18.3858 42.224L17.0313 43.5785C16.82 43.7894 16.7012 44.0757 16.701 44.3742C16.7008 44.6727 16.8192 44.9591 17.0301 45.1704C17.2411 45.3816 17.5273 45.5004 17.8258 45.5006C18.1244 45.5008 18.4108 45.3824 18.622 45.1715L20.3005 43.493C22.6518 44.8128 25.3036 45.504 28 45.5C30.6964 45.504 33.3482 44.8128 35.6995 43.493L37.378 45.1715C37.5892 45.3824 37.8756 45.5008 38.1742 45.5006C38.4727 45.5004 38.7589 45.3816 38.9699 45.1704C39.1808 44.9591 39.2992 44.6727 39.299 44.3742C39.2988 44.0757 39.18 43.7894 38.9688 43.5785L37.6165 42.224C40.0684 40.334 41.909 37.7633 42.9084 34.8332C43.9078 31.9032 44.0216 28.7436 43.2357 25.7492C42.4498 22.7548 40.7989 20.0584 38.4894 17.9968C36.1799 15.9352 33.3141 14.5998 30.25 14.1575V11.75H31.375C31.6734 11.75 31.9595 11.6315 32.1705 11.4205C32.3815 11.2095 32.5 10.9234 32.5 10.625C32.5 10.3266 32.3815 10.0405 32.1705 9.8295C31.9595 9.61853 31.6734 9.5 31.375 9.5H24.625ZM26.9605 16.2905C27.6525 16.2379 28.3475 16.2379 29.0395 16.2905C32.5195 16.5593 35.7602 18.1654 38.0815 20.7719C40.4029 23.3785 41.6245 26.7828 41.49 30.2706C41.3555 33.7583 39.8754 37.0585 37.3602 39.4785C34.8451 41.8986 31.4904 43.2504 28 43.2504C24.5096 43.2504 21.1549 41.8986 18.6398 39.4785C16.1246 37.0585 14.6445 33.7583 14.51 30.2706C14.3755 26.7828 15.5971 23.3785 17.9185 20.7719C20.2398 18.1654 23.4805 16.5593 26.9605 16.2905V16.2905ZM10 17.375C10 19.0693 10.7493 20.5903 11.935 21.6208C13.6714 18.2006 16.4506 15.4214 19.8708 13.685C19.119 12.8199 18.1209 12.2052 17.0101 11.923C15.8993 11.6407 14.7288 11.7046 13.6553 12.1059C12.5818 12.5072 11.6565 13.2268 11.0032 14.1685C10.35 15.1102 9.99995 16.2289 10 17.375V17.375ZM40.375 11.75C38.6808 11.75 37.1598 12.4993 36.1293 13.685C39.5494 15.4214 42.3286 18.2006 44.065 21.6208C44.9301 20.869 45.5448 19.8709 45.8271 18.7601C46.1093 17.6493 46.0454 16.4788 45.6441 15.4053C45.2428 14.3318 44.5232 13.4065 43.5815 12.7532C42.6398 12.1 41.5211 11.7499 40.375 11.75V11.75Z" fill="white"/>
</g>
<defs>
<clipPath id="clip0_2001_6753">
<rect width="36" height="36" fill="white" transform="translate(10 9.5)"/>
</clipPath>
</defs>
</svg>
