<svg width="55" height="55" viewBox="0 0 55 55" fill="none" xmlns="http://www.w3.org/2000/svg">
<rect width="55" height="55" rx="27.5" fill="#34E0A1"/>
<g clip-path="url(#clip0_2001_9778)">
<path d="M18.5 29.75C18.5 30.3467 18.2629 30.919 17.841 31.341C17.419 31.7629 16.8467 32 16.25 32C15.6533 32 15.081 31.7629 14.659 31.341C14.2371 30.919 14 30.3467 14 29.75C14 29.1533 14.2371 28.581 14.659 28.159C15.081 27.7371 15.6533 27.5 16.25 27.5C16.8467 27.5 17.419 27.7371 17.841 28.159C18.2629 28.581 18.5 29.1533 18.5 29.75V29.75ZM41 29.75C41 30.3467 40.7629 30.919 40.341 31.341C39.919 31.7629 39.3467 32 38.75 32C38.1533 32 37.581 31.7629 37.159 31.341C36.7371 30.919 36.5 30.3467 36.5 29.75C36.5 29.1533 36.7371 28.581 37.159 28.159C37.581 27.7371 38.1533 27.5 38.75 27.5C39.3467 27.5 39.919 27.7371 40.341 28.159C40.7629 28.581 41 29.1533 41 29.75V29.75ZM23 27.5C22.4033 27.5 21.831 27.7371 21.409 28.159C20.9871 28.581 20.75 29.1533 20.75 29.75C20.75 30.3467 20.9871 30.919 21.409 31.341C21.831 31.7629 22.4033 32 23 32H32C32.5967 32 33.169 31.7629 33.591 31.341C34.0129 30.919 34.25 30.3467 34.25 29.75C34.25 29.1533 34.0129 28.581 33.591 28.159C33.169 27.7371 32.5967 27.5 32 27.5H23ZM20.4395 19.121L18.2885 23.4275C18.2006 23.609 18.162 23.8104 18.1767 24.0115C18.1914 24.2127 18.2588 24.4064 18.3722 24.5731C18.4856 24.7399 18.6409 24.8738 18.8225 24.9615C19.0041 25.0491 19.2057 25.0873 19.4067 25.0723C21.4542 24.908 24.6943 24.6897 27.5 24.6897C30.3057 24.6897 33.548 24.908 35.5933 25.0723C35.7943 25.0873 35.9959 25.0491 36.1775 24.9615C36.3591 24.8738 36.5144 24.7399 36.6278 24.5731C36.7412 24.4064 36.8086 24.2127 36.8233 24.0115C36.838 23.8104 36.7994 23.609 36.7115 23.4275L34.5605 19.1232C34.4673 18.9362 34.3238 18.7788 34.1462 18.6687C33.9685 18.5586 33.7637 18.5002 33.5547 18.5H21.4453C21.2365 18.5 21.0319 18.5581 20.8542 18.6678C20.6766 18.7774 20.533 18.9344 20.4395 19.121V19.121Z" fill="white"/>
<path fill-rule="evenodd" clip-rule="evenodd" d="M15.1697 17.4088C15.6037 16.3963 16.3255 15.5335 17.2455 14.9275C18.1654 14.3215 19.2431 13.999 20.3447 14H34.6592C36.9092 14 38.9432 15.341 39.8297 17.4088L41.6117 21.5668C41.7805 21.9605 42.0842 22.2845 42.4667 22.4758C43.5917 23.0383 44.3905 24.0845 44.638 25.3153L45.3917 29.093C45.466 29.4553 45.502 29.8243 45.502 30.1955V31.1248C45.502 32.9563 44.6245 34.5965 43.252 35.618V39.875C43.252 40.1734 43.1334 40.4595 42.9224 40.6705C42.7115 40.8815 42.4253 41 42.127 41H37.627C37.3286 41 37.0424 40.8815 36.8315 40.6705C36.6205 40.4595 36.502 40.1734 36.502 39.875V36.8645C33.595 36.9725 30.3257 37.0625 27.502 37.0625C24.6782 37.0625 21.409 36.9725 18.502 36.8645V39.875C18.502 40.1734 18.3834 40.4595 18.1724 40.6705C17.9615 40.8815 17.6753 41 17.377 41H12.877C12.5786 41 12.2924 40.8815 12.0815 40.6705C11.8705 40.4595 11.752 40.1734 11.752 39.875V35.618C10.3795 34.5965 9.50195 32.9563 9.50195 31.1248V30.1955C9.50233 29.8253 9.53926 29.456 9.6122 29.093L10.366 25.313C10.6135 24.0845 11.4122 23.036 12.535 22.4758C12.9192 22.2837 13.223 21.9616 13.3922 21.5668L15.1742 17.4088H15.1697ZM20.3447 16.25C19.6839 16.25 19.0376 16.4441 18.486 16.8081C17.9345 17.172 17.5019 17.6899 17.242 18.2975L15.46 22.4533C15.082 23.3376 14.4017 24.0586 13.5407 24.4873C13.2934 24.6111 13.0778 24.7898 12.9101 25.0098C12.7424 25.2297 12.6272 25.485 12.5732 25.7563L11.8172 29.534C11.773 29.7517 11.7504 29.9733 11.7497 30.1955V31.1248C11.7497 32.9158 13.1447 34.3828 14.9177 34.4638C18.4165 34.6213 23.4362 34.8125 27.4997 34.8125C31.5632 34.8125 36.583 34.6235 40.0817 34.4638C40.9382 34.4226 41.7458 34.0524 42.3361 33.4303C42.9263 32.8082 43.2536 31.9823 43.2497 31.1248V30.1955C43.2497 29.9728 43.2272 29.7523 43.1822 29.534L42.4285 25.754C42.3742 25.4832 42.2588 25.2283 42.0911 25.0088C41.9235 24.7893 41.7079 24.6109 41.461 24.4873C40.6008 24.0575 39.9208 23.3369 39.5417 22.4533L37.7597 18.2953C37.4993 17.6878 37.0662 17.1701 36.5142 16.8065C35.9623 16.4429 35.3157 16.2494 34.6547 16.25H20.3447Z" fill="white"/>
</g>
<defs>
<clipPath id="clip0_2001_9778">
<rect width="36" height="36" fill="white" transform="translate(9.5 9.5)"/>
</clipPath>
</defs>
</svg>
