<svg width="55" height="55" viewBox="0 0 55 55" fill="none" xmlns="http://www.w3.org/2000/svg">
<rect width="55" height="55" rx="27.5" fill="#34E0A1"/>
<g clip-path="url(#clip0_2001_9800)">
<path d="M21.875 30.8997C22.046 33.0462 23.7425 34.718 26.7845 34.916V36.5H28.1345V34.9048C31.2845 34.6843 33.125 33.0013 33.125 30.5578C33.125 28.337 31.7165 27.1917 29.1988 26.5977L28.1345 26.3457V22.0325C29.4845 22.1855 30.344 22.9235 30.551 23.945H32.918C32.747 21.8773 30.974 20.2595 28.1345 20.084V18.5H26.7845V20.1177C24.0958 20.381 22.262 21.9988 22.262 24.287C22.262 26.312 23.6255 27.599 25.8912 28.1278L26.7845 28.3482V32.9248C25.4008 32.7155 24.485 31.9572 24.278 30.8997H21.875V30.8997ZM26.7733 26.0262C25.4458 25.718 24.7258 25.0902 24.7258 24.1452C24.7258 23.0877 25.502 22.2958 26.7845 22.064V26.024H26.7733V26.0262ZM28.3303 28.7105C29.9435 29.084 30.6882 29.6892 30.6882 30.758C30.6882 31.9775 29.7612 32.8145 28.1345 32.9675V28.6655L28.3303 28.7105V28.7105Z" fill="white"/>
<path d="M27.5 43.25C23.3228 43.25 19.3168 41.5906 16.3631 38.6369C13.4094 35.6832 11.75 31.6772 11.75 27.5C11.75 23.3228 13.4094 19.3168 16.3631 16.3631C19.3168 13.4094 23.3228 11.75 27.5 11.75C31.6772 11.75 35.6832 13.4094 38.6369 16.3631C41.5906 19.3168 43.25 23.3228 43.25 27.5C43.25 31.6772 41.5906 35.6832 38.6369 38.6369C35.6832 41.5906 31.6772 43.25 27.5 43.25ZM27.5 45.5C32.2739 45.5 36.8523 43.6036 40.2279 40.2279C43.6036 36.8523 45.5 32.2739 45.5 27.5C45.5 22.7261 43.6036 18.1477 40.2279 14.7721C36.8523 11.3964 32.2739 9.5 27.5 9.5C22.7261 9.5 18.1477 11.3964 14.7721 14.7721C11.3964 18.1477 9.5 22.7261 9.5 27.5C9.5 32.2739 11.3964 36.8523 14.7721 40.2279C18.1477 43.6036 22.7261 45.5 27.5 45.5V45.5Z" fill="white"/>
<path d="M27.5 39.875C24.2179 39.875 21.0703 38.5712 18.7496 36.2504C16.4288 33.9297 15.125 30.7821 15.125 27.5C15.125 24.2179 16.4288 21.0703 18.7496 18.7496C21.0703 16.4288 24.2179 15.125 27.5 15.125C30.7821 15.125 33.9297 16.4288 36.2504 18.7496C38.5712 21.0703 39.875 24.2179 39.875 27.5C39.875 30.7821 38.5712 33.9297 36.2504 36.2504C33.9297 38.5712 30.7821 39.875 27.5 39.875ZM27.5 41C29.2728 41 31.0283 40.6508 32.6662 39.9724C34.3041 39.2939 35.7924 38.2995 37.0459 37.0459C38.2995 35.7924 39.2939 34.3041 39.9724 32.6662C40.6508 31.0283 41 29.2728 41 27.5C41 25.7272 40.6508 23.9717 39.9724 22.3338C39.2939 20.6959 38.2995 19.2076 37.0459 17.9541C35.7924 16.7005 34.3041 15.7061 32.6662 15.0276C31.0283 14.3492 29.2728 14 27.5 14C23.9196 14 20.4858 15.4223 17.9541 17.9541C15.4223 20.4858 14 23.9196 14 27.5C14 31.0804 15.4223 34.5142 17.9541 37.0459C20.4858 39.5777 23.9196 41 27.5 41V41Z" fill="white"/>
</g>
<defs>
<clipPath id="clip0_2001_9800">
<rect width="36" height="36" fill="white" transform="translate(9.5 9.5)"/>
</clipPath>
</defs>
</svg>
