<svg width="56" height="55" viewBox="0 0 56 55" fill="none" xmlns="http://www.w3.org/2000/svg">
<rect x="0.5" width="55" height="55" rx="27.5" fill="#34E0A1"/>
<g clip-path="url(#clip0_2001_12278)">
<path d="M34.4219 25.5786C34.5267 25.6831 34.6098 25.8072 34.6665 25.9439C34.7233 26.0806 34.7525 26.2271 34.7525 26.3751C34.7525 26.523 34.7233 26.6696 34.6665 26.8062C34.6098 26.9429 34.5267 27.0671 34.4219 27.1716L27.6719 33.9216C27.5674 34.0263 27.4433 34.1094 27.3066 34.1662C27.1699 34.2229 27.0234 34.2521 26.8754 34.2521C26.7275 34.2521 26.5809 34.2229 26.4443 34.1662C26.3076 34.1094 26.1834 34.0263 26.0789 33.9216L22.7039 30.5466C22.5993 30.442 22.5164 30.3178 22.4598 30.1811C22.4032 30.0445 22.374 29.898 22.374 29.7501C22.374 29.6021 22.4032 29.4557 22.4598 29.319C22.5164 29.1823 22.5993 29.0582 22.7039 28.9536C22.9152 28.7423 23.2017 28.6236 23.5004 28.6236C23.6484 28.6236 23.7948 28.6528 23.9315 28.7094C24.0682 28.766 24.1923 28.849 24.2969 28.9536L26.8754 31.5343L32.8289 25.5786C32.9334 25.4738 33.0576 25.3907 33.1943 25.334C33.3309 25.2772 33.4775 25.248 33.6254 25.248C33.7734 25.248 33.9199 25.2772 34.0566 25.334C34.1933 25.3907 34.3174 25.4738 34.4219 25.5786V25.5786Z" fill="white"/>
<path d="M17.875 9.5C18.1734 9.5 18.4595 9.61853 18.6705 9.8295C18.8815 10.0405 19 10.3266 19 10.625V11.75H37V10.625C37 10.3266 37.1185 10.0405 37.3295 9.8295C37.5405 9.61853 37.8266 9.5 38.125 9.5C38.4234 9.5 38.7095 9.61853 38.9205 9.8295C39.1315 10.0405 39.25 10.3266 39.25 10.625V11.75H41.5C42.6935 11.75 43.8381 12.2241 44.682 13.068C45.5259 13.9119 46 15.0565 46 16.25V41C46 42.1935 45.5259 43.3381 44.682 44.182C43.8381 45.0259 42.6935 45.5 41.5 45.5H14.5C13.3065 45.5 12.1619 45.0259 11.318 44.182C10.4741 43.3381 10 42.1935 10 41V16.25C10 15.0565 10.4741 13.9119 11.318 13.068C12.1619 12.2241 13.3065 11.75 14.5 11.75H16.75V10.625C16.75 10.3266 16.8685 10.0405 17.0795 9.8295C17.2905 9.61853 17.5766 9.5 17.875 9.5V9.5ZM12.25 18.5V41C12.25 41.5967 12.4871 42.169 12.909 42.591C13.331 43.0129 13.9033 43.25 14.5 43.25H41.5C42.0967 43.25 42.669 43.0129 43.091 42.591C43.5129 42.169 43.75 41.5967 43.75 41V18.5H12.25Z" fill="white"/>
</g>
<defs>
<clipPath id="clip0_2001_12278">
<rect width="36" height="36" fill="white" transform="translate(10 9.5)"/>
</clipPath>
</defs>
</svg>
