<svg width="55" height="55" viewBox="0 0 55 55" fill="none" xmlns="http://www.w3.org/2000/svg">
<rect width="55" height="55" rx="27.5" fill="#34E0A1"/>
<g clip-path="url(#clip0_2001_9732)">
<path d="M28.1233 9.68866C27.9386 9.5658 27.7218 9.50024 27.5 9.50024C27.2782 9.50024 27.0614 9.5658 26.8768 9.68866L10.0018 20.9387C9.80093 21.0726 9.6485 21.2675 9.56698 21.4947C9.48546 21.7219 9.47917 21.9693 9.54903 22.2003C9.6189 22.4313 9.76122 22.6338 9.95497 22.7777C10.1487 22.9217 10.3836 22.9995 10.625 22.9997H14.8438V38.7497H12.875C12.5766 38.7497 12.2905 38.8682 12.0795 39.0792C11.8685 39.2901 11.75 39.5763 11.75 39.8747C11.75 40.173 11.8685 40.4592 12.0795 40.6702C12.2905 40.8811 12.5766 40.9997 12.875 40.9997H42.125C42.4234 40.9997 42.7095 40.8811 42.9205 40.6702C43.1315 40.4592 43.25 40.173 43.25 39.8747C43.25 39.5763 43.1315 39.2901 42.9205 39.0792C42.7095 38.8682 42.4234 38.7497 42.125 38.7497H40.1562V22.9997H44.375C44.6164 22.9995 44.8513 22.9217 45.045 22.7777C45.2388 22.6338 45.3811 22.4313 45.451 22.2003C45.5208 21.9693 45.5145 21.7219 45.433 21.4947C45.3515 21.2675 45.1991 21.0726 44.9983 20.9387L28.1233 9.68866V9.68866ZM37.3438 22.9997V38.7497H34.5312V22.9997H37.3438ZM31.7188 22.9997V38.7497H28.9062V22.9997H31.7188ZM26.0938 22.9997V38.7497H23.2812V22.9997H26.0938ZM20.4688 22.9997V38.7497H17.6562V22.9997H20.4688ZM27.5 18.4997C26.9033 18.4997 26.331 18.2626 25.909 17.8407C25.4871 17.4187 25.25 16.8464 25.25 16.2497C25.25 15.6529 25.4871 15.0806 25.909 14.6587C26.331 14.2367 26.9033 13.9997 27.5 13.9997C28.0967 13.9997 28.669 14.2367 29.091 14.6587C29.5129 15.0806 29.75 15.6529 29.75 16.2497C29.75 16.8464 29.5129 17.4187 29.091 17.8407C28.669 18.2626 28.0967 18.4997 27.5 18.4997V18.4997ZM10.625 43.2497C10.3266 43.2497 10.0405 43.3682 9.8295 43.5792C9.61853 43.7901 9.5 44.0763 9.5 44.3747C9.5 44.673 9.61853 44.9592 9.8295 45.1702C10.0405 45.3811 10.3266 45.4997 10.625 45.4997H44.375C44.6734 45.4997 44.9595 45.3811 45.1705 45.1702C45.3815 44.9592 45.5 44.673 45.5 44.3747C45.5 44.0763 45.3815 43.7901 45.1705 43.5792C44.9595 43.3682 44.6734 43.2497 44.375 43.2497H10.625Z" fill="white"/>
</g>
<defs>
<clipPath id="clip0_2001_9732">
<rect width="36" height="36" fill="white" transform="translate(9.5 9.5)"/>
</clipPath>
</defs>
</svg>
