<svg width="55" height="55" viewBox="0 0 55 55" fill="none" xmlns="http://www.w3.org/2000/svg">
<rect width="55" height="55" rx="27.5" fill="#34E0A1"/>
<g clip-path="url(#clip0_2001_2376)">
<path d="M11.75 16.25C11.75 15.6533 11.9871 15.081 12.409 14.659C12.831 14.2371 13.4033 14 14 14H41C41.5967 14 42.169 14.2371 42.591 14.659C43.0129 15.081 43.25 15.6533 43.25 16.25H11.75ZM27.5 34.25C28.6935 34.25 29.8381 33.7759 30.682 32.932C31.5259 32.0881 32 30.9435 32 29.75C32 28.5565 31.5259 27.4119 30.682 26.568C29.8381 25.7241 28.6935 25.25 27.5 25.25C26.3065 25.25 25.1619 25.7241 24.318 26.568C23.4741 27.4119 23 28.5565 23 29.75C23 30.9435 23.4741 32.0881 24.318 32.932C25.1619 33.7759 26.3065 34.25 27.5 34.25Z" fill="white"/>
<path d="M9.5 20.75C9.5 20.1533 9.73705 19.581 10.159 19.159C10.581 18.7371 11.1533 18.5 11.75 18.5H43.25C43.8467 18.5 44.419 18.7371 44.841 19.159C45.2629 19.581 45.5 20.1533 45.5 20.75V38.75C45.5 39.3467 45.2629 39.919 44.841 40.341C44.419 40.7629 43.8467 41 43.25 41H11.75C11.1533 41 10.581 40.7629 10.159 40.341C9.73705 39.919 9.5 39.3467 9.5 38.75V20.75ZM16.25 20.75C16.25 21.9435 15.7759 23.0881 14.932 23.932C14.0881 24.7759 12.9435 25.25 11.75 25.25V34.25C12.9435 34.25 14.0881 34.7241 14.932 35.568C15.7759 36.4119 16.25 37.5565 16.25 38.75H38.75C38.75 37.5565 39.2241 36.4119 40.068 35.568C40.9119 34.7241 42.0565 34.25 43.25 34.25V25.25C42.0565 25.25 40.9119 24.7759 40.068 23.932C39.2241 23.0881 38.75 21.9435 38.75 20.75H16.25Z" fill="white"/>
</g>
<defs>
<clipPath id="clip0_2001_2376">
<rect width="36" height="36" fill="white" transform="translate(9.5 9.5)"/>
</clipPath>
</defs>
</svg>
