<svg width="34" height="34" viewBox="0 0 34 34" fill="none" xmlns="http://www.w3.org/2000/svg">
<rect width="34" height="34" rx="17" fill="#34E0A1"/>
<path d="M21.455 12.455C21.6663 12.2538 21.9475 12.1426 22.2392 12.1448C22.531 12.147 22.8104 12.2625 23.0187 12.4668C23.2269 12.6712 23.3476 12.9484 23.3553 13.24C23.363 13.5317 23.2571 13.8149 23.06 14.03L17.075 21.515C16.9721 21.6258 16.8479 21.7148 16.7098 21.7765C16.5717 21.8383 16.4226 21.8715 16.2714 21.8743C16.1201 21.8771 15.9699 21.8494 15.8296 21.7928C15.6894 21.7362 15.5619 21.6519 15.455 21.545L11.486 17.576C11.3755 17.473 11.2868 17.3488 11.2253 17.2108C11.1638 17.0728 11.1308 16.9238 11.1281 16.7728C11.1254 16.6217 11.1532 16.4717 11.2098 16.3316C11.2664 16.1915 11.3506 16.0643 11.4574 15.9574C11.5643 15.8506 11.6915 15.7664 11.8316 15.7098C11.9717 15.6532 12.1217 15.6254 12.2728 15.6281C12.4238 15.6308 12.5728 15.6638 12.7108 15.7253C12.8488 15.7868 12.973 15.8754 13.076 15.986L16.217 19.1255L21.4265 12.488C21.4359 12.4764 21.4459 12.4654 21.4565 12.455H21.455Z" fill="white"/>
</svg>
