<svg width="55" height="54" viewBox="0 0 55 54" fill="none" xmlns="http://www.w3.org/2000/svg">
<circle cx="27.5" cy="27" r="27" fill="white"/>
<rect x="4.35742" y="24.6857" width="7.71429" height="4.62857" rx="2.31429" fill="#34E0A1"/>
<rect x="29.8145" y="3.85712" width="7.71429" height="4.62857" rx="2.31429" transform="rotate(90 29.8145 3.85712)" fill="#34E0A1"/>
<rect x="42.9277" y="24.6857" width="7.71429" height="4.62857" rx="2.31429" fill="#34E0A1"/>
<path fill-rule="evenodd" clip-rule="evenodd" d="M28.8739 26.9268L33.1685 34.3653C33.488 34.9188 33.2984 35.6265 32.745 35.946C32.1915 36.2656 31.4838 36.0759 31.1643 35.5225L26.5524 27.5345C26.4967 27.444 26.454 27.3466 26.425 27.2452C26.4117 27.1987 26.4014 27.1517 26.3941 27.1045C26.3548 26.8527 26.3981 26.5864 26.5354 26.3485L26.5361 26.3474L32.7069 15.6593C33.0264 15.1058 33.7341 14.9162 34.2876 15.2357C34.841 15.5553 35.0306 16.263 34.7111 16.8164L28.8739 26.9268Z" fill="#34E0A1"/>
<rect x="29.8145" y="42.4286" width="7.71429" height="4.62857" rx="2.31429" transform="rotate(90 29.8145 42.4286)" fill="#34E0A1"/>
</svg>
