<svg width="17" height="16" viewBox="0 0 17 16" fill="none" xmlns="http://www.w3.org/2000/svg">
<path d="M3.96961 5H13.5616L8.76561 10.481L3.96961 5ZM3.21661 5.659L8.01261 11.139C8.10647 11.2464 8.22222 11.3325 8.3521 11.3915C8.48197 11.4505 8.62297 11.481 8.76561 11.481C8.90825 11.481 9.04924 11.4505 9.17912 11.3915C9.30899 11.3325 9.42475 11.2464 9.51861 11.139L14.3146 5.659C14.8806 5.012 14.4206 4 13.5616 4H3.96961C3.77736 3.99984 3.58915 4.05509 3.4275 4.15914C3.26585 4.26319 3.13761 4.41164 3.05816 4.58669C2.9787 4.76175 2.95139 4.956 2.97949 5.14618C3.00759 5.33636 3.08992 5.51441 3.21661 5.659Z" fill="#1C2805"/>
</svg>
