<svg width="194" height="57" viewBox="0 0 194 57" fill="none" xmlns="http://www.w3.org/2000/svg">
<rect width="194" height="57" fill="#202020"/>
<g id="Desktop - 1 MAIN1">
<rect width="1440" height="9120" transform="translate(-1016 -5863)" fill="white"/>
<g id="Site">
<g id="&#208;&#159;&#208;&#190;&#209;&#129;&#208;&#187;&#209;&#131;&#208;&#179;&#208;&#184;">
<rect width="1440" height="3784.38" transform="translate(-1016 -3392)" fill="white"/>
<g id="5-7-9">
<g id="Row">
<g id="Col">
<g id="Section Text">
<g id="&#208;&#155;&#208;&#190;&#208;&#179;&#208;&#190;">
<g id="Ministry_of_Finance_of_Ukraine_UA_logo 1" clip-path="url(#clip0_89_1140)">
<g id="Group">
<g id="Group_2">
<path id="Vector" d="M0.046875 40.28V45.68L11.3469 34.38V28.98L0.046875 40.28Z" fill="#FED700"/>
<path id="Vector_2" d="M44.6465 19.78V25.18L55.8465 13.88V8.47998L44.6465 19.78Z" fill="#FED700"/>
<path id="Vector_3" d="M44.6465 27.78V33.18L55.8465 21.88V16.48L44.6465 27.78Z" fill="#FED700"/>
<path id="Vector_4" d="M55.8465 0.47998L44.6465 11.78V17.18L55.8465 5.87998V0.47998Z" fill="#FED700"/>
<path id="Vector_5" d="M44.6469 35.78V44.78L27.9469 52.08L11.4469 44.88L0.046875 56.28H55.8469V24.48L44.6469 35.78Z" fill="#FED700"/>
<path id="Vector_6" d="M0.046875 0.47998V29.68L11.3469 18.38V9.07998H44.6469L53.2469 0.47998H0.046875Z" fill="#FED700"/>
<path id="Vector_7" d="M0.046875 32.28V37.68L11.3469 26.38V20.98L0.046875 32.28Z" fill="#FED700"/>
<path id="Vector_8" d="M0.046875 48.2801V53.6801L11.3469 42.3801V37.0801L0.046875 48.2801Z" fill="#FED700"/>
<g id="Group_3">
<path id="Vector_9" d="M22.0461 29.9798L21.3461 24.0798C21.1461 22.2798 20.3461 20.5798 19.2461 19.2798V32.1798H20.2461C20.4461 31.2798 21.1461 30.3798 22.0461 29.9798Z" fill="#FED700"/>
<path id="Vector_10" d="M22.6461 36.48C21.4461 36.18 20.5461 35.18 20.2461 33.98H19.2461V39.18H23.1461C23.1461 38.28 23.2461 37.48 23.4461 36.58L22.6461 36.48Z" fill="#FED700"/>
<path id="Vector_11" d="M25.2473 37.0801C25.0473 37.7801 24.9473 38.4801 24.9473 39.2801H27.0473C27.0473 38.0801 26.2473 37.1801 25.2473 37.0801Z" fill="#FED700"/>
<path id="Vector_12" d="M27.0469 44.5799V40.8799H25.0469C25.4469 42.3799 26.1469 43.5799 27.0469 44.5799Z" fill="#FED700"/>
<path id="Vector_13" d="M27.9469 36.7802C28.4469 36.1802 29.1469 35.6802 29.8469 35.4802C29.0469 34.0802 28.4469 32.6802 27.9469 31.1802C27.4469 32.6802 26.8469 34.1802 26.0469 35.4802C26.8469 35.6802 27.4469 36.1802 27.9469 36.7802Z" fill="#FED700"/>
<path id="Vector_14" d="M28.8457 44.5799C29.8457 43.5799 30.5457 42.2799 30.8457 40.8799H28.8457V44.5799Z" fill="#FED700"/>
<path id="Vector_15" d="M28.8457 39.18H31.0457C31.0457 38.48 30.9457 37.68 30.7457 36.98C29.6457 37.18 28.8457 38.08 28.8457 39.18Z" fill="#FED700"/>
<path id="Vector_16" d="M35.6457 32.1798H36.6457V19.2798C35.5457 20.5798 34.7457 22.2798 34.5457 24.0798L33.8457 29.9798C34.7457 30.3798 35.4457 31.2798 35.6457 32.1798Z" fill="#FED700"/>
<path id="Vector_17" d="M36.6473 39.18V33.98H35.6473C35.3473 35.18 34.3473 36.18 33.2473 36.48L32.4473 36.68C32.6473 37.48 32.7473 38.38 32.7473 39.28H36.6473V39.18Z" fill="#FED700"/>
<path id="Vector_18" d="M13.1465 43.58L27.9465 50.08L42.7465 43.58V10.98H13.1465V43.58ZM17.4465 15.68C17.9465 15.98 18.3465 16.18 18.7465 16.48C21.1465 18.28 22.7465 21.08 23.0465 24.28L23.9465 31.38H23.5465C22.7465 31.38 22.0465 31.98 21.8465 32.78C21.6465 33.68 22.2465 34.68 23.2465 34.78L24.3465 34.98C24.7465 34.28 25.0465 33.68 25.3465 32.98C26.3465 30.48 27.1465 27.98 27.0465 25.28C27.0465 22.38 26.6465 19.48 26.6465 16.58C26.6465 15.28 27.1465 14.08 27.9465 13.08C28.7465 13.98 29.2465 15.18 29.2465 16.58C29.2465 19.48 28.8465 22.38 28.8465 25.28C28.7465 27.98 29.6465 30.58 30.5465 32.98C30.8465 33.68 31.2465 34.38 31.5465 34.98L32.6465 34.78C33.5465 34.58 34.2465 33.68 34.0465 32.78C33.8465 31.98 33.1465 31.38 32.3465 31.38H31.9465L32.8465 24.28C33.1465 21.08 34.7465 18.38 37.1465 16.48C37.5465 16.18 38.0465 15.88 38.4465 15.68V40.98H32.6465C32.2465 43.38 30.9465 45.38 29.0465 46.78C28.6465 47.08 28.2465 47.48 27.9465 47.98C27.6465 47.48 27.3465 47.08 26.8465 46.78C25.0465 45.38 23.7465 43.28 23.2465 40.98H17.4465V15.68Z" fill="#FED700"/>
<path id="Vector_19" d="M71.1473 0.47998H69.9473V56.28H71.1473V0.47998Z" fill="black"/>
<path id="Vector_20" d="M96.7465 15.38V3.97998H95.1465L90.9465 14.08L86.6465 3.97998H85.1465V15.38H86.0465V5.07998L90.4465 15.38H91.3465L95.7465 4.97998V15.38H96.7465Z" fill="black"/>
<path id="Vector_21" d="M101.447 6.37988H100.447V15.3799H101.447V6.37988Z" fill="black"/>
<path id="Vector_22" d="M101.446 3.68018H100.346V4.78018H101.446V3.68018Z" fill="black"/>
<path id="Vector_23" d="M104.846 6.37988V15.3799H105.846V11.2799H111.346V15.3799H112.346V6.37988H111.346V10.3799H105.846V6.37988H104.846Z" fill="black"/>
<path id="Vector_24" d="M116.746 3.68018H115.646V4.78018H116.746V3.68018Z" fill="black"/>
<path id="Vector_25" d="M116.846 6.37988H115.846V15.3799H116.846V6.37988Z" fill="black"/>
<path id="Vector_26" d="M127.647 12.8799L126.747 12.5799C126.347 13.8799 125.147 14.7799 123.747 14.7799C121.847 14.7799 120.447 13.1799 120.447 10.9799C120.447 8.67988 121.847 7.17988 123.747 7.17988C125.247 7.17988 126.247 8.07988 126.747 9.37988L127.647 9.07988C127.147 7.37988 125.747 6.37988 123.747 6.37988C121.247 6.37988 119.447 8.27988 119.447 10.9799C119.447 13.6799 121.247 15.5799 123.747 15.5799C125.647 15.5799 127.147 14.4799 127.647 12.8799Z" fill="black"/>
<path id="Vector_27" d="M132.847 15.3799V7.27988H136.247V6.37988H128.447V7.27988H131.847V15.3799H132.847Z" fill="black"/>
<path id="Vector_28" d="M145.546 10.8798C145.546 8.07978 143.946 6.27979 141.446 6.27979C138.946 6.27979 137.146 8.17978 137.146 10.8798C137.146 13.5798 138.846 15.4798 141.746 15.4798C143.446 15.4798 144.746 14.6798 145.446 13.7798L144.746 13.1798C144.146 13.9798 142.946 14.5798 141.746 14.5798C139.646 14.5798 138.346 13.2798 138.146 11.1798H145.646V10.8798H145.546ZM138.146 10.4798C138.346 8.47978 139.546 7.07978 141.446 7.07978C143.246 7.07978 144.446 8.37979 144.646 10.4798H138.146Z" fill="black"/>
<path id="Vector_29" d="M151.946 15.5799C154.346 15.5799 156.046 13.6799 156.046 10.9799C156.046 8.27988 154.346 6.37988 151.946 6.37988C150.546 6.37988 149.446 7.07988 148.746 8.17988L148.646 6.57988H147.846V18.5799H148.846V14.0799C149.446 14.9799 150.546 15.5799 151.946 15.5799ZM148.646 10.8799C148.646 8.57988 149.946 7.07988 151.846 7.07988C153.746 7.07988 155.046 8.57988 155.046 10.8799C155.046 13.1799 153.746 14.6799 151.846 14.6799C149.946 14.7799 148.646 13.1799 148.646 10.8799Z" fill="black"/>
<path id="Vector_30" d="M161.946 7.07978C163.446 7.07978 164.546 7.97979 164.946 9.27979L165.846 8.97978C165.346 7.27978 163.946 6.27979 161.946 6.27979C159.446 6.27979 157.646 8.17978 157.646 10.8798C157.646 13.5798 159.446 15.4798 161.946 15.4798C163.846 15.4798 165.346 14.3798 165.846 12.7798L164.946 12.4798C164.546 13.7798 163.346 14.6798 161.946 14.6798C160.046 14.6798 158.646 13.0798 158.646 10.8798C158.646 8.67978 160.046 7.07978 161.946 7.07978Z" fill="black"/>
<path id="Vector_31" d="M170.947 15.3799V7.27988H174.247V6.37988H166.547V7.27988H169.947V15.3799H170.947Z" fill="black"/>
<path id="Vector_32" d="M182.747 8.87998C182.747 7.27998 181.647 6.47998 179.747 6.47998H176.047V15.48H179.847C181.747 15.48 182.947 14.48 182.947 12.98C182.947 11.88 182.447 11.08 181.347 10.78C182.247 10.38 182.747 9.67998 182.747 8.87998ZM182.147 12.88C182.147 13.98 181.347 14.58 180.047 14.58H177.047V11.18H180.247C181.347 11.18 182.147 11.88 182.147 12.88ZM180.147 10.38H177.047V7.27998H180.047C181.147 7.27998 181.947 7.87998 181.947 8.87998C181.847 9.77998 181.147 10.38 180.147 10.38Z" fill="black"/>
<path id="Vector_33" d="M193.547 10.8798C193.547 8.07978 191.847 6.27979 189.247 6.27979C186.647 6.27979 184.947 8.17978 184.947 10.8798C184.947 13.6798 186.647 15.4798 189.247 15.4798C191.747 15.5798 193.547 13.6798 193.547 10.8798ZM189.147 14.7798C187.147 14.7798 185.747 13.2798 185.747 10.9798C185.747 8.67979 187.147 7.17978 189.147 7.17978C191.147 7.17978 192.547 8.67979 192.547 10.9798C192.547 13.1798 191.147 14.7798 189.147 14.7798Z" fill="black"/>
<path id="Vector_34" d="M92.1461 36.98V33.08C92.7461 33.78 93.5461 34.08 94.5461 34.08C96.7461 34.08 98.1461 32.28 98.1461 29.48C98.1461 26.68 96.7461 24.88 94.5461 24.88C93.5461 24.88 92.7461 25.28 92.1461 25.88V21.98H89.7461V25.88C89.1461 25.18 88.3461 24.88 87.3461 24.88C85.1461 24.88 83.7461 26.68 83.7461 29.48C83.7461 32.28 85.1461 34.08 87.3461 34.08C88.3461 34.08 89.1461 33.68 89.7461 32.98V36.98H92.1461ZM93.8461 26.88C94.9461 26.88 95.6461 27.88 95.6461 29.58C95.6461 31.18 94.9461 32.28 93.8461 32.28C92.6461 32.28 91.9461 31.28 91.9461 29.58C91.9461 27.88 92.6461 26.88 93.8461 26.88ZM87.9461 32.18C86.8461 32.18 86.0461 31.18 86.0461 29.48C86.0461 27.78 86.7461 26.78 87.9461 26.78C89.0461 26.78 89.7461 27.78 89.7461 29.48C89.7461 31.18 89.1461 32.18 87.9461 32.18Z" fill="black"/>
<path id="Vector_35" d="M102.246 21.7798H99.6465V23.7798H102.246V21.7798Z" fill="black"/>
<path id="Vector_36" d="M102.146 24.98H99.7461V33.98H102.146V24.98Z" fill="black"/>
<path id="Vector_37" d="M104.447 33.98H106.847V30.48H110.347V33.98H112.747V24.98H110.347V28.38H106.847V24.98H104.447V33.98Z" fill="black"/>
<path id="Vector_38" d="M118.646 28.5799C116.946 28.7799 114.746 29.1799 114.746 31.5799C114.746 33.1799 115.946 34.1799 117.646 34.1799C118.946 34.1799 120.146 33.6799 120.746 32.7799C120.946 33.6799 121.546 34.0799 122.646 34.0799C123.146 34.0799 123.346 34.0799 123.546 33.9799V31.8799H123.146C122.846 31.8799 122.646 31.6799 122.646 31.3799V27.8799C122.646 25.9799 121.246 24.8799 118.946 24.8799C117.346 24.8799 115.946 25.3799 114.946 26.3799L116.346 27.8799C117.046 27.1799 117.846 26.8799 118.846 26.8799C119.846 26.8799 120.446 27.2799 120.446 27.8799C120.446 28.2799 119.646 28.4799 118.646 28.5799ZM120.446 30.4799C120.446 31.4799 119.446 32.2799 118.246 32.2799C117.446 32.2799 117.046 31.8799 117.046 31.2799C117.046 30.3799 117.946 30.2799 118.846 30.0799C119.546 29.9799 120.046 29.8799 120.346 29.6799V30.4799H120.446Z" fill="black"/>
<path id="Vector_39" d="M131.547 33.98H133.947V24.98H131.547V28.38H127.947V24.98H125.547V33.98H127.947V30.48H131.547V33.98Z" fill="black"/>
<path id="Vector_40" d="M144.546 31.4798L142.246 30.7798C141.946 31.6798 141.246 32.1798 140.346 32.1798C139.046 32.1798 138.146 31.1798 138.146 29.4798C138.146 27.7798 138.946 26.7798 140.346 26.7798C141.246 26.7798 141.946 27.2798 142.246 28.1798L144.546 27.4798C144.046 25.7798 142.446 24.7798 140.346 24.7798C137.546 24.7798 135.746 26.6798 135.746 29.3798C135.746 32.0798 137.646 33.9798 140.346 33.9798C142.446 34.1798 144.046 33.1798 144.546 31.4798Z" fill="black"/>
<path id="Vector_41" d="M148.646 24.98H146.246V33.98H148.646V24.98Z" fill="black"/>
<path id="Vector_42" d="M148.746 21.7798H146.146V23.7798H148.746V21.7798Z" fill="black"/>
<path id="Vector_43" d="M159.146 31.48C159.146 30.48 158.546 29.68 157.546 29.38C158.346 28.98 158.846 28.38 158.846 27.38C158.846 25.78 157.546 24.98 155.446 24.98H151.246V33.98H155.746C157.846 33.98 159.146 33.08 159.146 31.48ZM153.546 26.78H155.446C156.146 26.78 156.546 27.08 156.546 27.68C156.546 28.28 156.146 28.58 155.446 28.58H153.546V26.78ZM153.546 32.18V30.18H155.446C156.246 30.18 156.746 30.58 156.746 31.18C156.746 31.78 156.346 32.18 155.546 32.18H153.546Z" fill="black"/>
<path id="Vector_44" d="M86.3461 48.0802C85.5461 48.5802 85.1461 49.3802 85.1461 50.3802C85.1461 51.8802 86.1461 52.7802 87.6461 52.7802C88.9461 52.7802 89.8461 51.9802 90.4461 50.2802L93.7461 41.1802H92.7461L90.2461 48.0802H88.9461L84.8461 41.1802H83.7461L87.9461 48.0802H86.3461ZM89.8461 48.8802L89.4461 49.8802C88.9461 51.2802 88.3461 51.8802 87.4461 51.8802C86.5461 51.8802 85.9461 51.2802 85.9461 50.2802C85.9461 49.6802 86.1461 49.0802 86.6461 48.8802H89.8461Z" fill="black"/>
<path id="Vector_45" d="M102.546 52.58H103.046V51.68H102.746C102.446 51.68 102.246 51.48 102.246 51.18V47.48H100.346L102.846 43.48H101.846L99.3457 47.48H96.8457V40.48H95.8457V52.48H96.8457V48.28H101.346V51.08C101.246 52.08 101.746 52.58 102.546 52.58Z" fill="black"/>
<path id="Vector_46" d="M106.646 51.08C107.346 52.08 108.446 52.68 109.846 52.68C112.246 52.68 113.946 50.78 113.946 48.08C113.946 45.38 112.246 43.48 109.846 43.48C108.446 43.48 107.346 44.18 106.646 45.28L106.546 43.68H105.746V55.68H106.746V51.08H106.646ZM109.746 44.28C111.646 44.28 112.946 45.78 112.946 48.08C112.946 50.38 111.646 51.88 109.746 51.88C107.846 51.88 106.546 50.38 106.546 48.08C106.546 45.78 107.746 44.28 109.746 44.28Z" fill="black"/>
<path id="Vector_47" d="M119.647 47.48C117.947 47.88 115.947 48.18 115.947 50.28C115.947 51.78 117.047 52.78 118.847 52.78C120.347 52.78 121.647 52.08 122.247 51.18C122.247 52.28 122.747 52.78 123.747 52.78C123.847 52.78 124.047 52.78 124.147 52.68V51.88H123.847C123.347 51.88 123.247 51.68 123.247 51.18V46.38C123.247 44.58 122.047 43.48 120.047 43.48C118.547 43.48 117.247 44.08 116.347 45.18L117.047 45.88C117.847 44.88 118.747 44.38 119.947 44.38C121.347 44.38 122.247 45.08 122.247 46.18C122.047 46.98 120.947 47.18 119.647 47.48ZM122.147 47.38V48.98C122.147 50.58 120.647 51.78 118.847 51.78C117.647 51.78 116.947 51.18 116.947 50.18C116.947 48.68 118.347 48.38 119.747 48.08C120.647 48.08 121.547 47.88 122.147 47.38Z" fill="black"/>
<path id="Vector_48" d="M127.547 43.5801H126.547V52.5801H127.547V43.5801Z" fill="black"/>
<path id="Vector_49" d="M128.846 40.8799H127.646V41.9799H128.846V40.8799Z" fill="black"/>
<path id="Vector_50" d="M126.346 40.8799H125.146V41.9799H126.346V40.8799Z" fill="black"/>
<path id="Vector_51" d="M138.346 52.5801V43.5801H137.346V47.5801H131.746V43.5801H130.846V52.5801H131.746V48.3801H137.346V52.5801H138.346Z" fill="black"/>
<path id="Vector_52" d="M148.746 52.5801V43.5801H147.746L142.146 51.2801V43.5801H141.246V52.5801H142.246L147.846 44.9801V52.5801H148.746Z" fill="black"/>
</g>
</g>
</g>
</g>
</g>
</g>
</g>
</g>
</g>
</g>
</g>
</g>
<defs>
<clipPath id="clip0_89_1140">
<rect width="193.5" height="55.8" fill="white" transform="translate(0.046875 0.47998)"/>
</clipPath>
</defs>
</svg>
