<svg width="101" height="20" viewBox="0 0 101 20" fill="none" xmlns="http://www.w3.org/2000/svg">
<g id="Group">
<path id="Vector" d="M1.22273 3.71575C1.70509 2.91289 2.36052 2.2767 3.19062 1.81197C4.02072 1.34564 4.93415 1.11328 5.93252 1.11328H12.5589V4.66763H6.46615C5.99181 4.66763 5.58958 4.8375 5.26106 5.17562C4.93095 5.51375 4.76589 5.9288 4.76589 6.41917V8.98317H11.6968V12.5119H4.76429V18.8834H0.5V6.36789C0.5 5.40318 0.740377 4.5202 1.22273 3.71575Z" fill="white"/>
<path id="Vector_2" d="M14.9434 15.3307H18.0154V4.66763H14.9434V1.11328H22.2556V15.3307H25.3276V18.885H14.9434V15.3307Z" fill="#34E0A1"/>
<path id="Vector_3" d="M28.4256 4.2732C29.0683 3.16427 29.9609 2.31014 31.1034 1.7092C32.246 1.10986 33.5537 0.808594 35.0264 0.808594C36.4991 0.808594 37.8068 1.10986 38.9493 1.7092C40.0919 2.31014 40.9845 3.16427 41.6271 4.2732C42.2698 5.38214 42.5919 6.68176 42.5919 8.17049V18.8832H38.3773V7.94293C38.3773 6.92695 38.0728 6.08563 37.4638 5.41739C36.8549 4.74915 36.0424 4.41422 35.0264 4.41422C34.0104 4.41422 33.1979 4.74915 32.589 5.41739C31.98 6.08563 31.6755 6.92855 31.6755 7.94293V18.8848H27.4609V8.17049C27.4609 6.68176 27.783 5.38214 28.4256 4.2732Z" fill="#34E0A1"/>
<path id="Vector_4" d="M48.862 18.3258C47.7787 17.7505 46.9325 16.93 46.3236 15.8627C45.7146 14.797 45.4102 13.5439 45.4102 12.1048V1.11328H49.5991V12.2587C49.5991 13.1897 49.8699 13.9637 50.4116 14.5823C50.9532 15.2009 51.6728 15.5086 52.5702 15.5086C53.4676 15.5086 54.1855 15.1993 54.7288 14.5823C55.2704 13.9653 55.5412 13.1897 55.5412 12.2587V1.11328H59.7302V12.2587C59.7302 13.1897 60.001 13.9637 60.5427 14.5823C61.0843 15.2009 61.8039 15.5086 62.7013 15.5086C63.5987 15.5086 64.3166 15.1993 64.8598 14.5823C65.4015 13.9653 65.6723 13.1897 65.6723 12.2587V1.11328H69.8613V12.1064C69.8613 13.5455 69.5568 14.797 68.9479 15.8643C68.3389 16.93 67.4928 17.7521 66.4095 18.3274C65.3262 18.9027 64.0906 19.1911 62.7029 19.1911C61.6709 19.1911 60.7222 19.0084 59.86 18.6447C58.9963 18.2809 58.2527 17.7521 57.6261 17.0582C56.9995 17.736 56.256 18.2601 55.3922 18.6318C54.5285 19.0036 53.5894 19.1911 52.575 19.1911C51.1808 19.1895 49.9453 18.9011 48.862 18.3258Z" fill="white"/>
<path id="Vector_5" d="M72.8516 15.3307H75.9236V4.66763H72.8516V1.11328H80.1638V15.3307H83.2358V18.885H72.8532V15.3307H72.8516Z" fill="#34E0A1"/>
<path id="Vector_6" d="M86.3339 4.2732C86.9765 3.16427 87.8691 2.31014 89.0117 1.7092C90.1543 1.10986 91.4619 0.808594 92.9346 0.808594C94.4073 0.808594 95.715 1.10986 96.8576 1.7092C98.0001 2.31014 98.8927 3.16427 99.5354 4.2732C100.178 5.38214 100.5 6.68176 100.5 8.17049V18.8832H96.2855V7.94293C96.2855 6.92695 95.981 6.08563 95.372 5.41739C94.7631 4.74915 93.9506 4.41422 92.9346 4.41422C91.9186 4.41422 91.1061 4.74915 90.4972 5.41739C89.8882 6.08563 89.5838 6.92855 89.5838 7.94293V18.8848H85.3691V8.17049C85.3691 6.68176 85.6896 5.38214 86.3339 4.2732Z" fill="#34E0A1"/>
</g>
</svg>
