<svg width="101" height="80" viewBox="0 0 101 80" fill="none" xmlns="http://www.w3.org/2000/svg">
<path fill-rule="evenodd" clip-rule="evenodd" d="M11.1907 44.3057H8.20038C7.62315 43.4731 7.25616 42.5222 7.12873 41.5289H2.99244V44.2994H0.5V35.5879H7.49403C10.5457 35.5879 10.8577 36.9397 10.8577 38.4954C10.8574 39.0019 10.7249 39.5002 10.4725 39.9446C10.22 40.389 9.85557 40.7653 9.41266 41.0388C9.60608 42.2894 10.2326 43.4405 11.1907 44.3057ZM6.94446 37.5915H2.99244V39.6994H7.4908C8.1923 39.6994 8.38303 39.3432 8.38303 38.7972V38.5031C8.38303 38.1702 8.33292 37.9307 8.15351 37.772C7.97409 37.6133 7.57323 37.5915 6.94446 37.5915ZM14.7727 35.5941H12.2787V40.0043V44.3056H14.7727V40.0043V35.5941ZM37.7508 42.2506C37.2853 42.2506 36.8117 42.1868 36.8117 41.7139V41.2146V40.8599H43.1899V39.0102H36.8117V37.5899H43.2384V35.5987H36.8117H34.2788V41.2146C34.2788 42.7437 34.6183 44.3056 37.1301 44.3056H43.3127V42.2506H37.7508ZM70.1526 35.5941H72.7582H72.9813V44.3056H70.4888V38.9963L68.1855 42.4467H67.29H66.393L64.0912 38.9963V44.3056H61.5972V35.5941H61.8219H64.4274L67.29 39.8861L70.1526 35.5941ZM81.5673 44.3056H84.3555L80.6912 35.5941H77.4181L73.7538 44.3056H76.542L77.0722 42.8838H81.0355L81.5673 44.3056ZM77.8497 40.7977L79.0539 37.5713L80.258 40.7977H77.8497ZM87.6174 35.5987V42.2491H92.2402V44.3056H87.6174H87.514H85.1299V35.5987H87.6174ZM95.8772 42.2491V35.5987H93.388V44.3056H95.7721H95.8772H100.5V42.2491H95.8772ZM52.586 44.3057H55.5763C54.6182 43.4405 53.9917 42.2894 53.7983 41.0388C54.2412 40.7653 54.6056 40.389 54.8581 39.9446C55.1106 39.5002 55.243 39.0019 55.2433 38.4954C55.2433 36.9397 54.9314 35.5879 51.8797 35.5879H44.8856V44.2994H47.3781V41.5289H51.5144C51.6418 42.5222 52.0088 43.4731 52.586 44.3057ZM47.3781 37.5915H51.3366C51.9653 37.5915 52.3662 37.6133 52.5456 37.772C52.725 37.9307 52.7751 38.1702 52.7751 38.5031V38.7972C52.7751 39.3432 52.5844 39.6994 51.8829 39.6994H47.3781V37.5915ZM24.4418 41.8088C25.5328 41.8088 26.1649 41.0155 27.2462 39.3307L27.2574 39.3134C28.3239 37.6564 29.6513 35.5941 32.4137 35.5941H33.0183V38.1998H32.4137C31.3195 38.1998 30.6858 39.0165 29.6142 40.6779L29.5996 40.7006C28.5305 42.3581 27.2061 44.4114 24.4418 44.4114C21.6649 44.4114 20.3362 42.3424 19.2694 40.6779C17.8357 38.444 17.2894 38.1998 16.465 38.1998H16.027V35.5972H16.465C19.2419 35.5972 20.5706 37.6662 21.6374 39.3307C23.0711 41.5646 23.6175 41.8088 24.4418 41.8088Z" fill="#5454FF"/>
</svg>
