<svg width="101" height="80" viewBox="0 0 101 80" fill="none" xmlns="http://www.w3.org/2000/svg">
<g clip-path="url(#clip0_445_8040)">
<path d="M9.12051 33.5629C8.93164 34.6453 8.56483 35.442 8.02008 35.9529C7.47533 36.4639 6.73044 36.719 5.78541 36.7183H0.5L2.33087 26.2373H7.8277C8.68111 26.2373 9.26638 26.4611 9.58351 26.9086C9.90063 27.3561 9.98379 28.0093 9.83298 28.8684C9.79333 29.1049 9.7386 29.3386 9.66913 29.5682C9.60635 29.774 9.52165 29.9724 9.41649 30.1601C9.30864 30.3486 9.17603 30.5217 9.0222 30.6749C8.8417 30.8529 8.64728 31.0162 8.4408 31.1633C8.78161 31.3964 9.02734 31.7441 9.13319 32.1432C9.22692 32.5188 9.22269 32.9921 9.12051 33.5629ZM6.48626 28.6792H4.33721L4.03171 30.4329H6.47569C6.67742 30.4293 6.8714 30.3545 7.02341 30.2219C7.17542 30.0892 7.2757 29.9071 7.30655 29.7077C7.33088 29.5849 7.32814 29.4582 7.29851 29.3365C7.26888 29.2148 7.21308 29.1011 7.13499 29.0032C7.05691 28.9052 6.95841 28.8255 6.84637 28.7696C6.73433 28.7136 6.61144 28.6828 6.48626 28.6792ZM5.90698 32.5365H3.66385L3.35412 34.3028H5.90698C6.10849 34.2995 6.30232 34.2249 6.45417 34.0924C6.60603 33.9599 6.70613 33.7779 6.73679 33.5787C6.76159 33.4544 6.75897 33.326 6.72909 33.2028C6.69922 33.0795 6.64281 32.9642 6.56381 32.865C6.4848 32.7658 6.3851 32.685 6.27166 32.6282C6.15822 32.5715 6.03376 32.5402 5.90698 32.5365Z" fill="#EB3C27"/>
<path d="M9.55664 36.7183L11.2818 26.25H13.5757L12.249 34.3029H16.1539L15.7564 36.7183H9.55664Z" fill="#EB3C27"/>
<path d="M25.8503 32.6271C25.7349 33.329 25.5457 34.0168 25.2858 34.6789C25.0976 35.1621 24.804 35.5973 24.4264 35.9527C24.0634 36.2714 23.6279 36.4964 23.1579 36.6081C22.5687 36.7433 21.9653 36.8065 21.3609 36.7963H20.1241C19.537 36.8103 18.9505 36.7471 18.3799 36.6081C17.9721 36.5118 17.6086 36.281 17.3482 35.9527C17.1149 35.6405 16.9856 35.2159 16.9602 34.6789C16.949 33.9901 17.0132 33.302 17.1516 32.6271L17.5691 30.3417C17.6846 29.6401 17.872 28.9521 18.1283 28.2889C18.3137 27.8073 18.6053 27.3737 18.9814 27.0204C19.3434 26.7016 19.7795 26.4785 20.2499 26.3713C20.8455 26.2382 21.4547 26.1757 22.0649 26.1853H23.2953C23.8772 26.1724 24.4583 26.2335 25.0247 26.3671C25.4331 26.4588 25.7977 26.6879 26.0575 27.0161C26.2915 27.3283 26.4229 27.7512 26.4518 28.2846C26.4807 28.8181 26.419 29.5024 26.2668 30.3375L25.8503 32.6271ZM22.8905 28.6789H21.1991C20.978 28.6788 20.7639 28.7563 20.5941 28.8979C20.4243 29.0395 20.3096 29.2363 20.27 29.4538L19.5871 33.1884C19.5621 33.3246 19.5674 33.4646 19.6026 33.5985C19.6378 33.7324 19.702 33.8569 19.7906 33.9632C19.8793 34.0695 19.9903 34.1551 20.1157 34.2137C20.2411 34.2724 20.3778 34.3027 20.5163 34.3026H22.2076C22.4287 34.3027 22.6428 34.2252 22.8126 34.0836C22.9824 33.942 23.0972 33.7453 23.1368 33.5278L23.8196 29.7931C23.8446 29.6572 23.8393 29.5175 23.8043 29.3838C23.7693 29.2501 23.7054 29.1258 23.6171 29.0195C23.5288 28.9133 23.4182 28.8277 23.2932 28.7688C23.1682 28.71 23.0318 28.6793 22.8936 28.6789H22.8905Z" fill="#EB3C27"/>
<path d="M35.4409 28.679H31.1745C30.9606 28.6743 30.7516 28.7437 30.583 28.8755C30.4144 29.0073 30.2966 29.1933 30.2496 29.4021L29.4969 33.2678C29.3912 33.8091 29.8352 34.3069 30.4219 34.3069H34.3447L33.8743 36.7224H30.0857C29.4612 36.736 28.8374 36.6749 28.2274 36.5406C27.7432 36.4186 27.3771 36.1998 27.1291 35.8841C26.881 35.5684 26.7432 35.1399 26.7157 34.5987C26.6911 34.0638 26.7615 33.3792 26.9271 32.5448L27.3373 30.4137C27.4628 29.7121 27.6546 29.024 27.9102 28.3587C28.0956 27.8748 28.3909 27.4406 28.7728 27.0902C29.1463 26.7681 29.5931 26.5423 30.0741 26.4327C30.6988 26.2958 31.3374 26.2327 31.9768 26.2446H35.9124L35.4409 28.679Z" fill="#EB3C27"/>
<path d="M37.604 36.6945L35.4561 36.7188L37.4043 26.2537L39.5755 26.2441L38.9783 28.9778C38.9627 29.0678 38.9752 29.1605 39.0141 29.2432C39.053 29.3259 39.1165 29.3946 39.1958 29.44C39.2751 29.4853 39.3665 29.5052 39.4575 29.4968C39.5485 29.4885 39.6347 29.4523 39.7045 29.3932L43.2129 26.2505H46.1358L41.3165 31.0074L44.3461 36.7209H41.3218L39.0734 32.6797C39.0332 32.6071 38.9716 32.5486 38.897 32.5124C38.8223 32.4761 38.7383 32.4638 38.6564 32.4771C38.5745 32.4904 38.4987 32.5287 38.4394 32.5867C38.3801 32.6447 38.3401 32.7196 38.325 32.8012L37.604 36.6945Z" fill="#EB3C27"/>
<path d="M54.2756 33.5629C54.0839 34.6453 53.7125 35.442 53.1615 35.9529C52.6104 36.4639 51.8563 36.719 50.8993 36.7183H45.5547L47.4067 26.2373H52.9669C53.8316 26.2373 54.424 26.4611 54.7439 26.9086C55.0639 27.3561 55.1481 28.0093 54.9965 28.8684C54.9573 29.1049 54.9029 29.3386 54.8338 29.5682C54.7699 29.7741 54.6841 29.9725 54.5779 30.1601C54.4689 30.3489 54.3349 30.5221 54.1794 30.6749C53.9965 30.8531 53.7996 31.0165 53.5906 31.1633C53.9348 31.3949 54.184 31.7428 54.2925 32.1432C54.3813 32.5188 54.3757 32.9921 54.2756 33.5629ZM51.6054 28.6792H49.4426L49.1255 30.4329H51.6033C51.8048 30.4302 51.9989 30.3566 52.1515 30.2249C52.304 30.0932 52.4053 29.9119 52.4373 29.713C52.4616 29.5889 52.4584 29.4611 52.428 29.3384C52.3977 29.2158 52.3409 29.1012 52.2617 29.0027C52.1824 28.9043 52.0827 28.8243 51.9693 28.7684C51.856 28.7125 51.7318 28.6821 51.6054 28.6792ZM51.0283 32.5365H48.7555L48.4437 34.3028H51.0283C51.231 34.3002 51.4263 34.2262 51.5798 34.0937C51.7334 33.9613 51.8353 33.7789 51.8676 33.5787C51.8921 33.4536 51.889 33.3246 51.8584 33.2009C51.8279 33.0771 51.7706 32.9615 51.6906 32.8622C51.6106 32.7629 51.5099 32.6822 51.3955 32.626C51.2811 32.5697 51.1557 32.5392 51.0283 32.5365Z" fill="#EB3C27"/>
<path d="M63.5983 32.6274C63.4875 33.3278 63.3061 34.0152 63.0571 34.6792C62.8789 35.1588 62.5979 35.5936 62.2336 35.953C61.8892 36.2702 61.4704 36.4956 61.0159 36.6084C60.4511 36.7437 59.8714 36.807 59.2907 36.7965H58.111C57.5483 36.8105 56.9863 36.7472 56.4408 36.6084C56.046 36.5095 55.6971 36.2782 55.4524 35.953C55.2283 35.6408 55.1043 35.2162 55.0804 34.6792C55.0694 33.9907 55.1307 33.303 55.2632 32.6274L56.3806 26.25H58.8203L57.5011 33.7817C57.4887 33.844 57.4902 33.9083 57.5052 33.97C57.5203 34.0317 57.5486 34.0894 57.5883 34.139C57.628 34.1886 57.678 34.229 57.7348 34.2573C57.7917 34.2856 57.8541 34.3011 57.9176 34.3029H60.2706C60.441 34.2999 60.6048 34.2369 60.7332 34.1249C60.8617 34.0129 60.9464 33.8592 60.9725 33.6908L62.2759 26.25H64.7146L63.5983 32.6274Z" fill="#EB3C27"/>
<path d="M64.1367 36.7183L64.5596 34.3028H69.1177C69.3083 34.301 69.4921 34.232 69.6369 34.1081C69.7816 33.9842 69.8781 33.8132 69.9094 33.6253C69.932 33.5078 69.9285 33.3867 69.8993 33.2707C69.8702 33.1547 69.8159 33.0464 69.7405 32.9536C69.6651 32.8607 69.5702 32.7855 69.4626 32.7331C69.3551 32.6808 69.2373 32.6526 69.1177 32.6506H67.5321C66.4961 32.6506 65.7914 32.3906 65.4179 31.8705C65.0444 31.3504 64.9524 30.5477 65.142 29.4625C65.3365 28.3701 65.7146 27.5597 66.2763 27.0312C66.8379 26.5026 67.6367 26.238 68.6727 26.2373H73.0754L72.6409 28.6792H68.365C68.1794 28.6811 68.0004 28.7485 67.8595 28.8693C67.7186 28.9901 67.6247 29.1567 67.5944 29.3398C67.572 29.4544 67.575 29.5725 67.6031 29.6858C67.6313 29.7991 67.684 29.9048 67.7575 29.9956C67.831 30.0863 67.9235 30.1598 68.0284 30.2109C68.1334 30.2619 68.2483 30.2894 68.365 30.2912H69.9686C71.0046 30.2912 71.7114 30.5442 72.0891 31.0502C72.4669 31.5562 72.5578 32.3592 72.3619 33.4593C72.1639 34.5502 71.7829 35.3673 71.2192 35.9107C70.6554 36.454 69.8555 36.7243 68.8196 36.7214L64.1367 36.7183Z" fill="#EB3C27"/>
<path d="M82.5634 26.3535L82.1173 28.7954H79.2357L77.7663 36.8345H75.2209L76.6902 28.8007H73.8086L74.2547 26.3588L82.5634 26.3535Z" fill="#EB3C27"/>
<path d="M81.6113 36.7183L83.5268 26.2373H90.6853L90.2392 28.7954H85.6261L85.3301 30.1866H89.7699L89.3386 32.6665H84.8978L84.5986 34.1866H89.2107L88.7699 36.7236L81.6113 36.7183Z" fill="#EB3C27"/>
<path d="M96.4836 36.7179L94.695 33.0561H93.8779L93.2161 36.7179H90.6992L92.5925 26.2369H98.1125C98.5448 26.225 98.9762 26.2821 99.3905 26.406C99.6983 26.4985 99.9679 26.6879 100.159 26.9462C100.347 27.2265 100.454 27.5531 100.469 27.8902C100.629 29.8986 100.214 31.5149 98.2161 32.5138C97.8877 32.683 97.535 32.8003 97.1707 32.8616C97.9836 34.4874 99.0121 36.7179 99.0121 36.7179H96.4836ZM96.7669 28.684H94.6686L94.3123 30.6587H96.7669C96.9963 30.6572 97.218 30.5754 97.3933 30.4275C97.5687 30.2796 97.6867 30.0748 97.7267 29.8489C97.754 29.7071 97.7498 29.561 97.7142 29.4209C97.6787 29.2809 97.6128 29.1504 97.5212 29.0387C97.4296 28.927 97.3145 28.8369 97.1842 28.7747C97.0538 28.7125 96.9113 28.6797 96.7669 28.6787V28.684Z" fill="#EB3C27"/>
<path d="M45.5878 53.6444H43.2062L44.2168 49.2047L41.0455 53.5154C40.9478 53.6232 40.8259 53.7062 40.6898 53.7576C40.5537 53.809 40.4073 53.8273 40.2628 53.811C40.1182 53.7947 39.9796 53.7442 39.8584 53.6638C39.7372 53.5834 39.6368 53.4753 39.5656 53.3484L37.8278 49.4372L37.2622 53.6465H34.8838L36.6005 44.2533C36.6559 43.9509 36.8152 43.6773 37.0509 43.4799C37.2865 43.2824 37.5838 43.1735 37.8912 43.1719H38.2548C38.4653 43.1706 38.6702 43.2391 38.8376 43.3666C39.005 43.4942 39.1253 43.6737 39.1798 43.877L40.5191 49.5176C40.5416 49.6017 40.5882 49.6775 40.6533 49.7354C40.7184 49.7932 40.7991 49.8308 40.8853 49.8433C40.9715 49.8558 41.0595 49.8427 41.1383 49.8056C41.2172 49.7686 41.2834 49.7092 41.3288 49.6349L44.8975 43.7913C45.013 43.6033 45.1749 43.4479 45.3675 43.3402C45.5602 43.2325 45.7772 43.176 45.998 43.1761H46.5265C46.6458 43.176 46.7636 43.2022 46.8717 43.2527C46.9798 43.3032 47.0754 43.3769 47.1518 43.4685C47.2283 43.56 47.2837 43.6673 47.3141 43.7826C47.3445 43.898 47.3491 44.0186 47.3278 44.136L45.5878 53.6444Z" fill="#EB3C27"/>
<path d="M56.4521 53.8147L58.8528 43.3496H61.0727L59.2259 51.4014H63.0061L62.4511 53.8179L56.4521 53.8147Z" fill="#EB3C27"/>
<path d="M63.8838 53.8147L66.2855 43.3496H68.5054L66.6586 51.4014H70.4388L69.8848 53.8179L63.8838 53.8147Z" fill="#EB3C27"/>
<path d="M56.465 45.3855C56.4418 44.8485 56.3223 44.4257 56.1067 44.117C55.8756 43.7942 55.5391 43.562 55.1553 43.4606C54.6303 43.3218 54.0882 43.2584 53.5454 43.2724H52.4079C51.8478 43.2621 51.2888 43.3253 50.7451 43.4606C50.3041 43.5749 49.9 43.801 49.5718 44.117C49.2189 44.4775 48.9484 44.9103 48.779 45.3855C48.5375 46.049 48.3626 46.7349 48.2568 47.4331L47.1807 53.8147H49.5316L50.1733 50.2872H53.5031L52.8614 53.8189H55.2134L56.2895 47.4331C56.4168 46.7582 56.4755 46.0722 56.465 45.3855ZM50.5454 48.2269L50.687 47.4479C50.8043 46.7999 51.3287 46.3327 51.9386 46.3327H53.2663C53.7599 46.3327 54.131 46.821 54.0358 47.3464L53.8752 48.2269H50.5454Z" fill="#EB3C27"/>
</g>
<defs>
<clipPath id="clip0_445_8040">
<rect width="100" height="27.629" fill="white" transform="translate(0.5 26.1855)"/>
</clipPath>
</defs>
</svg>
