<svg width="101" height="80" viewBox="0 0 101 80" fill="none" xmlns="http://www.w3.org/2000/svg">
<g clip-path="url(#clip0_445_8237)">
<path d="M49.0441 45.5498V46.2041C48.6885 46.4459 48.1267 46.7944 47.4511 47.1001V47.8824H46.9178V47.3206C46.1924 47.598 45.3745 47.8042 44.5425 47.8042H44.4998C43.4757 47.7971 42.601 47.6051 41.8472 47.3277V47.8753H41.3138V47.1144C40.688 46.837 40.1547 46.5099 39.6924 46.2041C39.7635 46.0334 39.8275 45.8699 39.8915 45.6992C41.008 46.4317 42.4019 47.2495 44.4998 47.2637H44.5353C46.5693 47.2851 48.5747 45.8983 49.0441 45.5498Z" fill="#7C00E8"/>
<path d="M49.5773 46.2041H49.0439V52.0854H49.5773V46.2041Z" fill="#7C00E8"/>
<path d="M49.0439 52.0857V52.7755C48.2331 53.4085 46.4268 54.6174 44.5423 54.6174C44.528 54.6174 44.5209 54.6174 44.5067 54.6174C42.0745 54.5961 40.5669 53.5934 39.237 52.7115C38.4405 52.1781 37.7507 51.7159 36.9826 51.5665C36.8547 51.5381 36.7479 51.5168 36.6484 51.5026C36.7764 51.3461 36.8973 51.1896 37.0182 51.0332C37.0395 51.0403 37.0609 51.0403 37.0822 51.0474C37.9499 51.2252 38.7179 51.7372 39.5286 52.2706C40.0762 52.6333 40.6593 53.0244 41.3207 53.3444V52.6973H41.8541V53.5791C42.6079 53.8778 43.4684 54.0841 44.5067 54.0912H44.5352C45.3672 54.0912 46.1921 53.8209 46.9175 53.4725V52.6973H47.4509V53.1951C48.2331 52.7471 48.8234 52.2706 49.0439 52.0857Z" fill="#7C00E8"/>
<path d="M41.8536 50.5566H41.3203V51.09H41.8536V50.5566Z" fill="#7C00E8"/>
<path d="M41.8536 51.623H41.3203V52.1564H41.8536V51.623Z" fill="#7C00E8"/>
<path d="M41.8536 48.4229H41.3203V48.9562H41.8536V48.4229Z" fill="#7C00E8"/>
<path d="M41.8536 49.4824H41.3203V50.0158H41.8536V49.4824Z" fill="#7C00E8"/>
<path d="M42.3868 50.0225H41.8535V50.5487H42.3868V50.0225Z" fill="#7C00E8"/>
<path d="M41.3205 48.9561H40.7871V49.4895H41.3205V48.9561Z" fill="#7C00E8"/>
<path d="M42.3868 52.1631H41.8535V52.6964H42.3868V52.1631Z" fill="#7C00E8"/>
<path d="M41.3205 51.0898H40.7871V51.6232H41.3205V51.0898Z" fill="#7C00E8"/>
<path d="M42.3868 47.8896H41.8535V48.423H42.3868V47.8896Z" fill="#7C00E8"/>
<path d="M47.4504 48.4229H46.917V48.9562H47.4504V48.4229Z" fill="#7C00E8"/>
<path d="M47.4504 50.5566H46.917V51.09H47.4504V50.5566Z" fill="#7C00E8"/>
<path d="M47.4504 51.623H46.917V52.1564H47.4504V51.623Z" fill="#7C00E8"/>
<path d="M47.4504 49.4824H46.917V50.0158H47.4504V49.4824Z" fill="#7C00E8"/>
<path d="M46.9172 50.0225H46.3838V50.5487H46.9172V50.0225Z" fill="#7C00E8"/>
<path d="M46.9172 47.8896H46.3838V48.423H46.9172V47.8896Z" fill="#7C00E8"/>
<path d="M46.9172 52.1631H46.3838V52.6964H46.9172V52.1631Z" fill="#7C00E8"/>
<path d="M47.9768 48.9563V49.4826H47.4505H47.4434V48.9492H47.4505V48.9563H47.9768Z" fill="#7C00E8"/>
<path d="M47.9768 51.0898V51.6232H47.4505H47.4434V51.0898H47.4505H47.9768Z" fill="#7C00E8"/>
<path d="M44.386 48.3301L42.8926 49.8235L44.0162 50.9471L44.3931 50.5702L44.77 50.9471L45.8865 49.8235L44.386 48.3301ZM44.386 50.5702L43.6393 49.8235L44.386 49.0767L45.1327 49.8235L44.386 50.5702Z" fill="#7C00E8"/>
<path d="M44.7554 50.9473L44.3785 51.3242L44.0016 50.9473L42.8779 52.0638L44.3714 53.5572L45.8648 52.0638L44.7554 50.9473ZM43.6389 52.0638L44.3856 51.3171L45.1323 52.0638L44.3856 52.8105L43.6389 52.0638Z" fill="#7C00E8"/>
<path d="M1.02637 45.5498V46.2041C1.38195 46.4459 1.94376 46.7944 2.61936 47.1001V47.8824H3.15273V47.3206C3.8781 47.598 4.69594 47.8042 5.52798 47.8042H5.57066C6.59472 47.7971 7.46943 47.6051 8.22326 47.3277V47.8753H8.75665V47.1144C9.38245 46.837 9.91585 46.5099 10.3781 46.2041C10.307 46.0334 10.2429 45.8699 10.1789 45.6992C9.06245 46.4317 7.66857 47.2495 5.57066 47.2637H5.5351C3.50119 47.2851 1.49573 45.8983 1.02637 45.5498Z" fill="#7C00E8"/>
<path d="M1.03337 46.2041H0.5V52.0854H1.03337V46.2041Z" fill="#7C00E8"/>
<path d="M1.0332 52.0857V52.7755C1.84392 53.4085 3.65026 54.6174 5.53482 54.6174C5.54904 54.6174 5.55616 54.6174 5.57038 54.6174C8.00255 54.5961 9.5102 53.5934 10.8401 52.7115C11.6366 52.1781 12.3264 51.7159 13.0944 51.5665C13.2224 51.5381 13.3291 51.5168 13.4287 51.5026C13.3006 51.3461 13.1798 51.1896 13.0588 51.0332C13.0375 51.0403 13.0162 51.0403 12.9948 51.0474C12.1272 51.2252 11.3592 51.7372 10.5485 52.2706C10.0009 52.6333 9.41774 53.0244 8.75638 53.3444V52.6973H8.22298V53.5791C7.46915 53.8778 6.60867 54.0841 5.57038 54.0912H5.54194C4.70988 54.0912 3.88494 53.8209 3.15956 53.4725V52.6973H2.62619V53.1951C1.83681 52.7471 1.24655 52.2706 1.0332 52.0857Z" fill="#7C00E8"/>
<path d="M8.75703 50.5566H8.22363V51.09H8.75703V50.5566Z" fill="#7C00E8"/>
<path d="M8.75703 51.623H8.22363V52.1564H8.75703V51.623Z" fill="#7C00E8"/>
<path d="M8.75703 48.4229H8.22363V48.9562H8.75703V48.4229Z" fill="#7C00E8"/>
<path d="M8.75703 49.4824H8.22363V50.0158H8.75703V49.4824Z" fill="#7C00E8"/>
<path d="M8.22279 50.0225H7.68945V50.5487H8.22279V50.0225Z" fill="#7C00E8"/>
<path d="M9.28333 48.9561H8.75V49.4895H9.28333V48.9561Z" fill="#7C00E8"/>
<path d="M8.22279 52.1631H7.68945V52.6964H8.22279V52.1631Z" fill="#7C00E8"/>
<path d="M9.28333 51.0898H8.75V51.6232H9.28333V51.0898Z" fill="#7C00E8"/>
<path d="M8.22279 47.8896H7.68945V48.423H8.22279V47.8896Z" fill="#7C00E8"/>
<path d="M3.15935 48.4229H2.62598V48.9562H3.15935V48.4229Z" fill="#7C00E8"/>
<path d="M3.15935 50.5566H2.62598V51.09H3.15935V50.5566Z" fill="#7C00E8"/>
<path d="M3.15935 51.623H2.62598V52.1564H3.15935V51.623Z" fill="#7C00E8"/>
<path d="M3.15935 49.4824H2.62598V50.0158H3.15935V49.4824Z" fill="#7C00E8"/>
<path d="M3.68571 50.0225H3.15234V50.5487H3.68571V50.0225Z" fill="#7C00E8"/>
<path d="M3.68571 47.8896H3.15234V48.423H3.68571V47.8896Z" fill="#7C00E8"/>
<path d="M3.68571 52.1631H3.15234V52.6964H3.68571V52.1631Z" fill="#7C00E8"/>
<path d="M2.09277 48.9563V49.4826H2.62614V48.9492V48.9563H2.09277Z" fill="#7C00E8"/>
<path d="M2.09277 51.0898V51.6232H2.62614V51.0898H2.09277Z" fill="#7C00E8"/>
<path d="M4.19141 49.8313L5.30792 50.955L5.68484 50.5781L6.06175 50.955L7.18536 49.8313L5.69195 48.3379L4.19141 49.8313ZM4.94523 49.8313L5.69195 49.0846L6.43867 49.8313L5.69195 50.5781L4.94523 49.8313Z" fill="#7C00E8"/>
<path d="M4.19141 52.0637L5.68484 53.5572L7.17826 52.0637L6.05464 50.9473L5.67773 51.3242L5.30081 50.9473L4.19141 52.0637ZM5.68484 52.8105L4.93812 52.0637L5.68484 51.317L6.43155 52.0637L5.68484 52.8105Z" fill="#7C00E8"/>
<path d="M25.3049 32.9124V31.7461H24.7715V32.9124C24.8569 32.9053 24.9493 32.9053 25.0346 32.9053C25.127 32.9053 25.2124 32.9053 25.3049 32.9124Z" fill="#7C00E8"/>
<path d="M29.5079 37.3714C29.5079 39.6613 27.7798 41.553 25.5539 41.809C25.4685 41.8161 25.3832 41.8232 25.2978 41.8303V43.0179H24.7645V41.8303C24.7218 41.8303 24.6791 41.8232 24.6365 41.8161C22.3536 41.6169 20.5615 39.6968 20.5615 37.3642C20.5615 34.989 22.4247 33.0404 24.7645 32.9053V33.4387C22.7163 33.5738 21.0878 35.2877 21.0878 37.3714C21.0878 39.4124 22.6452 41.0978 24.6365 41.2898C24.6791 41.2969 24.7218 41.2969 24.7645 41.304V33.4387C24.8498 33.4316 24.9423 33.4316 25.0276 33.4316C25.12 33.4316 25.2054 33.4316 25.2907 33.4387V41.304C25.376 41.2969 25.4614 41.2898 25.5467 41.2756C27.474 41.0196 28.9674 39.3697 28.9674 37.3714C28.9674 35.2877 27.3389 33.5738 25.2907 33.4387V32.9053C27.6447 33.0476 29.5079 34.9961 29.5079 37.3714Z" fill="#7C00E8"/>
<path d="M35.0553 31.3838H34.5219C34.657 33.2328 34.6215 35.096 34.4223 36.9308C34.2161 38.8367 33.9886 40.9275 33.2632 43.0254H30.7244C31.4213 40.9418 31.6489 38.8439 31.8479 36.9877C32.0329 35.2454 32.0755 33.4817 31.976 31.7251L31.4426 31.7536C31.5421 33.4746 31.4995 35.2169 31.3217 36.9237C31.1084 38.8936 30.8879 40.9347 30.1625 43.0183H25.3054V43.5374H33.0712C32.8009 44.2344 32.4738 44.9242 32.0684 45.6069C30.319 48.5582 26.5214 50.8482 25.3054 51.5309V43.5374H24.772V51.5309C23.5487 50.8482 19.7583 48.5582 18.0089 45.614C17.6035 44.9242 17.2763 44.2344 17.0062 43.5446H24.772V43.0254H19.9147C19.1894 40.9418 18.9689 38.9078 18.7556 36.9308C18.5707 35.2169 18.528 33.4817 18.6347 31.7607L18.1013 31.7322C17.9946 33.4817 18.0373 35.2525 18.2293 36.9948C18.4284 38.8509 18.656 40.9418 19.3529 43.0326H16.8141C16.0817 40.9347 15.8612 38.8439 15.6549 36.9379C15.4558 35.1032 15.4202 33.2399 15.5554 31.3909H15.022C14.8869 33.2542 14.9296 35.1387 15.1216 36.9948C15.4202 39.7399 15.7545 42.8547 17.5537 45.8914C18.6844 47.8115 20.633 49.4329 22.0625 50.4499C23.3212 51.3459 24.3879 51.9433 24.772 52.1496V54.6386H25.3054V52.1496C25.6823 51.9505 26.7561 51.353 28.0149 50.4499C29.4442 49.4258 31.3857 47.8115 32.5236 45.8914C34.3157 42.8547 34.657 39.7399 34.9486 36.9948C35.1549 35.1316 35.1904 33.247 35.0553 31.3838Z" fill="#7C00E8"/>
<path d="M34.5144 30.8221C32.324 30.1039 30.0768 29.6416 27.8011 29.4425V22.9283H27.2677V24.2937C26.8908 24.3933 26.521 24.5426 26.1796 24.7346C25.8596 24.9124 25.5609 25.1329 25.2979 25.3818V26.1498C25.625 25.7658 26.009 25.4458 26.4428 25.1969C26.7059 25.0475 26.9833 24.9337 27.2677 24.8484V27.0672C26.8908 27.1668 26.521 27.3161 26.1796 27.5081C25.8596 27.6859 25.5609 27.9064 25.2979 28.1553V28.9233C25.625 28.5393 26.009 28.2193 26.4428 27.9704C26.7059 27.821 26.9833 27.7073 27.2677 27.6219V29.4069C26.6135 29.3571 25.9521 29.3358 25.2979 29.3287V28.9233H24.7645V29.3287C24.1031 29.3358 23.4488 29.3571 22.7946 29.4069V27.6077C23.0861 27.693 23.3635 27.8139 23.6195 27.9562C24.0604 28.205 24.4445 28.5251 24.7645 28.9091V28.1411C24.4942 27.8922 24.2027 27.6788 23.8826 27.4939C23.5412 27.3019 23.1786 27.1526 22.7946 27.053V24.8342C23.0861 24.9195 23.3635 25.0404 23.6195 25.1827C24.0604 25.4316 24.4445 25.7516 24.7645 26.1356V25.3676C24.4942 25.1186 24.2027 24.9053 23.8826 24.7204C23.5412 24.5284 23.1715 24.3791 22.7946 24.2795V22.9141H22.2612V29.4283C19.9855 29.6345 17.7382 30.0968 15.5479 30.815V31.3697C18.5205 30.3812 21.5998 29.8621 24.7147 29.8336H25.3547C28.4625 29.8621 31.5418 30.3741 34.5073 31.3626H34.5144V30.8079C34.5216 30.8221 34.5216 30.8221 34.5144 30.8221Z" fill="#7C00E8"/>
<path d="M25.3049 21.79H24.7715V25.3743H25.3049V21.79Z" fill="#7C00E8"/>
<path d="M24.7715 28.148H25.2977V26.1426H24.7715V28.148Z" fill="#7C00E8"/>
<path d="M29.5085 55.4776C29.7218 55.8047 29.8 56.1888 29.7218 56.5728C29.6436 56.9568 29.4231 57.284 29.096 57.4973C28.8471 57.6609 28.5697 57.7391 28.2924 57.7391C27.8159 57.7391 27.3537 57.5115 27.0692 57.0849C26.8558 56.7577 26.7776 56.3737 26.8558 55.9897C26.9341 55.6057 27.1545 55.2785 27.4817 55.0652L27.5173 55.0438C28.9893 54.0908 30.7672 52.8037 32.3531 51.2676L32.73 51.6445C31.1086 53.2091 29.3023 54.5247 27.8017 55.499L27.7733 55.5203C27.5741 55.6554 27.4319 55.8617 27.3821 56.1034C27.3323 56.3452 27.3821 56.5941 27.5173 56.8004C27.8017 57.2271 28.3778 57.3479 28.8044 57.0635C29.0107 56.9284 29.1529 56.715 29.2027 56.4733C29.2524 56.2315 29.2027 55.9826 29.0676 55.7763L29.5085 55.4776Z" fill="#7C00E8"/>
<path d="M33.9525 52.8672L34.3294 53.2441C33.3267 54.2042 32.1675 55.1713 30.8305 56.1598L30.5176 55.7332C31.8261 54.7589 32.9711 53.8131 33.9525 52.8672Z" fill="#7C00E8"/>
<path d="M31.4921 49.667L32.7295 50.9044C32.6086 51.0253 32.4877 51.1533 32.3598 51.2742L31.4921 50.4066L30.6956 51.2031L31.1436 51.6511L30.7738 52.0209L29.9561 51.2031L31.4921 49.667Z" fill="#7C00E8"/>
<path d="M33.0993 51.2744L34.3225 52.4976C34.2016 52.6185 34.0807 52.7394 33.9527 52.8603L32.7295 51.6442C32.8575 51.5233 32.9784 51.4024 33.0993 51.2744Z" fill="#7C00E8"/>
<path d="M37.2529 53.0947L35.7168 54.6309L34.3301 53.2441C34.4581 53.1232 34.579 53.0023 34.6999 52.8814L35.7168 53.8984L36.5133 53.1018L35.9942 52.5827L36.364 52.2129L37.2529 53.0947Z" fill="#7C00E8"/>
<path d="M32.7293 52.3555L31.0723 53.344L31.4208 53.6924L31.5701 53.6L31.8119 53.8418L31.7194 53.9911L32.0679 54.3396L33.0564 52.6826L32.7293 52.3555ZM32.0963 53.4507L32.0608 53.4151L31.9897 53.344L31.9541 53.3084L32.2813 53.1236L32.0963 53.4507Z" fill="#7C00E8"/>
<path d="M16.1591 52.8672C17.1406 53.8131 18.2855 54.7589 19.594 55.7332L19.2811 56.1598C17.9512 55.1784 16.7849 54.2113 15.7822 53.2441L16.1591 52.8672Z" fill="#7C00E8"/>
<path d="M10.7266 30.146C10.5133 30.3522 10.2359 30.6509 9.97988 31.0563C9.46784 31.8527 8.89895 33.2253 9.06963 35.2592C9.18339 36.5606 9.31852 37.8123 9.51765 39.0354C10.2928 39.6185 10.7977 40.5431 10.7977 41.5885V41.8516H10.0865C10.6626 44.1629 11.5373 46.4314 12.8956 48.8067C13.5997 50.037 14.5598 51.2602 15.7972 52.4905L15.4202 52.8674C14.1473 51.6016 13.1588 50.3428 12.4334 49.0698C11.1675 46.8581 10.3212 44.7318 9.73099 42.5912C9.51056 43.6295 8.6429 44.4047 7.60463 44.4047C7.19216 44.4047 6.80105 44.2766 6.47389 44.0633C6.45255 44.4829 6.28188 44.874 5.97608 45.1727C5.66317 45.4856 5.24359 45.6563 4.79555 45.6563H4.78844C3.86394 45.6492 3.11723 44.8953 3.12434 43.9708L3.13145 43.2455C2.78298 43.1885 2.46296 43.025 2.21406 42.769C1.90115 42.449 1.73047 42.0294 1.73047 41.5814C1.73047 41.1333 1.90826 40.7137 2.22828 40.4008C2.31362 40.3155 2.40607 40.2444 2.50563 40.1804C2.04338 39.8817 1.73759 39.3555 1.7447 38.7652C1.75181 37.8478 2.49852 37.1011 3.41591 37.1011H5.20802V37.6344H3.42302C2.7901 37.6344 2.27095 38.1394 2.27095 38.7723C2.27095 39.3981 2.77587 39.9102 3.39458 39.9244H3.4088V40.4577H3.39458C3.10301 40.4577 2.81143 40.5786 2.59809 40.792C2.37762 41.0053 2.26384 41.2969 2.25673 41.6027C2.25673 41.9085 2.37051 42.1929 2.59097 42.4134C2.80432 42.6339 3.09589 42.7477 3.40169 42.7548H3.66482L3.6577 43.9922C3.6577 44.6251 4.16263 45.1371 4.79555 45.1442H4.80267C5.10847 45.1442 5.39293 45.0234 5.60628 44.81C5.81962 44.5966 5.94052 44.3051 5.94763 43.9993V43.5939C5.62761 43.1885 5.42849 42.6623 5.42849 42.0934V41.8729H4.41864V41.6098C4.41864 39.9386 5.70584 38.5661 7.34148 38.431V38.9643C6.08986 39.0923 5.08713 40.0879 4.96623 41.3467H7.34148V41.88H5.96185V42.1005C5.96185 42.6126 6.16098 43.0819 6.481 43.4019C6.77259 43.7077 7.1708 43.8926 7.61173 43.8926C8.52204 43.8926 9.2616 43.089 9.2616 42.1005V41.88H7.88197V41.3324H10.2572C10.2075 40.7991 9.99413 40.3084 9.67407 39.9173C9.4963 39.6968 9.27586 39.5048 9.03407 39.3483C8.69272 39.135 8.30154 38.9927 7.88197 38.9501V38.4167C8.25179 38.4452 8.60735 38.5447 8.93451 38.694C8.77093 37.5989 8.65 36.4753 8.55049 35.3161C8.19488 31.0918 10.7622 29.4277 10.8688 29.3637L11.2813 29.1006L11.2742 29.5913C11.2386 31.49 11.3169 33.4031 11.5231 35.2876C11.9427 39.1492 12.412 43.5299 14.9082 47.7542C15.5767 48.8778 16.4443 49.9374 17.3973 50.9046L17.0203 51.2815C16.0319 50.2859 15.1358 49.1907 14.4459 48.0244C11.8858 43.7006 11.4093 39.2559 10.9826 35.3374C10.7977 33.6235 10.7124 31.8812 10.7266 30.146Z" fill="#7C00E8"/>
<path d="M23.0434 57.0849C22.83 57.412 22.5029 57.6325 22.1188 57.7107C22.0193 57.732 21.9197 57.7391 21.8273 57.7391C21.5428 57.7391 21.2655 57.6538 21.0237 57.4973C20.6966 57.284 20.4761 56.9568 20.3979 56.5728C20.3196 56.1888 20.3979 55.8047 20.6112 55.4776L21.0521 55.7692C20.917 55.9754 20.8672 56.2244 20.917 56.4662C20.9667 56.7079 21.109 56.9213 21.3153 57.0564C21.5215 57.1915 21.7704 57.2413 22.0122 57.1915C22.254 57.1417 22.4673 56.9995 22.6024 56.7933C22.7375 56.587 22.7874 56.3381 22.7375 56.0963C22.6878 55.8546 22.5456 55.6412 22.3393 55.5061L22.3251 55.499C20.8174 54.5247 19.0111 53.2162 17.3896 51.6445L17.7666 51.2676C19.3524 52.8037 21.1303 54.0909 22.6095 55.051L22.6309 55.0652C22.9651 55.2856 23.1856 55.6128 23.2638 55.9968C23.335 56.3737 23.2567 56.7648 23.0434 57.0849Z" fill="#7C00E8"/>
<path d="M18.2079 54.1336C17.9661 54.1336 17.6887 54.0127 17.4612 53.778C17.2976 53.6145 17.1767 53.4153 17.1269 53.2234C17.07 52.9958 17.1127 52.7824 17.255 52.6473C17.3901 52.5122 17.6034 52.4624 17.8309 52.5193C18.023 52.569 18.2221 52.6829 18.3857 52.8535C18.7626 53.2305 18.8479 53.7282 18.5919 53.9914C18.4995 54.0909 18.3572 54.1336 18.2079 54.1336ZM17.6461 52.9388C17.6105 52.9388 17.5821 52.9459 17.575 52.9602C17.5536 52.9816 17.5465 53.0455 17.5679 53.1166C17.5963 53.2305 17.6745 53.3584 17.7812 53.4651C18.0016 53.6856 18.2363 53.7211 18.2861 53.6714C18.343 53.6145 18.3003 53.3869 18.0799 53.1664C17.9732 53.0598 17.8452 52.9816 17.7314 52.9531C17.6959 52.946 17.6674 52.9388 17.6461 52.9388Z" fill="#7C00E8"/>
<path d="M15.4125 52.8814C15.5333 53.0023 15.6614 53.1232 15.7823 53.2441L14.3955 54.6309L12.8594 53.0947L13.7412 52.2129L14.111 52.5827L13.5919 53.1018L14.3884 53.8984L15.4125 52.8814Z" fill="#7C00E8"/>
<path d="M17.0132 51.2744C17.1341 51.3953 17.255 51.5233 17.3831 51.6442L16.1599 52.8674C16.0318 52.7465 15.911 52.6256 15.79 52.5047L17.0132 51.2744Z" fill="#7C00E8"/>
<path d="M20.1632 51.1962L19.3453 52.014L18.9755 51.6442L19.4235 51.1962L18.6271 50.3997L17.7595 51.2673C17.6314 51.1465 17.5106 51.0255 17.3896 50.8976L18.6271 49.6602L20.1632 51.1962Z" fill="#7C00E8"/>
<path d="M7.86803 37.8623V38.417C7.78272 38.4099 7.69025 38.4027 7.60495 38.4027C7.51957 38.4027 7.42717 38.4099 7.3418 38.417V37.8623H7.86803Z" fill="#7C00E8"/>
<path d="M41.9248 42.4492C41.9106 42.4562 41.8964 42.4633 41.875 42.4773C41.875 42.4633 41.875 42.4562 41.8821 42.4492H41.9248Z" fill="#7C00E8"/>
<path d="M47.9339 39.6611C47.3508 38.1179 46.1134 37.3783 45.6013 37.1365L45.5444 37.1081H44.3781V37.6414H45.4235C45.9 37.8832 46.9383 38.5375 47.4361 39.8532C47.7988 40.8061 47.7063 41.6808 47.5926 42.2142L46.3053 42.2355L46.3552 42.5413C46.4191 42.9111 46.412 43.2809 46.3552 43.6436C46.3267 43.8285 46.2769 44.0134 46.2129 44.1841H44.9684L44.9257 44.3974C44.8902 44.5752 44.8261 44.7388 44.7408 44.8953C44.6484 45.0588 44.5274 45.2082 44.3852 45.3361C44.243 45.2082 44.1221 45.0588 44.0297 44.8953C43.9443 44.7388 43.8803 44.5752 43.8447 44.3974L43.8021 44.1841H42.8847C43.2474 43.9636 43.4963 43.5654 43.4963 43.1102V42.7191C44.0581 42.5982 44.4848 42.0933 44.4848 41.4959C44.4848 41.2897 44.435 41.0977 44.3426 40.9199H43.8163V40.3865C43.7239 40.3368 43.6172 40.294 43.5105 40.2727C43.4181 40.2514 43.3256 40.2443 43.2332 40.2443C42.5433 40.2443 41.9815 40.8061 41.9815 41.4959H42.5149C42.5149 41.0977 42.842 40.7705 43.2403 40.7705C43.6385 40.7705 43.9656 41.0977 43.9656 41.4959C43.9656 41.8372 43.7239 42.1289 43.3967 42.2H42.9771V43.1102C42.9771 43.4374 42.7567 43.7147 42.458 43.8072C42.394 43.8285 42.3229 43.8356 42.2589 43.8356C42.1308 43.8356 42.01 43.8001 41.9033 43.7432C41.6828 43.6223 41.5335 43.3805 41.5335 43.1102C41.5335 42.84 41.6828 42.6124 41.8962 42.4844C41.9104 42.4773 41.9246 42.4631 41.946 42.456C42.0384 42.4062 42.1451 42.3848 42.2589 42.3848V41.8515C41.9957 41.8515 41.7539 41.9297 41.5549 42.0648C41.4908 42.1075 41.4339 42.1573 41.377 42.2071H41.2703C40.9788 42.2071 40.7299 42.0364 40.6161 41.7875C40.5734 41.695 40.545 41.5884 40.545 41.4817C40.545 41.2541 40.6516 41.055 40.8152 40.9199L40.8223 40.9127C40.9432 40.8132 41.0997 40.7563 41.2703 40.7563V40.2229C41.1779 40.2229 41.0855 40.2301 41.0001 40.2514C40.9788 40.2585 40.9645 40.2585 40.9432 40.2656C40.8437 40.294 40.7441 40.3296 40.6587 40.3794H40.3814H40.2819C39.8836 40.3794 39.5565 40.0522 39.5565 39.654C39.5565 39.2558 39.8836 38.9287 40.2819 38.9287C40.4028 38.9287 40.5237 38.9571 40.6232 39.014C40.8508 39.1349 41.0073 39.3695 41.0073 39.6469H41.057H41.5335C41.5335 39.2487 41.8607 38.9215 42.2589 38.9215C42.6571 38.9215 42.9771 39.2416 42.9842 39.6398H43.5176C43.5176 39.2416 43.8447 38.9215 44.243 38.9215C44.6413 38.9215 44.9684 39.2487 44.9684 39.6469C44.9684 40.0025 44.7124 40.3012 44.371 40.3581V40.8914C45.0039 40.8274 45.4946 40.294 45.4946 39.6469C45.4946 38.9571 44.9328 38.3953 44.243 38.3953C43.8447 38.3953 43.4821 38.5873 43.2545 38.8789C43.0269 38.5873 42.6713 38.3953 42.266 38.3953C41.8678 38.3953 41.505 38.5873 41.2775 38.8789C41.2561 38.8504 41.2277 38.8219 41.2063 38.7935C41.377 37.6556 41.505 36.4965 41.6046 35.2947C41.9602 31.0703 39.3929 29.4134 39.2862 29.3422L38.8737 29.0791L38.8809 29.5698C38.9165 31.4686 38.8382 33.3816 38.6319 35.2662C38.2124 39.1277 37.743 43.5085 35.2469 47.7327C34.5784 48.8564 33.7108 49.916 32.7578 50.8832L33.1347 51.2601C34.1232 50.2645 35.0193 49.1693 35.7091 48.003C38.2622 43.6792 38.7458 39.2416 39.1653 35.3231C39.3502 33.6092 39.4356 31.8597 39.4213 30.1316C39.6347 30.3379 39.9121 30.6366 40.1681 31.0419C40.6801 31.8384 41.249 33.211 41.0784 35.2448C40.9859 36.3471 40.8721 37.4139 40.7157 38.4593C40.5805 38.4095 40.4383 38.3882 40.289 38.3882C39.5992 38.3882 39.0373 38.95 39.0373 39.6398C39.0373 40.2869 39.5352 40.8274 40.161 40.8843C40.0685 41.055 40.0187 41.247 40.0187 41.4603C40.0187 41.5742 40.0329 41.6879 40.0614 41.7946C39.4853 44.1201 38.6107 46.4029 37.2452 48.7924C36.5411 50.0227 35.5811 51.2459 34.3437 52.4762L34.7206 52.8531C35.9936 51.5872 36.9821 50.3285 37.7074 49.0555C39.0089 46.7798 39.8694 44.6108 40.4526 42.4062C40.6232 42.5555 40.8366 42.6551 41.0641 42.6906C41.0286 42.8116 41.0073 42.9396 41.0073 43.0676C41.0073 43.6934 41.4624 44.2126 42.0669 44.305C42.0953 44.3761 42.1166 44.4401 42.1451 44.5112L42.2162 44.6748H43.4039C43.4536 44.8241 43.5105 44.9735 43.5887 45.1157C43.7523 45.4072 43.9727 45.6562 44.2501 45.8553L44.4066 45.9691L44.563 45.8553C44.8332 45.6562 45.0608 45.4002 45.2244 45.1157C45.3026 44.9735 45.3666 44.8313 45.4093 44.6748H46.5969L46.6681 44.5112C46.7747 44.2481 46.8529 43.9708 46.9028 43.6934C46.9596 43.3734 46.9739 43.0463 46.9454 42.7191L48.0263 42.7049L48.0832 42.5129C48.2113 41.9866 48.3961 40.8843 47.9339 39.6611Z" fill="#7C00E8"/>
<path d="M56.3254 29.3281H55.792V54.6311H56.3254V29.3281Z" fill="#7C00E8"/>
<path d="M67.808 28.0546H67.5043V27.3457H66.0525V28.0546H65.7321C63.926 28.0546 62.8457 29.0505 62.8457 30.5696C62.8457 32.1224 63.9093 33.0845 65.7321 33.0845H66.0525V33.9622H67.5043V33.0845H67.808C69.6309 33.0845 70.7111 32.0887 70.7111 30.5696C70.7111 29.0167 69.6309 28.0546 67.808 28.0546ZM65.7827 31.903C64.7871 31.903 64.2976 31.4642 64.2976 30.5696C64.2976 29.7087 64.8204 29.2361 65.7827 29.2361H66.0525V31.903H65.7827ZM67.7741 31.903H67.5043V29.2361H67.7741C68.7531 29.2361 69.2599 29.675 69.2599 30.5696C69.2599 31.4304 68.7364 31.903 67.7741 31.903ZM74.0704 33.9453C75.6568 33.9453 76.7204 32.8989 76.7204 31.3291C76.7204 29.7425 75.6735 28.7129 74.0704 28.7129C72.4834 28.7129 71.4204 29.7594 71.4204 31.3291C71.4204 32.9157 72.4667 33.9453 74.0704 33.9453ZM74.0704 32.8313C73.2938 32.8313 72.8043 32.2743 72.8043 31.3291C72.8043 30.3839 73.2938 29.8269 74.0704 29.8269C74.8463 29.8269 75.3358 30.3839 75.3358 31.3291C75.3358 32.2743 74.8463 32.8313 74.0704 32.8313ZM81.092 28.7973V30.6708H79.1V28.7973H77.75V33.8609H79.1V31.8861H81.092V33.8609H82.442V28.7973H81.092ZM88.5352 32.6456V28.7973H84.113V30.9071C84.113 31.7005 84.079 32.2574 84.0118 32.6456H83.3871V35.0425H84.6871V33.8609H87.9105V35.0425H89.2105V32.6456H88.5352ZM85.3284 32.6794C85.3957 32.2068 85.4297 31.6161 85.4297 30.9578V29.9788H87.2019V32.6794H85.3284ZM67.808 38.5485H67.5043V37.8395H66.0525V38.5485H65.7321C63.926 38.5485 62.8457 39.5443 62.8457 41.0634C62.8457 42.6163 63.9093 43.5784 65.7321 43.5784H66.0525V44.4561H67.5043V43.5784H67.808C69.6309 43.5784 70.7111 42.5825 70.7111 41.0634C70.7111 39.5105 69.6309 38.5485 67.808 38.5485ZM65.7827 42.3968C64.7871 42.3968 64.2976 41.958 64.2976 41.0634C64.2976 40.2026 64.8204 39.73 65.7827 39.73H66.0525V42.3968H65.7827ZM67.7741 42.3968H67.5043V39.73H67.7741C68.7531 39.73 69.2599 40.1688 69.2599 41.0634C69.2599 41.9242 68.7364 42.3968 67.7741 42.3968ZM72.7537 42.2618H76.45C76.5006 42.0255 76.5006 41.9242 76.5006 41.8229C76.5006 40.2363 75.5216 39.2068 73.9858 39.2068C72.4327 39.2068 71.4204 40.2701 71.4204 41.8229C71.4204 43.3251 72.3148 44.4392 74.0704 44.4392C75.0494 44.4392 75.792 44.1016 76.2982 43.5614L75.471 42.7513C75.1506 43.1058 74.6945 43.3251 74.0871 43.3251C73.3611 43.3251 72.8889 42.9369 72.7537 42.2618ZM73.9858 40.287C74.6105 40.287 75.0155 40.6414 75.1506 41.2828H72.7704C72.9222 40.6583 73.3611 40.287 73.9858 40.287ZM82.0877 43.1395V39.2911H77.6655V41.4009C77.6655 42.1943 77.6315 42.7513 77.5642 43.1395H76.9395V45.5363H78.2395V44.3548H81.463V45.5363H82.763V43.1395H82.0877ZM78.8809 43.1732C78.9482 42.7006 78.9821 42.1099 78.9821 41.4516V40.4726H80.7543V43.1732H78.8809ZM85.9025 44.4392C87.4889 44.4392 88.5525 43.3927 88.5525 41.8229C88.5525 40.2363 87.5056 39.2068 85.9025 39.2068C84.3155 39.2068 83.2525 40.2532 83.2525 41.8229C83.2525 43.4096 84.2988 44.4392 85.9025 44.4392ZM85.9025 43.3251C85.126 43.3251 84.6364 42.7682 84.6364 41.8229C84.6364 40.8777 85.126 40.3207 85.9025 40.3207C86.6784 40.3207 87.1679 40.8777 87.1679 41.8229C87.1679 42.7682 86.6784 43.3251 85.9025 43.3251ZM92.5019 39.2068C91.8099 39.2068 91.2531 39.4937 90.8648 40L90.7969 39.2911H89.5821V46.0427H90.9321V43.764C91.3204 44.186 91.8439 44.4392 92.5019 44.4392C93.7846 44.4392 94.6624 43.3927 94.6624 41.8229C94.6624 40.2363 93.8185 39.2068 92.5019 39.2068ZM92.0796 43.3251C91.3204 43.3251 90.8815 42.7513 90.8815 41.8229C90.8815 40.8946 91.3204 40.3207 92.0796 40.3207C92.8395 40.3207 93.2951 40.8946 93.2951 41.8229C93.2951 42.7513 92.8395 43.3251 92.0796 43.3251ZM99.9963 43.1901C99.8105 43.1901 99.7093 43.0888 99.7093 42.9032V40.9115C99.7093 39.8481 98.9327 39.2068 97.6161 39.2068C96.705 39.2068 95.9451 39.4937 95.3377 40.0676L96.1476 40.8946C96.5358 40.5064 97.0087 40.3039 97.5315 40.3039C98.1056 40.3039 98.4432 40.5233 98.4432 40.844C98.4432 41.1478 97.9877 41.2322 97.4136 41.2997C96.4685 41.4179 95.2364 41.6542 95.2364 42.9707C95.2364 43.8484 95.8945 44.4392 96.8901 44.4392C97.6327 44.4392 98.2914 44.1353 98.6457 43.629C98.7469 44.1522 99.0846 44.3885 99.7093 44.3885C99.9624 44.3885 100.098 44.3716 100.199 44.3548V43.1901H99.9963ZM97.1945 43.3758C96.7722 43.3758 96.5358 43.1732 96.5358 42.8357C96.5358 42.3462 97.0253 42.2618 97.5488 42.1774C97.9198 42.1099 98.2068 42.0592 98.4093 41.9411V42.38C98.4093 42.9369 97.8692 43.3758 97.1945 43.3758ZM70.3568 48.4347V53.5321H68.2976V48.4347H66.8457V53.5321H64.7871V48.4347H63.3352V54.8486H71.8087V48.4347H70.3568ZM78.0537 49.785H73.3611V54.8486H74.7118V51.0002H76.7031V54.8486H78.0537V49.785ZM82.8303 49.785L80.7543 52.9076V49.785H79.4377V54.8486H80.771L82.8469 51.726V54.8486H84.1636V49.785H82.8303ZM89.3963 49.785H85.5476V54.8486H86.8982V51.034H89.3963V49.785ZM94.6457 53.684C94.4599 53.684 94.3587 53.5827 94.3587 53.397V51.4053C94.3587 50.3419 93.5821 49.7006 92.2655 49.7006C91.3543 49.7006 90.5945 49.9875 89.9871 50.5614L90.7969 51.3884C91.1852 51.0002 91.658 50.7977 92.1809 50.7977C92.755 50.7977 93.0926 51.0171 93.0926 51.3378C93.0926 51.6416 92.6371 51.726 92.063 51.7935C91.1179 51.9117 89.8858 52.148 89.8858 53.4645C89.8858 54.3422 90.5438 54.933 91.5395 54.933C92.2827 54.933 92.9408 54.6292 93.2951 54.1228C93.3963 54.6461 93.734 54.8824 94.3587 54.8824C94.6117 54.8824 94.7469 54.8655 94.8482 54.8486V53.684H94.6457ZM91.8439 53.8696C91.4216 53.8696 91.1852 53.6671 91.1852 53.3295C91.1852 52.84 91.6747 52.7556 92.1982 52.6713C92.5692 52.6037 92.8562 52.553 93.0587 52.4349V52.8738C93.0587 53.4308 92.5185 53.8696 91.8439 53.8696Z" fill="#7C00E8"/>
</g>
<defs>
<clipPath id="clip0_445_8237">
<rect width="100" height="36.4198" fill="white" transform="translate(0.5 21.79)"/>
</clipPath>
</defs>
</svg>
