<svg width="227" height="64" viewBox="0 0 227 64" fill="none" xmlns="http://www.w3.org/2000/svg">
<g clip-path="url(#clip0_2001_252)">
<path d="M5.22169 52.3649V54.1272H0V52.3649H5.22169ZM1.19528 60.8258V51.7546C1.19528 51.1408 1.31445 50.6316 1.5564 50.2271C1.79834 49.8227 2.12695 49.5194 2.54584 49.3171C2.96474 49.1149 3.4414 49.0138 3.97224 49.0138C4.33335 49.0138 4.66196 49.0427 4.96169 49.0969C5.26141 49.151 5.4853 49.2016 5.62975 49.2449L5.21086 51.0071C5.12058 50.9782 5.00502 50.9494 4.87141 50.9241C4.7378 50.8988 4.60058 50.8844 4.45974 50.8844C4.11307 50.8844 3.87474 50.9638 3.73752 51.1227C3.60029 51.2816 3.53529 51.5055 3.53529 51.7908V60.8186H1.19528V60.8258Z" fill="#1C2805"/>
<path d="M7.83196 51.2744C7.48168 51.2744 7.18557 51.1588 6.9364 50.9241C6.68723 50.6894 6.56445 50.4113 6.56445 50.0827C6.56445 49.7613 6.68723 49.4796 6.9364 49.2485C7.18557 49.0138 7.48168 48.8983 7.83196 48.8983C8.18224 48.8983 8.47835 49.0138 8.72752 49.2485C8.97669 49.4833 9.09946 49.7613 9.09946 50.0827C9.09946 50.4113 8.97669 50.6894 8.72752 50.9241C8.47835 51.1588 8.18224 51.2744 7.83196 51.2744ZM6.65473 60.8258V52.3649H9.00196V60.8258H6.65473Z" fill="#1C2805"/>
<path d="M13.2203 55.9363V60.8258H10.873V52.3649H13.1083V53.8563H13.2058C13.3936 53.3652 13.7078 52.9752 14.1483 52.6863C14.5889 52.3974 15.1233 52.253 15.7517 52.253C16.3403 52.253 16.8531 52.383 17.29 52.6394C17.727 52.8958 18.0664 53.2641 18.3084 53.7372C18.5503 54.2138 18.6731 54.7772 18.6731 55.438V60.8258H16.3258V55.8569C16.3295 55.3405 16.1958 54.9361 15.9286 54.6436C15.6614 54.3511 15.2931 54.2066 14.82 54.2066C14.5058 54.2066 14.2242 54.2752 13.9858 54.4088C13.7439 54.5461 13.5597 54.7411 13.4225 55.0011C13.2925 55.2611 13.2239 55.5716 13.2203 55.9363Z" fill="#1C2805"/>
<path d="M22.9306 60.9883C22.3925 60.9883 21.9086 60.8944 21.4861 60.703C21.0636 60.5152 20.7314 60.2336 20.4858 59.8616C20.2403 59.4897 20.1211 59.0238 20.1211 58.4641C20.1211 57.9947 20.2078 57.6011 20.3811 57.2797C20.5544 56.9619 20.7892 56.7019 21.0853 56.5069C21.3814 56.3119 21.7208 56.1638 22.1 56.0663C22.4792 55.9688 22.88 55.8966 23.2989 55.8569C23.79 55.8063 24.1872 55.7558 24.4869 55.7124C24.7867 55.6655 25.0069 55.5969 25.1406 55.5066C25.2778 55.4163 25.3428 55.2791 25.3428 55.0985V55.066C25.3428 54.7158 25.2344 54.4485 25.0142 54.2572C24.7939 54.0658 24.4869 53.9719 24.0861 53.9719C23.6636 53.9719 23.3278 54.0658 23.0786 54.2499C22.8294 54.4341 22.6633 54.6688 22.5839 54.9469L20.4136 54.7699C20.5255 54.2572 20.7422 53.8094 21.0636 53.4338C21.385 53.0583 21.8039 52.7658 22.3167 52.5635C22.8294 52.3613 23.4217 52.2566 24.0969 52.2566C24.5664 52.2566 25.0178 52.3108 25.4475 52.4227C25.8772 52.531 26.2636 52.7044 26.5995 52.9355C26.9353 53.1666 27.2025 53.4627 27.3939 53.8238C27.5853 54.1849 27.6864 54.6183 27.6864 55.1202V60.8258H25.462V59.6522H25.397C25.2597 59.9158 25.0792 60.1505 24.8517 60.3491C24.6242 60.5477 24.3497 60.7066 24.0319 60.8186C23.7178 60.9305 23.3494 60.9883 22.9306 60.9883ZM23.6022 59.3669C23.9489 59.3669 24.2522 59.2983 24.5158 59.1611C24.7794 59.0238 24.9889 58.8361 25.1369 58.6013C25.2886 58.3666 25.3644 58.0994 25.3644 57.8033V56.9041C25.2922 56.9511 25.1911 56.9944 25.0647 57.0341C24.9383 57.0738 24.7975 57.1063 24.6386 57.1388C24.4797 57.1713 24.3244 57.1966 24.1656 57.2219C24.0067 57.2472 23.8658 57.2652 23.7358 57.2869C23.4614 57.3266 23.2194 57.3916 23.0136 57.4783C22.8078 57.5649 22.6489 57.6841 22.5333 57.8322C22.4178 57.9802 22.3636 58.1644 22.3636 58.3847C22.3636 58.7025 22.4792 58.948 22.7139 59.1141C22.945 59.2838 23.2411 59.3669 23.6022 59.3669Z" fill="#1C2805"/>
<path d="M31.8648 55.9363V60.8258H29.5176V52.3649H31.7529V53.8563H31.8504C32.0381 53.3652 32.3523 52.9752 32.7929 52.6863C33.2334 52.3974 33.7679 52.253 34.3962 52.253C34.9848 52.253 35.4976 52.383 35.9346 52.6394C36.3715 52.8958 36.7109 53.2641 36.9529 53.7372C37.1948 54.2138 37.3176 54.7772 37.3176 55.438V60.8258H34.9704V55.8569C34.974 55.3405 34.8404 54.9361 34.5732 54.6436C34.3059 54.3511 33.9376 54.2066 33.4645 54.2066C33.1504 54.2066 32.8687 54.2752 32.6304 54.4088C32.3884 54.5461 32.2043 54.7411 32.067 55.0011C31.937 55.2611 31.8684 55.5716 31.8648 55.9363Z" fill="#1C2805"/>
<path d="M42.9876 60.9919C42.1209 60.9919 41.377 60.8078 40.7523 60.4394C40.1312 60.0711 39.6509 59.5583 39.3186 58.9011C38.9864 58.2439 38.8203 57.4855 38.8203 56.6333C38.8203 55.7666 38.99 55.0047 39.3259 54.3511C39.6617 53.6938 40.1384 53.1847 40.7595 52.8127C41.3806 52.4444 42.1173 52.2602 42.9731 52.2602C43.7098 52.2602 44.3562 52.3938 44.9123 52.6611C45.4684 52.9283 45.9053 53.3075 46.2303 53.7913C46.5553 54.2752 46.7323 54.8458 46.7648 55.4994H44.5512C44.4898 55.0769 44.3237 54.7375 44.0564 54.4775C43.7892 54.2175 43.4426 54.0875 43.0128 54.0875C42.6481 54.0875 42.3339 54.185 42.0631 54.3836C41.7923 54.5786 41.5828 54.8638 41.4312 55.2394C41.2795 55.615 41.2037 56.0664 41.2037 56.6008C41.2037 57.1425 41.2795 57.6011 41.4275 57.9766C41.5756 58.3558 41.785 58.6447 42.0595 58.8397C42.3303 59.0383 42.6481 59.1358 43.0128 59.1358C43.2801 59.1358 43.522 59.0816 43.7387 58.9697C43.9517 58.8614 44.1323 58.6989 44.2731 58.4894C44.4139 58.28 44.5078 58.0236 44.5512 57.7275H46.7648C46.7287 58.3739 46.5517 58.9408 46.2376 59.4319C45.9234 59.923 45.4901 60.3058 44.9412 60.5803C44.3923 60.8547 43.7387 60.9919 42.9876 60.9919Z" fill="#1C2805"/>
<path d="M52.1297 60.9919C51.2594 60.9919 50.5119 60.815 49.8836 60.4611C49.2589 60.1072 48.775 59.6052 48.4391 58.9516C48.0997 58.298 47.9336 57.5288 47.9336 56.6369C47.9336 55.7666 48.1033 55.0011 48.4391 54.3438C48.7786 53.6866 49.2517 53.1738 49.8692 52.8055C50.4867 52.4372 51.2053 52.253 52.0358 52.253C52.5956 52.253 53.1156 52.3433 53.5958 52.5202C54.0797 52.6972 54.5022 52.9644 54.8633 53.3219C55.2245 53.6794 55.5061 54.1236 55.7084 54.6616C55.9106 55.1997 56.0117 55.828 56.0117 56.5466V57.193H48.8689V55.7377H53.8053C53.8053 55.3983 53.7331 55.1022 53.585 54.8386C53.437 54.5786 53.2347 54.3727 52.9747 54.2247C52.7147 54.0766 52.415 54.0008 52.0756 54.0008C51.7181 54.0008 51.4039 54.0838 51.1294 54.2463C50.855 54.4088 50.6419 54.6291 50.4867 54.9036C50.3314 55.178 50.2519 55.4813 50.2483 55.8136V57.1966C50.2483 57.6155 50.3278 57.9766 50.483 58.28C50.6383 58.5833 50.8586 58.8216 51.1475 58.9841C51.4328 59.1502 51.7722 59.2333 52.1658 59.2333C52.4258 59.2333 52.6642 59.1972 52.8808 59.1214C53.0975 59.0491 53.2817 58.9372 53.4369 58.7891C53.5922 58.6411 53.7078 58.4605 53.7908 58.2475L55.9611 58.3919C55.8492 58.9119 55.6253 59.3669 55.2859 59.7569C54.9464 60.1433 54.5095 60.4466 53.975 60.6597C53.4406 60.8836 52.8267 60.9919 52.1297 60.9919Z" fill="#1C2805"/>
<path d="M64.9641 60.9919C64.0974 60.9919 63.3536 60.8078 62.7288 60.4394C62.1077 60.0711 61.6274 59.5583 61.2952 58.9011C60.963 58.2439 60.7969 57.4855 60.7969 56.6333C60.7969 55.7666 60.9666 55.0047 61.3024 54.3511C61.6383 53.6938 62.1149 53.1847 62.736 52.8127C63.3572 52.4444 64.0938 52.2602 64.9497 52.2602C65.6863 52.2602 66.3327 52.3938 66.8888 52.6611C67.445 52.9283 67.8819 53.3075 68.2069 53.7913C68.5319 54.2752 68.7089 54.8458 68.7414 55.4994H66.5277C66.4663 55.0769 66.3002 54.7375 66.033 54.4775C65.7658 54.2175 65.4191 54.0875 64.9894 54.0875C64.6247 54.0875 64.3105 54.185 64.0397 54.3836C63.7688 54.5786 63.5594 54.8638 63.4077 55.2394C63.2561 55.615 63.1802 56.0664 63.1802 56.6008C63.1802 57.1425 63.2561 57.6011 63.4041 57.9766C63.5522 58.3558 63.7616 58.6447 64.0361 58.8397C64.3069 59.0383 64.6247 59.1358 64.9894 59.1358C65.2566 59.1358 65.4986 59.0816 65.7152 58.9697C65.9283 58.8614 66.1088 58.6989 66.2497 58.4894C66.3905 58.28 66.4844 58.0236 66.5277 57.7275H68.7414C68.7052 58.3739 68.5283 58.9408 68.2141 59.4319C67.9 59.923 67.4666 60.3058 66.9177 60.5803C66.3688 60.8547 65.7152 60.9919 64.9641 60.9919Z" fill="#1C2805"/>
<path d="M74.0757 60.9919C73.2199 60.9919 72.4796 60.8077 71.8585 60.443C71.2374 60.0783 70.7571 59.5691 70.4177 58.9119C70.0782 58.2583 69.9121 57.4963 69.9121 56.6297C69.9121 55.7558 70.0818 54.9902 70.4177 54.3366C70.7571 53.683 71.2374 53.1702 71.8585 52.8055C72.4796 52.4408 73.2199 52.2566 74.0757 52.2566C74.9316 52.2566 75.6719 52.4408 76.293 52.8055C76.9141 53.1702 77.3944 53.683 77.7338 54.3366C78.0732 54.9938 78.2394 55.7558 78.2394 56.6297C78.2394 57.4963 78.0696 58.2583 77.7338 58.9119C77.3944 59.5691 76.9141 60.0783 76.293 60.443C75.6682 60.8077 74.9316 60.9919 74.0757 60.9919ZM74.0866 59.1755C74.4766 59.1755 74.8016 59.0636 75.0616 58.8433C75.3216 58.623 75.5202 58.3161 75.6538 57.9333C75.7874 57.5469 75.856 57.1099 75.856 56.6152C75.856 56.1241 75.7874 55.6836 75.6538 55.2972C75.5202 54.9108 75.3216 54.6074 75.0616 54.3835C74.8016 54.1597 74.4766 54.0477 74.0866 54.0477C73.693 54.0477 73.3643 54.1597 73.0971 54.3835C72.8299 54.6074 72.6313 54.9108 72.4977 55.2972C72.3641 55.6836 72.2954 56.1205 72.2954 56.6152C72.2954 57.1063 72.3641 57.5469 72.4977 57.9333C72.6313 58.3197 72.8299 58.623 73.0971 58.8433C73.3643 59.0636 73.693 59.1755 74.0866 59.1755Z" fill="#1C2805"/>
<path d="M79.7695 60.8258V52.3649H82.0048V53.8563H82.1023C82.2793 53.3616 82.5718 52.968 82.9834 52.6827C83.3951 52.3974 83.8862 52.253 84.4604 52.253C85.0418 52.253 85.5329 52.3974 85.941 52.6863C86.349 52.9752 86.6198 53.3652 86.7571 53.8563H86.8437C87.0171 53.3724 87.3276 52.9824 87.7826 52.6899C88.2376 52.3974 88.7721 52.253 89.3932 52.253C90.184 52.253 90.8232 52.5022 91.3179 53.0041C91.8126 53.5061 92.0582 54.2138 92.0582 55.1347V60.8258H89.7182V55.5969C89.7182 55.1275 89.5918 54.7736 89.3426 54.5388C89.0935 54.3041 88.7793 54.1849 88.4074 54.1849C87.9812 54.1849 87.649 54.3186 87.4107 54.5894C87.1723 54.8602 87.0532 55.2141 87.0532 55.6547V60.8222H84.7782V55.5463C84.7782 55.1311 84.659 54.8024 84.4243 54.5533C84.1859 54.3077 83.8754 54.1849 83.489 54.1849C83.229 54.1849 82.9943 54.2499 82.7884 54.3799C82.5826 54.5099 82.4165 54.6905 82.2937 54.9252C82.1709 55.16 82.1132 55.4308 82.1132 55.7449V60.8222H79.7695V60.8258Z" fill="#1C2805"/>
<path d="M93.9141 64V52.3649H96.2288V53.7877H96.3335C96.4346 53.5602 96.5863 53.3291 96.7813 53.0908C96.9763 52.8524 97.2363 52.6538 97.5541 52.4949C97.8719 52.336 98.2691 52.2566 98.7421 52.2566C99.3596 52.2566 99.9266 52.4191 100.45 52.7369C100.974 53.0546 101.389 53.5422 101.7 54.1849C102.01 54.8277 102.169 55.6366 102.169 56.6044C102.169 57.5469 102.017 58.345 101.714 58.9913C101.411 59.6377 100.999 60.1288 100.479 60.4611C99.9591 60.7933 99.3777 60.9594 98.7349 60.9594C98.2799 60.9594 97.8935 60.8836 97.5757 60.7355C97.258 60.5838 96.998 60.3961 96.7957 60.165C96.5935 59.9375 96.4382 59.7027 96.3335 59.468H96.2613V63.9964H93.9141V64ZM96.2107 56.5972C96.2107 57.0991 96.2794 57.5397 96.4202 57.9152C96.561 58.2908 96.7632 58.5797 97.0269 58.7891C97.2905 58.995 97.6118 59.0997 97.991 59.0997C98.3738 59.0997 98.6952 58.995 98.9624 58.7819C99.226 58.5725 99.4282 58.2763 99.5655 57.9008C99.7027 57.5252 99.7713 57.0919 99.7713 56.5972C99.7713 56.1097 99.7027 55.6799 99.5691 55.308C99.4319 54.936 99.2333 54.6472 98.9696 54.4377C98.706 54.2283 98.381 54.1235 97.9946 54.1235C97.6119 54.1235 97.2905 54.2247 97.0269 54.4269C96.7632 54.6291 96.5646 54.9144 96.4238 55.2863C96.2793 55.6583 96.2107 56.0952 96.2107 56.5972Z" fill="#1C2805"/>
<path d="M106.138 60.9883C105.6 60.9883 105.116 60.8944 104.693 60.703C104.271 60.5152 103.938 60.2336 103.693 59.8616C103.447 59.4897 103.328 59.0238 103.328 58.4641C103.328 57.9947 103.415 57.6011 103.588 57.2797C103.761 56.9619 103.996 56.7019 104.292 56.5069C104.588 56.3119 104.928 56.1638 105.307 56.0663C105.686 55.9688 106.087 55.8966 106.506 55.8569C106.997 55.8063 107.394 55.7558 107.694 55.7124C107.994 55.6655 108.214 55.5969 108.348 55.5066C108.485 55.4163 108.55 55.2791 108.55 55.0985V55.066C108.55 54.7158 108.441 54.4485 108.221 54.2572C108.001 54.0658 107.694 53.9719 107.293 53.9719C106.871 53.9719 106.535 54.0658 106.286 54.2499C106.036 54.4341 105.87 54.6688 105.791 54.9469L103.621 54.7699C103.733 54.2572 103.949 53.8094 104.271 53.4338C104.592 53.0583 105.011 52.7658 105.524 52.5635C106.036 52.3613 106.629 52.2566 107.304 52.2566C107.773 52.2566 108.225 52.3108 108.655 52.4227C109.084 52.531 109.471 52.7044 109.806 52.9355C110.142 53.1666 110.41 53.4627 110.601 53.8238C110.792 54.1849 110.893 54.6183 110.893 55.1202V60.8258H108.669V59.6522H108.604C108.467 59.9158 108.286 60.1505 108.059 60.3491C107.831 60.5477 107.557 60.7066 107.239 60.8186C106.925 60.9305 106.553 60.9883 106.138 60.9883ZM106.809 59.3669C107.156 59.3669 107.459 59.2983 107.723 59.1611C107.986 59.0238 108.196 58.8361 108.344 58.6013C108.496 58.3666 108.571 58.0994 108.571 57.8033V56.9041C108.499 56.9511 108.398 56.9944 108.272 57.0341C108.145 57.0738 108.005 57.1063 107.846 57.1388C107.687 57.1713 107.531 57.1966 107.373 57.2219C107.214 57.2472 107.073 57.2652 106.943 57.2869C106.668 57.3266 106.426 57.3916 106.221 57.4783C106.015 57.5649 105.856 57.6841 105.74 57.8322C105.625 57.9802 105.571 58.1644 105.571 58.3847C105.571 58.7025 105.686 58.948 105.921 59.1141C106.152 59.2838 106.448 59.3669 106.809 59.3669Z" fill="#1C2805"/>
<path d="M115.072 55.9363V60.8258H112.725V52.3649H114.96V53.8563H115.057C115.245 53.3652 115.559 52.9752 116 52.6863C116.44 52.3974 116.975 52.253 117.603 52.253C118.192 52.253 118.705 52.383 119.142 52.6394C119.579 52.8958 119.918 53.2641 120.16 53.7372C120.402 54.2138 120.525 54.7772 120.525 55.438V60.8258H118.177V55.8569C118.181 55.3405 118.047 54.9361 117.78 54.6436C117.513 54.3511 117.145 54.2066 116.672 54.2066C116.357 54.2066 116.079 54.2752 115.837 54.4088C115.595 54.5461 115.411 54.7411 115.274 55.0011C115.137 55.2611 115.075 55.5716 115.072 55.9363Z" fill="#1C2805"/>
<path d="M123.508 64C123.212 64 122.934 63.9783 122.674 63.9314C122.414 63.8844 122.201 63.8266 122.031 63.758L122.559 62.0066C122.833 62.0897 123.082 62.1366 123.306 62.1439C123.53 62.1511 123.721 62.1005 123.884 61.9886C124.046 61.8766 124.18 61.6925 124.285 61.4253L124.422 61.0677L121.389 52.3649H123.855L125.606 58.5797H125.693L127.463 52.3649H129.947L126.657 61.7394C126.498 62.1944 126.285 62.5916 126.015 62.9311C125.744 63.2705 125.404 63.5341 124.993 63.7183C124.585 63.9061 124.09 64 123.508 64Z" fill="#1C2805"/>
<path d="M2.81612 6.5506C3.90307 4.74142 5.38002 3.3078 7.25058 2.26058C9.11754 1.21335 11.1795 0.686127 13.4292 0.686127H28.3612V8.69561H14.6317C13.5628 8.69561 12.6564 9.07839 11.9162 9.84033C11.1723 10.6023 10.8003 11.5376 10.8003 12.6426V18.4204H26.4184V26.3721H10.7967V40.7299H1.1875V12.527C1.1875 10.3531 1.72917 8.36338 2.81612 6.5506Z" fill="#1C2805"/>
<path d="M33.7344 32.724H40.6569V8.69561H33.7344V0.686127H50.212V32.724H57.1345V40.7335H33.7344V32.724Z" fill="#34E0A1"/>
<path d="M64.1153 7.80726C65.5634 5.30836 67.5748 3.38363 70.1495 2.02945C72.7242 0.678892 75.6709 0 78.9895 0C82.3082 0 85.2548 0.678892 87.8296 2.02945C90.4043 3.38363 92.4157 5.30836 93.8638 7.80726C95.3118 10.3062 96.0377 13.2348 96.0377 16.5895V40.7299H86.5404V16.0767C86.5404 13.7873 85.8543 11.8914 84.4821 10.3856C83.1098 8.87976 81.279 8.12504 78.9895 8.12504C76.7001 8.12504 74.8692 8.87976 73.497 10.3856C72.1248 11.8914 71.4387 13.7909 71.4387 16.0767V40.7335H61.9414V16.5895C61.9414 13.2348 62.6636 10.3062 64.1153 7.80726Z" fill="#34E0A1"/>
<path d="M110.169 39.4732C107.728 38.1768 105.821 36.3279 104.449 33.9229C103.077 31.5215 102.391 28.6976 102.391 25.4548V0.686127H111.83V25.8015C111.83 27.8996 112.44 29.6438 113.661 31.0376C114.882 32.4315 116.503 33.1249 118.525 33.1249C120.547 33.1249 122.165 32.4279 123.389 31.0376C124.61 29.6474 125.22 27.8996 125.22 25.8015V0.686127H134.66V25.8015C134.66 27.8996 135.27 29.6438 136.49 31.0376C137.711 32.4315 139.332 33.1249 141.355 33.1249C143.377 33.1249 144.995 32.4279 146.219 31.0376C147.439 29.6474 148.05 27.8996 148.05 25.8015V0.686127H157.489V25.4585C157.489 28.7012 156.803 31.5215 155.431 33.9265C154.059 36.3279 152.152 38.1805 149.711 39.4769C147.27 40.7732 144.486 41.4232 141.358 41.4232C139.033 41.4232 136.895 41.0116 134.952 40.1919C133.006 39.3721 131.33 38.1805 129.918 36.6168C128.506 38.1443 126.831 39.3252 124.884 40.163C122.938 41.0007 120.822 41.4232 118.536 41.4232C115.394 41.4196 112.606 40.7696 110.169 39.4732Z" fill="#1C2805"/>
<path d="M164.223 32.724H171.145V8.69561H164.223V0.686127H180.7V32.724H187.623V40.7335H164.226V32.724H164.223Z" fill="#34E0A1"/>
<path d="M194.607 7.80726C196.056 5.30836 198.067 3.38363 200.642 2.02945C203.216 0.678892 206.163 0 209.482 0C212.8 0 215.747 0.678892 218.322 2.02945C220.896 3.38363 222.908 5.30836 224.356 7.80726C225.804 10.3062 226.53 13.2348 226.53 16.5895V40.7299H217.033V16.0767C217.033 13.7873 216.346 11.8914 214.974 10.3856C213.602 8.87976 211.771 8.12504 209.482 8.12504C207.192 8.12504 205.361 8.87976 203.989 10.3856C202.617 11.8914 201.931 13.7909 201.931 16.0767V40.7335H192.434V16.5895C192.434 13.2348 193.156 10.3062 194.607 7.80726Z" fill="#34E0A1"/>
</g>
<defs>
<clipPath id="clip0_2001_252">
<rect width="226.53" height="64" fill="white"/>
</clipPath>
</defs>
</svg>
