<svg width="121" height="35" viewBox="0 0 121 35" fill="none" xmlns="http://www.w3.org/2000/svg">
<g clip-path="url(#clip0_2055_447)">
<path d="M2.77402 28.1992V29.1354H0V28.1992H2.77402ZM0.634994 32.6941V27.875C0.634994 27.5489 0.698302 27.2784 0.826835 27.0635C0.955369 26.8487 1.12994 26.6875 1.35248 26.5801C1.57502 26.4727 1.82825 26.4189 2.11025 26.4189C2.30209 26.4189 2.47667 26.4343 2.6359 26.4631C2.79513 26.4918 2.91407 26.5187 2.9908 26.5417L2.76827 27.4779C2.72031 27.4626 2.65892 27.4472 2.58794 27.4338C2.51696 27.4204 2.44406 27.4127 2.36924 27.4127C2.18507 27.4127 2.05846 27.4549 1.98556 27.5393C1.91266 27.6237 1.87812 27.7426 1.87812 27.8942V32.6902H0.634994V32.6941Z" fill="white"/>
<path d="M4.16164 27.6197C3.97556 27.6197 3.81825 27.5583 3.68588 27.4337C3.55351 27.309 3.48828 27.1612 3.48828 26.9867C3.48828 26.8159 3.55351 26.6663 3.68588 26.5435C3.81825 26.4188 3.97556 26.3574 4.16164 26.3574C4.34773 26.3574 4.50504 26.4188 4.63741 26.5435C4.76978 26.6682 4.83501 26.8159 4.83501 26.9867C4.83501 27.1612 4.76978 27.309 4.63741 27.4337C4.50504 27.5583 4.34773 27.6197 4.16164 27.6197ZM3.53624 32.6939V28.1991H4.78321V32.6939H3.53624Z" fill="white"/>
<path d="M7.02236 30.0964V32.694H5.77539V28.1991H6.96289V28.9914H7.01468C7.11444 28.7305 7.28134 28.5233 7.51539 28.3699C7.74944 28.2164 8.03336 28.1396 8.36716 28.1396C8.67986 28.1396 8.95228 28.2087 9.18441 28.3449C9.41653 28.4811 9.59687 28.6768 9.7254 28.9281C9.85393 29.1813 9.91916 29.4806 9.91916 29.8317V32.694H8.67219V30.0542C8.67411 29.7799 8.60313 29.565 8.46117 29.4096C8.3192 29.2542 8.12353 29.1775 7.87221 29.1775C7.70531 29.1775 7.55568 29.214 7.42906 29.2849C7.30053 29.3578 7.20269 29.4614 7.12979 29.5996C7.06073 29.7377 7.02428 29.9027 7.02236 30.0964Z" fill="white"/>
<path d="M12.182 32.7803C11.8961 32.7803 11.6391 32.7304 11.4146 32.6288C11.1902 32.529 11.0137 32.3794 10.8832 32.1818C10.7528 31.9842 10.6895 31.7367 10.6895 31.4393C10.6895 31.19 10.7355 30.9808 10.8276 30.8101C10.9197 30.6413 11.0444 30.5032 11.2017 30.3996C11.359 30.296 11.5393 30.2173 11.7407 30.1655C11.9422 30.1137 12.1551 30.0754 12.3777 30.0543C12.6386 30.0274 12.8496 30.0005 13.0088 29.9775C13.168 29.9526 13.2851 29.9161 13.356 29.8682C13.4289 29.8202 13.4635 29.7473 13.4635 29.6514V29.6341C13.4635 29.448 13.4059 29.3061 13.2889 29.2044C13.1719 29.1027 13.0088 29.0528 12.7959 29.0528C12.5714 29.0528 12.393 29.1027 12.2606 29.2006C12.1283 29.2984 12.04 29.4231 11.9978 29.5708L10.8448 29.4768C10.9043 29.2044 11.0194 28.9665 11.1902 28.767C11.3609 28.5675 11.5834 28.4121 11.8558 28.3047C12.1283 28.1972 12.4429 28.1416 12.8016 28.1416C13.051 28.1416 13.2908 28.1704 13.5191 28.2298C13.7474 28.2874 13.9527 28.3795 14.1311 28.5023C14.3095 28.625 14.4515 28.7824 14.5531 28.9742C14.6548 29.166 14.7085 29.3962 14.7085 29.6629V32.694H13.5268V32.0705H13.4923C13.4194 32.2106 13.3234 32.3352 13.2026 32.4408C13.0817 32.5463 12.9359 32.6307 12.7671 32.6902C12.6002 32.7496 12.4045 32.7803 12.182 32.7803ZM12.5388 31.919C12.723 31.919 12.8841 31.8825 13.0242 31.8096C13.1642 31.7367 13.2755 31.6369 13.3541 31.5122C13.4347 31.3876 13.475 31.2456 13.475 31.0883V30.6106C13.4366 30.6355 13.3829 30.6586 13.3158 30.6797C13.2486 30.7008 13.1738 30.718 13.0894 30.7353C13.005 30.7526 12.9225 30.766 12.8381 30.7794C12.7537 30.7928 12.6788 30.8024 12.6098 30.8139C12.464 30.835 12.3354 30.8696 12.2261 30.9156C12.1168 30.9617 12.0323 31.025 11.971 31.1036C11.9096 31.1823 11.8808 31.2801 11.8808 31.3971C11.8808 31.566 11.9422 31.6964 12.0669 31.7847C12.1897 31.8748 12.347 31.919 12.5388 31.919Z" fill="white"/>
<path d="M16.9286 30.0964V32.694H15.6816V28.1991H16.8691V28.9914H16.9209C17.0207 28.7305 17.1876 28.5233 17.4216 28.3699C17.6557 28.2164 17.9396 28.1396 18.2734 28.1396C18.5861 28.1396 18.8585 28.2087 19.0907 28.3449C19.3228 28.4811 19.5031 28.6768 19.6317 28.9281C19.7602 29.1813 19.8254 29.4806 19.8254 29.8317V32.694H18.5784V30.0542C18.5804 29.7799 18.5094 29.565 18.3674 29.4096C18.2255 29.2542 18.0298 29.1775 17.7785 29.1775C17.6116 29.1775 17.4619 29.214 17.3353 29.2849C17.2068 29.3578 17.1089 29.4614 17.036 29.5996C16.967 29.7377 16.9305 29.9027 16.9286 30.0964Z" fill="white"/>
<path d="M22.8369 32.7823C22.3765 32.7823 21.9813 32.6844 21.6494 32.4888C21.3194 32.2931 21.0643 32.0207 20.8878 31.6715C20.7113 31.3224 20.623 30.9195 20.623 30.4668C20.623 30.0063 20.7132 29.6015 20.8916 29.2543C21.07 28.9052 21.3233 28.6347 21.6532 28.4371C21.9832 28.2414 22.3746 28.1436 22.8292 28.1436C23.2206 28.1436 23.564 28.2145 23.8594 28.3565C24.1548 28.4985 24.387 28.6999 24.5596 28.957C24.7323 29.214 24.8263 29.5171 24.8436 29.8644H23.6676C23.635 29.6399 23.5467 29.4596 23.4047 29.3215C23.2628 29.1833 23.0786 29.1143 22.8503 29.1143C22.6566 29.1143 22.4897 29.1661 22.3458 29.2716C22.2019 29.3752 22.0906 29.5267 22.0101 29.7262C21.9295 29.9258 21.8892 30.1656 21.8892 30.4495C21.8892 30.7372 21.9295 30.9809 22.0081 31.1804C22.0868 31.3818 22.1981 31.5353 22.3439 31.6389C22.4877 31.7444 22.6566 31.7962 22.8503 31.7962C22.9923 31.7962 23.1208 31.7674 23.2359 31.708C23.3491 31.6504 23.445 31.5641 23.5198 31.4528C23.5947 31.3415 23.6445 31.2053 23.6676 31.048H24.8436C24.8244 31.3914 24.7304 31.6926 24.5635 31.9535C24.3966 32.2144 24.1664 32.4178 23.8748 32.5636C23.5832 32.7094 23.2359 32.7823 22.8369 32.7823Z" fill="white"/>
<path d="M27.694 32.7822C27.2317 32.7822 26.8346 32.6882 26.5008 32.5002C26.1689 32.3122 25.9118 32.0455 25.7334 31.6983C25.5531 31.3511 25.4648 30.9424 25.4648 30.4686C25.4648 30.0063 25.555 29.5996 25.7334 29.2504C25.9138 28.9013 26.1651 28.6288 26.4931 28.4332C26.8212 28.2375 27.2029 28.1396 27.6442 28.1396C27.9415 28.1396 28.2178 28.1876 28.4729 28.2816C28.73 28.3756 28.9544 28.5176 29.1463 28.7075C29.3381 28.8974 29.4878 29.1334 29.5952 29.4192C29.7026 29.7051 29.7563 30.0389 29.7563 30.4206V30.764H25.9617V29.9909H28.5842C28.5842 29.8106 28.5458 29.6533 28.4672 29.5132C28.3885 29.3751 28.2811 29.2658 28.1429 29.1871C28.0048 29.1084 27.8456 29.0682 27.6653 29.0682C27.4753 29.0682 27.3084 29.1123 27.1626 29.1986C27.0168 29.2849 26.9037 29.402 26.8212 29.5478C26.7387 29.6936 26.6965 29.8547 26.6945 30.0312V30.766C26.6945 30.9885 26.7367 31.1803 26.8192 31.3415C26.9017 31.5026 27.0188 31.6292 27.1722 31.7156C27.3238 31.8038 27.5041 31.8479 27.7132 31.8479C27.8513 31.8479 27.978 31.8288 28.0931 31.7885C28.2082 31.7501 28.306 31.6906 28.3885 31.612C28.471 31.5333 28.5324 31.4374 28.5765 31.3242L29.7295 31.4009C29.67 31.6772 29.5511 31.9189 29.3707 32.1261C29.1904 32.3314 28.9583 32.4925 28.6743 32.6057C28.3904 32.7246 28.0643 32.7822 27.694 32.7822Z" fill="white"/>
<path d="M34.5127 32.7823C34.0523 32.7823 33.6571 32.6844 33.3252 32.4888C32.9952 32.2931 32.7401 32.0207 32.5636 31.6715C32.3871 31.3224 32.2988 30.9195 32.2988 30.4668C32.2988 30.0063 32.389 29.6015 32.5674 29.2543C32.7458 28.9052 32.999 28.6347 33.329 28.4371C33.659 28.2414 34.0503 28.1436 34.505 28.1436C34.8964 28.1436 35.2398 28.2145 35.5352 28.3565C35.8306 28.4985 36.0628 28.6999 36.2354 28.957C36.4081 29.214 36.5021 29.5171 36.5193 29.8644H35.3433C35.3107 29.6399 35.2225 29.4596 35.0805 29.3215C34.9386 29.1833 34.7544 29.1143 34.5261 29.1143C34.3323 29.1143 34.1654 29.1661 34.0216 29.2716C33.8777 29.3752 33.7664 29.5267 33.6858 29.7262C33.6053 29.9258 33.565 30.1656 33.565 30.4495C33.565 30.7372 33.6053 30.9809 33.6839 31.1804C33.7626 31.3818 33.8738 31.5353 34.0196 31.6389C34.1635 31.7444 34.3323 31.7962 34.5261 31.7962C34.6681 31.7962 34.7966 31.7674 34.9117 31.708C35.0249 31.6504 35.1208 31.5641 35.1956 31.4528C35.2704 31.3415 35.3203 31.2053 35.3433 31.048H36.5193C36.5001 31.3914 36.4061 31.6926 36.2392 31.9535C36.0723 32.2144 35.8421 32.4178 35.5505 32.5636C35.2589 32.7094 34.9117 32.7823 34.5127 32.7823Z" fill="white"/>
<path d="M39.3526 32.7822C38.8979 32.7822 38.5046 32.6844 38.1746 32.4906C37.8447 32.2969 37.5895 32.0264 37.4092 31.6772C37.2289 31.33 37.1406 30.9252 37.1406 30.4648C37.1406 30.0005 37.2308 29.5938 37.4092 29.2466C37.5895 28.8994 37.8447 28.627 38.1746 28.4332C38.5046 28.2394 38.8979 28.1416 39.3526 28.1416C39.8072 28.1416 40.2005 28.2394 40.5305 28.4332C40.8604 28.627 41.1156 28.8994 41.2959 29.2466C41.4762 29.5958 41.5645 30.0005 41.5645 30.4648C41.5645 30.9252 41.4743 31.33 41.2959 31.6772C41.1156 32.0264 40.8604 32.2969 40.5305 32.4906C40.1986 32.6844 39.8072 32.7822 39.3526 32.7822ZM39.3583 31.8173C39.5655 31.8173 39.7382 31.7578 39.8763 31.6408C40.0144 31.5238 40.1199 31.3607 40.1909 31.1573C40.2619 30.9521 40.2983 30.7199 40.2983 30.4571C40.2983 30.1962 40.2619 29.9622 40.1909 29.7569C40.1199 29.5516 40.0144 29.3905 39.8763 29.2715C39.7382 29.1526 39.5655 29.0931 39.3583 29.0931C39.1492 29.0931 38.9746 29.1526 38.8327 29.2715C38.6907 29.3905 38.5852 29.5516 38.5142 29.7569C38.4432 29.9622 38.4068 30.1943 38.4068 30.4571C38.4068 30.718 38.4432 30.9521 38.5142 31.1573C38.5852 31.3626 38.6907 31.5238 38.8327 31.6408C38.9746 31.7578 39.1492 31.8173 39.3583 31.8173Z" fill="white"/>
<path d="M42.377 32.694V28.1991H43.5644V28.9914H43.6162C43.7102 28.7286 43.8656 28.5195 44.0843 28.3679C44.303 28.2164 44.5639 28.1396 44.869 28.1396C45.1778 28.1396 45.4387 28.2164 45.6555 28.3699C45.8723 28.5233 46.0162 28.7305 46.0891 28.9914H46.1351C46.2272 28.7344 46.3922 28.5272 46.6339 28.3718C46.8756 28.2164 47.1596 28.1396 47.4895 28.1396C47.9097 28.1396 48.2492 28.272 48.512 28.5387C48.7749 28.8053 48.9053 29.1813 48.9053 29.6705V32.694H47.6622V29.9161C47.6622 29.6667 47.595 29.4787 47.4627 29.354C47.3303 29.2293 47.1634 29.166 46.9658 29.166C46.7394 29.166 46.5629 29.237 46.4363 29.3809C46.3097 29.5247 46.2464 29.7127 46.2464 29.9468V32.692H45.0378V29.8892C45.0378 29.6686 44.9745 29.494 44.8498 29.3617C44.7232 29.2312 44.5582 29.166 44.3529 29.166C44.2148 29.166 44.0901 29.2005 43.9807 29.2696C43.8714 29.3387 43.7831 29.4346 43.7179 29.5593C43.6527 29.684 43.622 29.8278 43.622 29.9948V32.692H42.377V32.694Z" fill="white"/>
<path d="M49.8926 34.3803V28.1992H51.1223V28.955H51.1779C51.2316 28.8341 51.3122 28.7114 51.4158 28.5848C51.5194 28.4581 51.6575 28.3526 51.8263 28.2682C51.9952 28.1838 52.2062 28.1416 52.4575 28.1416C52.7855 28.1416 53.0867 28.2279 53.3649 28.3967C53.6431 28.5656 53.8637 28.8246 54.0287 29.166C54.1937 29.5075 54.2781 29.9372 54.2781 30.4514C54.2781 30.9521 54.1975 31.376 54.0363 31.7194C53.8752 32.0628 53.6565 32.3237 53.3802 32.5002C53.104 32.6767 52.7951 32.765 52.4537 32.765C52.2119 32.765 52.0067 32.7247 51.8378 32.646C51.669 32.5655 51.5309 32.4657 51.4235 32.3429C51.316 32.2221 51.2335 32.0974 51.1779 31.9727H51.1395V34.3784H49.8926V34.3803ZM51.1127 30.4475C51.1127 30.7142 51.1491 30.9482 51.224 31.1478C51.2988 31.3473 51.4062 31.5007 51.5462 31.612C51.6863 31.7214 51.857 31.777 52.0585 31.777C52.2618 31.777 52.4325 31.7214 52.5745 31.6082C52.7146 31.4969 52.822 31.3396 52.8949 31.1401C52.9678 30.9406 53.0042 30.7104 53.0042 30.4475C53.0042 30.1885 52.9678 29.9603 52.8968 29.7627C52.8239 29.5651 52.7184 29.4116 52.5784 29.3003C52.4383 29.1891 52.2656 29.1334 52.0604 29.1334C51.857 29.1334 51.6863 29.1871 51.5462 29.2946C51.4062 29.402 51.3007 29.5536 51.2259 29.7511C51.1491 29.9487 51.1127 30.1809 51.1127 30.4475Z" fill="white"/>
<path d="M56.3851 32.7803C56.0993 32.7803 55.8422 32.7304 55.6177 32.6288C55.3933 32.529 55.2168 32.3794 55.0863 32.1818C54.9559 31.9842 54.8926 31.7367 54.8926 31.4393C54.8926 31.19 54.9386 30.9808 55.0307 30.8101C55.1228 30.6413 55.2475 30.5032 55.4048 30.3996C55.5621 30.296 55.7424 30.2173 55.9439 30.1655C56.1453 30.1137 56.3582 30.0754 56.5808 30.0543C56.8417 30.0274 57.0527 30.0005 57.2119 29.9775C57.3712 29.9526 57.4882 29.9161 57.5592 29.8682C57.6321 29.8202 57.6666 29.7473 57.6666 29.6514V29.6341C57.6666 29.448 57.609 29.3061 57.492 29.2044C57.375 29.1027 57.2119 29.0528 56.999 29.0528C56.7745 29.0528 56.5961 29.1027 56.4638 29.2006C56.3314 29.2984 56.2431 29.4231 56.2009 29.5708L55.048 29.4768C55.1074 29.2044 55.2225 28.9665 55.3933 28.767C55.564 28.5675 55.7866 28.4121 56.059 28.3047C56.3314 28.1972 56.646 28.1416 57.0047 28.1416C57.2541 28.1416 57.4939 28.1704 57.7222 28.2298C57.9505 28.2874 58.1558 28.3795 58.3342 28.5023C58.5126 28.625 58.6546 28.7824 58.7563 28.9742C58.8579 29.166 58.9116 29.3962 58.9116 29.6629V32.694H57.7299V32.0705H57.6954C57.6225 32.2106 57.5266 32.3352 57.4057 32.4408C57.2848 32.5463 57.139 32.6307 56.9702 32.6902C56.8033 32.7496 56.6057 32.7803 56.3851 32.7803ZM56.7419 31.919C56.9261 31.919 57.0872 31.8825 57.2273 31.8096C57.3673 31.7367 57.4786 31.6369 57.5572 31.5122C57.6378 31.3876 57.6781 31.2456 57.6781 31.0883V30.6106C57.6397 30.6355 57.586 30.6586 57.5189 30.6797C57.4517 30.7008 57.3769 30.718 57.2925 30.7353C57.2081 30.7526 57.1256 30.766 57.0412 30.7794C56.9568 30.7928 56.882 30.8024 56.8129 30.8139C56.6671 30.835 56.5386 30.8696 56.4292 30.9156C56.3199 30.9617 56.2355 31.025 56.1741 31.1036C56.1127 31.1823 56.0839 31.2801 56.0839 31.3971C56.0839 31.566 56.1453 31.6964 56.27 31.7847C56.3928 31.8748 56.5501 31.919 56.7419 31.919Z" fill="white"/>
<path d="M61.1317 30.0964V32.694H59.8848V28.1991H61.0723V28.9914H61.1241C61.2238 28.7305 61.3907 28.5233 61.6248 28.3699C61.8588 28.2164 62.1427 28.1396 62.4765 28.1396C62.7892 28.1396 63.0617 28.2087 63.2938 28.3449C63.5259 28.4811 63.7062 28.6768 63.8348 28.9281C63.9633 29.1813 64.0285 29.4806 64.0285 29.8317V32.694H62.7816V30.0542C62.7835 29.7799 62.7125 29.565 62.5705 29.4096C62.4286 29.2542 62.2329 29.1775 61.9816 29.1775C61.8147 29.1775 61.667 29.214 61.5384 29.2849C61.4099 29.3578 61.3121 29.4614 61.2392 29.5996C61.1663 29.7377 61.1337 29.9027 61.1317 30.0964Z" fill="white"/>
<path d="M65.6144 34.3803C65.4571 34.3803 65.3094 34.3688 65.1712 34.3439C65.0331 34.319 64.9199 34.2883 64.8298 34.2518L65.1098 33.3214C65.2556 33.3655 65.388 33.3904 65.507 33.3943C65.6259 33.3981 65.7276 33.3713 65.8139 33.3118C65.9002 33.2523 65.9712 33.1545 66.0268 33.0125L66.0997 32.8226L64.4883 28.1992H65.7986L66.729 31.5008H66.775L67.715 28.1992H69.0349L67.2872 33.1794C67.2028 33.4211 67.0896 33.6322 66.9458 33.8125C66.8019 33.9928 66.6216 34.1329 66.4029 34.2307C66.1861 34.3305 65.9233 34.3803 65.6144 34.3803Z" fill="white"/>
<path d="M1.49606 3.85964C2.0735 2.89852 2.85814 2.13691 3.85187 1.58057C4.84369 1.02423 5.9391 0.744141 7.13427 0.744141H15.0669V4.99918H7.77311C7.20526 4.99918 6.72373 5.20253 6.33046 5.60731C5.93527 6.0121 5.73767 6.50897 5.73767 7.096V10.1655H14.0348V14.3898H5.73575V22.0174H0.630859V7.03461C0.630859 5.87973 0.918621 4.82268 1.49606 3.85964Z" fill="white"/>
<path d="M17.9219 17.7643H21.5995V4.99918H17.9219V0.744141H26.6756V17.7643H30.3532V22.0193H17.9219V17.7643Z" fill="#34E0A1"/>
<path d="M34.0611 4.52749C34.8304 3.19995 35.899 2.17743 37.2668 1.45803C38.6346 0.740544 40.2001 0.379883 41.9631 0.379883C43.7261 0.379883 45.2915 0.740544 46.6593 1.45803C48.0272 2.17743 49.0957 3.19995 49.865 4.52749C50.6343 5.85503 51.0199 7.41086 51.0199 9.19306V22.0176H45.9745V8.92065C45.9745 7.70438 45.61 6.69721 44.881 5.89723C44.152 5.09726 43.1793 4.69631 41.9631 4.69631C40.7468 4.69631 39.7742 5.09726 39.0452 5.89723C38.3162 6.69721 37.9517 7.7063 37.9517 8.92065V22.0196H32.9062V9.19306C32.9063 7.41086 33.2899 5.85503 34.0611 4.52749Z" fill="#34E0A1"/>
<path d="M58.5268 21.3498C57.2299 20.6611 56.217 19.6789 55.488 18.4012C54.759 17.1255 54.3945 15.6253 54.3945 13.9025V0.744141H59.4093V14.0867C59.4093 15.2013 59.7335 16.1279 60.3819 16.8684C61.0303 17.6089 61.8917 17.9772 62.966 17.9772C64.0403 17.9772 64.8997 17.607 65.5501 16.8684C66.1985 16.1298 66.5227 15.2013 66.5227 14.0867V0.744141H71.5375V14.0867C71.5375 15.2013 71.8617 16.1279 72.5101 16.8684C73.1585 17.6089 74.0199 17.9772 75.0942 17.9772C76.1685 17.9772 77.0279 17.607 77.6783 16.8684C78.3267 16.1298 78.6509 15.2013 78.6509 14.0867V0.744141H83.6656V13.9044C83.6656 15.6272 83.3012 17.1255 82.5722 18.4031C81.8432 19.6789 80.8302 20.663 79.5334 21.3517C78.2365 22.0404 76.7575 22.3857 75.0961 22.3857C73.8606 22.3857 72.7249 22.167 71.6928 21.7316C70.6588 21.2961 69.7687 20.663 69.0186 19.8323C68.2685 20.6438 67.3783 21.2711 66.3443 21.7162C65.3103 22.1613 64.1861 22.3857 62.9717 22.3857C61.3027 22.3838 59.8217 22.0385 58.5268 21.3498Z" fill="white"/>
<path d="M87.2441 17.7643H90.9217V4.99918H87.2441V0.744141H95.9979V17.7643H99.6755V22.0193H87.2461V17.7643H87.2441Z" fill="#34E0A1"/>
<path d="M103.385 4.52749C104.155 3.19995 105.223 2.17743 106.591 1.45803C107.959 0.740544 109.524 0.379883 111.287 0.379883C113.05 0.379883 114.616 0.740544 115.984 1.45803C117.351 2.17743 118.42 3.19995 119.189 4.52749C119.958 5.85503 120.344 7.41086 120.344 9.19306V22.0176H115.299V8.92065C115.299 7.70438 114.934 6.69721 114.205 5.89723C113.476 5.09726 112.504 4.69631 111.287 4.69631C110.071 4.69631 109.098 5.09726 108.369 5.89723C107.64 6.69721 107.276 7.7063 107.276 8.92065V22.0196H102.23V9.19306C102.23 7.41086 102.614 5.85503 103.385 4.52749Z" fill="#34E0A1"/>
</g>
<defs>
<clipPath id="clip0_2055_447">
<rect width="120.344" height="34" fill="white" transform="translate(0 0.379883)"/>
</clipPath>
</defs>
</svg>
