<svg width="148" height="30" viewBox="0 0 148 30" fill="none" xmlns="http://www.w3.org/2000/svg">
<path d="M0.548199 28.2743C0.332052 28.4462 0.296148 28.7607 0.468006 28.9769C0.639864 29.193 0.954404 29.2289 1.17055 29.0571L0.548199 28.2743ZM147.991 28.6657L145.825 23.314L142.273 27.8659L147.991 28.6657ZM1.17055 29.0571C1.91744 28.4632 2.66725 27.8782 3.41992 27.302L2.81209 26.508C2.0545 27.0879 1.29986 27.6767 0.548199 28.2743L1.17055 29.0571ZM8.01481 23.9208C9.57743 22.8165 11.1516 21.7502 12.737 20.7223L12.193 19.8832C10.5963 20.9185 9.01103 21.9923 7.43771 23.1041L8.01481 23.9208ZM17.5847 17.7205C19.2303 16.7488 20.8872 15.8182 22.5549 14.9294L22.0845 14.0469C20.4038 14.9427 18.7342 15.8804 17.0763 16.8594L17.5847 17.7205ZM27.6449 12.3629C29.3686 11.5429 31.1031 10.7671 32.848 10.0363L32.4617 9.11389C30.702 9.8509 28.9531 10.6332 27.2153 11.4599L27.6449 12.3629ZM38.1557 7.96421C39.947 7.31549 41.7485 6.71386 43.5597 6.16011L43.2674 5.20381C41.4397 5.76256 39.6222 6.36955 37.8152 7.02397L38.1557 7.96421ZM49.0491 4.63664C50.8936 4.17643 52.7474 3.76564 54.6103 3.40509L54.4203 2.42331C52.5398 2.78727 50.6686 3.20191 48.807 3.66638L49.0491 4.63664ZM60.2293 2.47437C62.1079 2.2154 63.995 2.00737 65.8901 1.8511L65.808 0.854481C63.8945 1.01226 61.9893 1.22229 60.0927 1.48374L60.2293 2.47437ZM71.577 1.53899C72.5246 1.51303 73.474 1.5 74.4252 1.5V0.5C73.4648 0.5 72.5063 0.513154 71.5496 0.539362L71.577 1.53899ZM74.4252 1.5C75.3764 1.5 76.3258 1.51303 77.2733 1.53899L77.3007 0.539362C76.3441 0.513154 75.3855 0.5 74.4252 0.5V1.5ZM82.9602 1.8511C84.8554 2.00737 86.7425 2.2154 88.6211 2.47437L88.7577 1.48374C86.8611 1.22229 84.9558 1.01226 83.0424 0.854481L82.9602 1.8511ZM94.2401 3.40508C96.1029 3.76564 97.9568 4.17643 99.8012 4.63663L100.043 3.66638C98.1818 3.20191 96.3106 2.78727 94.4301 2.4233L94.2401 3.40508ZM105.291 6.16011C107.102 6.71385 108.903 7.31548 110.695 7.9642L111.035 7.02396C109.228 6.36955 107.411 5.76256 105.583 5.2038L105.291 6.16011ZM116.002 10.0363C117.747 10.7671 119.482 11.5429 121.205 12.3629L121.635 11.4599C119.897 10.6332 118.148 9.8509 116.389 9.11389L116.002 10.0363ZM126.295 14.9294C127.963 15.8182 129.62 16.7488 131.266 17.7205L131.774 16.8594C130.116 15.8804 128.447 14.9427 126.766 14.0469L126.295 14.9294ZM136.113 20.7223C137.699 21.7502 139.273 22.8165 140.836 23.9208L141.413 23.1041C139.839 21.9923 138.254 20.9185 136.657 19.8832L136.113 20.7223ZM0.548199 28.2743C0.332052 28.4462 0.296148 28.7607 0.468006 28.9769C0.639864 29.193 0.954404 29.2289 1.17055 29.0571L0.548199 28.2743ZM147.991 28.6657L145.825 23.314L142.273 27.8659L147.991 28.6657ZM1.17055 29.0571C1.91744 28.4632 2.66725 27.8782 3.41992 27.302L2.81209 26.508C2.0545 27.0879 1.29986 27.6767 0.548199 28.2743L1.17055 29.0571ZM8.01481 23.9208C9.57743 22.8165 11.1516 21.7502 12.737 20.7223L12.193 19.8832C10.5963 20.9185 9.01103 21.9923 7.43771 23.1041L8.01481 23.9208ZM17.5847 17.7205C19.2303 16.7488 20.8872 15.8182 22.5549 14.9294L22.0845 14.0469C20.4038 14.9427 18.7342 15.8804 17.0763 16.8594L17.5847 17.7205ZM27.6449 12.3629C29.3686 11.5429 31.1031 10.7671 32.848 10.0363L32.4617 9.11389C30.702 9.8509 28.9531 10.6332 27.2153 11.4599L27.6449 12.3629ZM38.1557 7.96421C39.947 7.31549 41.7485 6.71386 43.5597 6.16011L43.2674 5.20381C41.4397 5.76256 39.6222 6.36955 37.8152 7.02397L38.1557 7.96421ZM49.0491 4.63664C50.8936 4.17643 52.7474 3.76564 54.6103 3.40509L54.4203 2.42331C52.5398 2.78727 50.6686 3.20191 48.807 3.66638L49.0491 4.63664ZM60.2293 2.47437C62.1079 2.2154 63.995 2.00737 65.8901 1.8511L65.808 0.854481C63.8945 1.01226 61.9893 1.22229 60.0927 1.48374L60.2293 2.47437ZM71.577 1.53899C72.5246 1.51303 73.474 1.5 74.4252 1.5V0.5C73.4648 0.5 72.5063 0.513154 71.5496 0.539362L71.577 1.53899ZM74.4252 1.5C75.3764 1.5 76.3258 1.51303 77.2733 1.53899L77.3007 0.539362C76.3441 0.513154 75.3855 0.5 74.4252 0.5V1.5ZM82.9602 1.8511C84.8554 2.00737 86.7425 2.2154 88.6211 2.47437L88.7577 1.48374C86.8611 1.22229 84.9558 1.01226 83.0424 0.854481L82.9602 1.8511ZM94.2401 3.40508C96.1029 3.76564 97.9568 4.17643 99.8012 4.63663L100.043 3.66638C98.1818 3.20191 96.3106 2.78727 94.4301 2.4233L94.2401 3.40508ZM105.291 6.16011C107.102 6.71385 108.903 7.31548 110.695 7.9642L111.035 7.02396C109.228 6.36955 107.411 5.76256 105.583 5.2038L105.291 6.16011ZM116.002 10.0363C117.747 10.7671 119.482 11.5429 121.205 12.3629L121.635 11.4599C119.897 10.6332 118.148 9.8509 116.389 9.11389L116.002 10.0363ZM126.295 14.9294C127.963 15.8182 129.62 16.7488 131.266 17.7205L131.774 16.8594C130.116 15.8804 128.447 14.9427 126.766 14.0469L126.295 14.9294ZM136.113 20.7223C137.699 21.7502 139.273 22.8165 140.836 23.9208L141.413 23.1041C139.839 21.9923 138.254 20.9185 136.657 19.8832L136.113 20.7223Z" fill="url(#paint0_linear_271_10463)"/>
<defs>
<linearGradient id="paint0_linear_271_10463" x1="0.859375" y1="14.8328" x2="147.991" y2="14.8328" gradientUnits="userSpaceOnUse">
<stop stop-color="#1C2805"/>
<stop offset="1" stop-color="#34E0A1"/>
</linearGradient>
</defs>
</svg>
