<svg width="37" height="103" viewBox="0 0 37 103" fill="none" xmlns="http://www.w3.org/2000/svg">
<path d="M1.28374 0.588305C1.05637 0.4316 0.745016 0.488886 0.588311 0.716258C0.431605 0.943629 0.488891 1.25499 0.716263 1.41169L1.28374 0.588305ZM0.999999 103L6.74995 102.479L3.42385 97.7599L0.999999 103ZM0.716263 1.41169C1.6065 2.02525 2.48103 2.6416 3.33968 3.2607L3.92452 2.44955C3.05999 1.82622 2.17968 1.20579 1.28374 0.588305L0.716263 1.41169ZM8.44826 7.12556C10.1601 8.48678 11.7962 9.86014 13.355 11.2451L14.0192 10.4975C12.4461 9.09985 10.796 7.71479 9.07064 6.34285L8.44826 7.12556ZM18.0045 15.6422C19.5445 17.1974 20.9879 18.7658 22.3328 20.3467L23.0944 19.6987C21.7323 18.0976 20.2717 16.5106 18.7151 14.9386L18.0045 15.6422ZM26.2535 25.3846C27.5132 27.1676 28.6487 28.9647 29.657 30.7748L30.5306 30.2881C29.5039 28.4451 28.3493 26.6179 27.0702 24.8076L26.2535 25.3846ZM32.4087 36.5153C33.214 38.5172 33.8649 40.5335 34.358 42.5629L35.3297 42.3268C34.8248 40.2487 34.1589 38.1867 33.3364 36.1421L32.4087 36.5153ZM35.3716 48.8276C35.457 49.8817 35.5 50.9392 35.5 52L36.5 52C36.5 50.9122 36.4559 49.8277 36.3683 48.7468L35.3716 48.8276ZM35.5 52C35.5 53.0608 35.457 54.1183 35.3716 55.1725L36.3683 55.2532C36.4559 54.1723 36.5 53.0878 36.5 52L35.5 52ZM34.358 61.4371C33.8649 63.4665 33.214 65.4828 32.4087 67.4847L33.3364 67.8579C34.1589 65.8133 34.8248 63.7513 35.3297 61.6732L34.358 61.4371ZM29.657 73.2252C28.6487 75.0353 27.5132 76.8324 26.2535 78.6154L27.0702 79.1924C28.3493 77.3821 29.5039 75.5549 30.5306 73.7119L29.657 73.2252ZM22.3328 83.6533C20.9879 85.2342 19.5445 86.8026 18.0045 88.3578L18.7151 89.0614C20.2717 87.4894 21.7323 85.9024 23.0944 84.3013L22.3328 83.6533ZM13.355 92.7549C11.7962 94.1399 10.1601 95.5132 8.44825 96.8744L9.07063 97.6571C10.796 96.2852 12.4461 94.9001 14.0192 93.5025L13.355 92.7549ZM1.28374 0.588305C1.05637 0.4316 0.745016 0.488886 0.588311 0.716258C0.431605 0.943629 0.488891 1.25499 0.716263 1.41169L1.28374 0.588305ZM0.999999 103L6.74995 102.479L3.42385 97.7599L0.999999 103ZM0.716263 1.41169C1.6065 2.02525 2.48103 2.6416 3.33968 3.2607L3.92452 2.44955C3.05999 1.82622 2.17968 1.20579 1.28374 0.588305L0.716263 1.41169ZM8.44826 7.12556C10.1601 8.48678 11.7962 9.86014 13.355 11.2451L14.0192 10.4975C12.4461 9.09985 10.796 7.71479 9.07064 6.34285L8.44826 7.12556ZM18.0045 15.6422C19.5445 17.1974 20.9879 18.7658 22.3328 20.3467L23.0944 19.6987C21.7323 18.0976 20.2717 16.5106 18.7151 14.9386L18.0045 15.6422ZM26.2535 25.3846C27.5132 27.1676 28.6487 28.9647 29.657 30.7748L30.5306 30.2881C29.5039 28.4451 28.3493 26.6179 27.0702 24.8076L26.2535 25.3846ZM32.4087 36.5153C33.214 38.5172 33.8649 40.5335 34.358 42.5629L35.3297 42.3268C34.8248 40.2487 34.1589 38.1867 33.3364 36.1421L32.4087 36.5153ZM35.3716 48.8276C35.457 49.8817 35.5 50.9392 35.5 52L36.5 52C36.5 50.9122 36.4559 49.8277 36.3683 48.7468L35.3716 48.8276ZM35.5 52C35.5 53.0608 35.457 54.1183 35.3716 55.1725L36.3683 55.2532C36.4559 54.1723 36.5 53.0878 36.5 52L35.5 52ZM34.358 61.4371C33.8649 63.4665 33.214 65.4828 32.4087 67.4847L33.3364 67.8579C34.1589 65.8133 34.8248 63.7513 35.3297 61.6732L34.358 61.4371ZM29.657 73.2252C28.6487 75.0353 27.5132 76.8324 26.2535 78.6154L27.0702 79.1924C28.3493 77.3821 29.5039 75.5549 30.5306 73.7119L29.657 73.2252ZM22.3328 83.6533C20.9879 85.2342 19.5445 86.8026 18.0045 88.3578L18.7151 89.0614C20.2717 87.4894 21.7323 85.9024 23.0944 84.3013L22.3328 83.6533ZM13.355 92.7549C11.7962 94.1399 10.1601 95.5132 8.44825 96.8744L9.07063 97.6571C10.796 96.2852 12.4461 94.9001 14.0192 93.5025L13.355 92.7549Z" fill="url(#paint0_linear_271_11193)"/>
<defs>
<linearGradient id="paint0_linear_271_11193" x1="18.5" y1="0.999999" x2="18.5" y2="103" gradientUnits="userSpaceOnUse">
<stop stop-color="#1C2805"/>
<stop offset="1" stop-color="#34E0A1"/>
</linearGradient>
</defs>
</svg>
