<svg width="195" height="56" viewBox="0 0 195 56" fill="none" xmlns="http://www.w3.org/2000/svg">
<g clip-path="url(#clip0_329_15943)">
<path d="M0.545898 39.9001V45.3001L11.8459 34.0001V28.6001L0.545898 39.9001Z" fill="#FED700"/>
<path d="M45.1455 19.4001V24.8001L56.3455 13.5001V8.1001L45.1455 19.4001Z" fill="#FED700"/>
<path d="M45.1455 27.4001V32.8001L56.3455 21.5001V16.1001L45.1455 27.4001Z" fill="#FED700"/>
<path d="M56.3455 0.100098L45.1455 11.4001V16.8001L56.3455 5.5001V0.100098Z" fill="#FED700"/>
<path d="M45.1459 35.4001V44.4001L28.4459 51.7001L11.9459 44.5001L0.545898 55.9001H56.3459V24.1001L45.1459 35.4001Z" fill="#FED700"/>
<path d="M0.545898 0.100098V29.3001L11.8459 18.0001V8.7001H45.1459L53.7459 0.100098H0.545898Z" fill="#FED700"/>
<path d="M0.545898 31.9001V37.3001L11.8459 26.0001V20.6001L0.545898 31.9001Z" fill="#FED700"/>
<path d="M0.545898 47.9002V53.3002L11.8459 42.0002V36.7002L0.545898 47.9002Z" fill="#FED700"/>
<path d="M22.5451 29.6001L21.8451 23.7001C21.6451 21.9001 20.8451 20.2001 19.7451 18.9001V31.8001H20.7451C20.9451 30.9001 21.6451 30.0001 22.5451 29.6001Z" fill="#FED700"/>
<path d="M23.1451 36.1001C21.9451 35.8001 21.0451 34.8001 20.7451 33.6001H19.7451V38.8001H23.6451C23.6451 37.9001 23.7451 37.1001 23.9451 36.2001L23.1451 36.1001Z" fill="#FED700"/>
<path d="M25.7453 36.7002C25.5453 37.4002 25.4453 38.1002 25.4453 38.9002H27.5453C27.5453 37.7002 26.7453 36.8002 25.7453 36.7002Z" fill="#FED700"/>
<path d="M27.5459 44.2V40.5H25.5459C25.9459 42 26.6459 43.2 27.5459 44.2Z" fill="#FED700"/>
<path d="M28.4459 36.4C28.9459 35.8 29.6459 35.3 30.3459 35.1C29.5459 33.7 28.9459 32.3 28.4459 30.8C27.9459 32.3 27.3459 33.8 26.5459 35.1C27.3459 35.3 27.9459 35.8 28.4459 36.4Z" fill="#FED700"/>
<path d="M29.3457 44.2C30.3457 43.2 31.0457 41.9 31.3457 40.5H29.3457V44.2Z" fill="#FED700"/>
<path d="M29.3457 38.8001H31.5457C31.5457 38.1001 31.4457 37.3001 31.2457 36.6001C30.1457 36.8001 29.3457 37.7001 29.3457 38.8001Z" fill="#FED700"/>
<path d="M36.1457 31.8001H37.1457V18.9001C36.0457 20.2001 35.2457 21.9001 35.0457 23.7001L34.3457 29.6001C35.2457 30.0001 35.9457 30.9001 36.1457 31.8001Z" fill="#FED700"/>
<path d="M37.1453 38.8001V33.6001H36.1453C35.8453 34.8001 34.8453 35.8001 33.7453 36.1001L32.9453 36.3001C33.1453 37.1001 33.2453 38.0001 33.2453 38.9001H37.1453V38.8001Z" fill="#FED700"/>
<path d="M13.6455 43.2001L28.4455 49.7001L43.2455 43.2001V10.6001H13.6455V43.2001ZM17.9455 15.3001C18.4455 15.6001 18.8455 15.8001 19.2455 16.1001C21.6455 17.9001 23.2455 20.7001 23.5455 23.9001L24.4455 31.0001H24.0455C23.2455 31.0001 22.5455 31.6001 22.3455 32.4001C22.1455 33.3001 22.7455 34.3001 23.7455 34.4001L24.8455 34.6001C25.2455 33.9001 25.5455 33.3001 25.8455 32.6001C26.8455 30.1001 27.6455 27.6001 27.5455 24.9001C27.5455 22.0001 27.1455 19.1001 27.1455 16.2001C27.1455 14.9001 27.6455 13.7001 28.4455 12.7001C29.2455 13.6001 29.7455 14.8001 29.7455 16.2001C29.7455 19.1001 29.3455 22.0001 29.3455 24.9001C29.2455 27.6001 30.1455 30.2001 31.0455 32.6001C31.3455 33.3001 31.7455 34.0001 32.0455 34.6001L33.1455 34.4001C34.0455 34.2001 34.7455 33.3001 34.5455 32.4001C34.3455 31.6001 33.6455 31.0001 32.8455 31.0001H32.4455L33.3455 23.9001C33.6455 20.7001 35.2455 18.0001 37.6455 16.1001C38.0455 15.8001 38.5455 15.5001 38.9455 15.3001V40.6001H33.1455C32.7455 43.0001 31.4455 45.0001 29.5455 46.4001C29.1455 46.7001 28.7455 47.1001 28.4455 47.6001C28.1455 47.1001 27.8455 46.7001 27.3455 46.4001C25.5455 45.0001 24.2455 42.9001 23.7455 40.6001H17.9455V15.3001Z" fill="#FED700"/>
<path d="M71.6453 0.100098H70.4453V55.9001H71.6453V0.100098Z" fill="white"/>
<path d="M97.2455 15.0001V3.6001H95.6455L91.4455 13.7001L87.1455 3.6001H85.6455V15.0001H86.5455V4.7001L90.9455 15.0001H91.8455L96.2455 4.6001V15.0001H97.2455Z" fill="white"/>
<path d="M101.945 6H100.945V15H101.945V6Z" fill="white"/>
<path d="M101.946 3.30005H100.846V4.40005H101.946V3.30005Z" fill="white"/>
<path d="M105.346 6V15H106.346V10.9H111.846V15H112.846V6H111.846V10H106.346V6H105.346Z" fill="white"/>
<path d="M117.246 3.30005H116.146V4.40005H117.246V3.30005Z" fill="white"/>
<path d="M117.346 6H116.346V15H117.346V6Z" fill="white"/>
<path d="M128.145 12.5L127.245 12.2C126.845 13.5 125.645 14.4 124.245 14.4C122.345 14.4 120.945 12.8 120.945 10.6C120.945 8.3 122.345 6.8 124.245 6.8C125.745 6.8 126.745 7.7 127.245 9L128.145 8.7C127.645 7 126.245 6 124.245 6C121.745 6 119.945 7.9 119.945 10.6C119.945 13.3 121.745 15.2 124.245 15.2C126.145 15.2 127.645 14.1 128.145 12.5Z" fill="white"/>
<path d="M133.345 15V6.9H136.745V6H128.945V6.9H132.345V15H133.345Z" fill="white"/>
<path d="M146.046 10.5001C146.046 7.70015 144.445 5.90015 141.945 5.90015C139.445 5.90015 137.646 7.80015 137.646 10.5001C137.646 13.2001 139.345 15.1001 142.245 15.1001C143.945 15.1001 145.245 14.3001 145.945 13.4001L145.245 12.8001C144.645 13.6001 143.445 14.2001 142.245 14.2001C140.145 14.2001 138.846 12.9001 138.646 10.8001H146.146V10.5001H146.046ZM138.646 10.1001C138.846 8.10015 140.045 6.70015 141.945 6.70015C143.745 6.70015 144.946 8.00015 145.146 10.1001H138.646Z" fill="white"/>
<path d="M152.446 15.2C154.846 15.2 156.546 13.3 156.546 10.6C156.546 7.9 154.846 6 152.446 6C151.046 6 149.946 6.7 149.246 7.8L149.146 6.2H148.346V18.2H149.346V13.7C149.946 14.6 151.046 15.2 152.446 15.2ZM149.146 10.5C149.146 8.2 150.446 6.7 152.346 6.7C154.246 6.7 155.546 8.2 155.546 10.5C155.546 12.8 154.246 14.3 152.346 14.3C150.446 14.4 149.146 12.8 149.146 10.5Z" fill="white"/>
<path d="M162.445 6.70015C163.945 6.70015 165.045 7.60015 165.445 8.90015L166.346 8.60015C165.846 6.90015 164.445 5.90015 162.445 5.90015C159.945 5.90015 158.146 7.80015 158.146 10.5001C158.146 13.2001 159.945 15.1001 162.445 15.1001C164.345 15.1001 165.846 14.0001 166.346 12.4001L165.445 12.1001C165.045 13.4001 163.845 14.3001 162.445 14.3001C160.545 14.3001 159.146 12.7001 159.146 10.5001C159.146 8.30015 160.545 6.70015 162.445 6.70015Z" fill="white"/>
<path d="M171.446 15V6.9H174.746V6H167.046V6.9H170.446V15H171.446Z" fill="white"/>
<path d="M183.246 8.5001C183.246 6.9001 182.146 6.1001 180.246 6.1001H176.546V15.1001H180.346C182.246 15.1001 183.446 14.1001 183.446 12.6001C183.446 11.5001 182.946 10.7001 181.846 10.4001C182.746 10.0001 183.246 9.3001 183.246 8.5001ZM182.646 12.5001C182.646 13.6001 181.846 14.2001 180.546 14.2001H177.546V10.8001H180.746C181.846 10.8001 182.646 11.5001 182.646 12.5001ZM180.646 10.0001H177.546V6.9001H180.546C181.646 6.9001 182.446 7.5001 182.446 8.5001C182.346 9.4001 181.646 10.0001 180.646 10.0001Z" fill="white"/>
<path d="M194.045 10.5001C194.045 7.70015 192.345 5.90015 189.745 5.90015C187.145 5.90015 185.445 7.80015 185.445 10.5001C185.445 13.3001 187.145 15.1001 189.745 15.1001C192.245 15.2001 194.045 13.3001 194.045 10.5001ZM189.645 14.4001C187.645 14.4001 186.245 12.9001 186.245 10.6001C186.245 8.30015 187.645 6.80015 189.645 6.80015C191.645 6.80015 193.045 8.30015 193.045 10.6001C193.045 12.8001 191.645 14.4001 189.645 14.4001Z" fill="white"/>
<path d="M92.6451 36.6001V32.7001C93.2451 33.4001 94.0451 33.7001 95.0451 33.7001C97.2451 33.7001 98.6451 31.9001 98.6451 29.1001C98.6451 26.3001 97.2451 24.5001 95.0451 24.5001C94.0451 24.5001 93.2451 24.9001 92.6451 25.5001V21.6001H90.2451V25.5001C89.6451 24.8001 88.8451 24.5001 87.8451 24.5001C85.6451 24.5001 84.2451 26.3001 84.2451 29.1001C84.2451 31.9001 85.6451 33.7001 87.8451 33.7001C88.8451 33.7001 89.6451 33.3001 90.2451 32.6001V36.6001H92.6451ZM94.3451 26.5001C95.4451 26.5001 96.1451 27.5001 96.1451 29.2001C96.1451 30.8001 95.4451 31.9001 94.3451 31.9001C93.1451 31.9001 92.4451 30.9001 92.4451 29.2001C92.4451 27.5001 93.1451 26.5001 94.3451 26.5001ZM88.4451 31.8001C87.3451 31.8001 86.5451 30.8001 86.5451 29.1001C86.5451 27.4001 87.2451 26.4001 88.4451 26.4001C89.5451 26.4001 90.2451 27.4001 90.2451 29.1001C90.2451 30.8001 89.6451 31.8001 88.4451 31.8001Z" fill="white"/>
<path d="M102.746 21.4001H100.146V23.4001H102.746V21.4001Z" fill="white"/>
<path d="M102.645 24.6001H100.245V33.6001H102.645V24.6001Z" fill="white"/>
<path d="M104.945 33.6001H107.345V30.1001H110.845V33.6001H113.245V24.6001H110.845V28.0001H107.345V24.6001H104.945V33.6001Z" fill="white"/>
<path d="M119.145 28.2C117.445 28.4 115.245 28.8 115.245 31.2C115.245 32.8 116.445 33.8 118.145 33.8C119.445 33.8 120.645 33.3 121.245 32.4C121.445 33.3 122.045 33.7 123.145 33.7C123.645 33.7 123.845 33.7 124.045 33.6V31.5H123.645C123.345 31.5 123.145 31.3 123.145 31V27.5C123.145 25.6 121.745 24.5 119.445 24.5C117.845 24.5 116.445 25 115.445 26L116.845 27.5C117.545 26.8 118.345 26.5 119.345 26.5C120.345 26.5 120.945 26.9 120.945 27.5C120.945 27.9 120.145 28.1 119.145 28.2ZM120.945 30.1C120.945 31.1 119.945 31.9 118.745 31.9C117.945 31.9 117.545 31.5 117.545 30.9C117.545 30 118.445 29.9 119.345 29.7C120.045 29.6 120.545 29.5 120.845 29.3V30.1H120.945Z" fill="white"/>
<path d="M132.046 33.6001H134.446V24.6001H132.046V28.0001H128.446V24.6001H126.046V33.6001H128.446V30.1001H132.046V33.6001Z" fill="white"/>
<path d="M145.045 31.1001L142.745 30.4001C142.445 31.3001 141.745 31.8001 140.845 31.8001C139.545 31.8001 138.645 30.8001 138.645 29.1001C138.645 27.4001 139.445 26.4001 140.845 26.4001C141.745 26.4001 142.445 26.9001 142.745 27.8001L145.045 27.1001C144.545 25.4001 142.945 24.4001 140.845 24.4001C138.045 24.4001 136.245 26.3001 136.245 29.0001C136.245 31.7001 138.145 33.6001 140.845 33.6001C142.945 33.8001 144.545 32.8001 145.045 31.1001Z" fill="white"/>
<path d="M149.145 24.6001H146.745V33.6001H149.145V24.6001Z" fill="white"/>
<path d="M149.245 21.4001H146.646V23.4001H149.245V21.4001Z" fill="white"/>
<path d="M159.645 31.1001C159.645 30.1001 159.045 29.3001 158.045 29.0001C158.845 28.6001 159.345 28.0001 159.345 27.0001C159.345 25.4001 158.045 24.6001 155.945 24.6001H151.745V33.6001H156.245C158.345 33.6001 159.645 32.7001 159.645 31.1001ZM154.045 26.4001H155.945C156.645 26.4001 157.045 26.7001 157.045 27.3001C157.045 27.9001 156.645 28.2001 155.945 28.2001H154.045V26.4001ZM154.045 31.8001V29.8001H155.945C156.745 29.8001 157.245 30.2001 157.245 30.8001C157.245 31.4001 156.845 31.8001 156.045 31.8001H154.045Z" fill="white"/>
<path d="M86.8451 47.7C86.0451 48.2 85.6451 49 85.6451 50C85.6451 51.5 86.6451 52.4 88.1451 52.4C89.4451 52.4 90.3451 51.6 90.9451 49.9L94.2451 40.8H93.2451L90.7451 47.7H89.4451L85.3451 40.8H84.2451L88.4451 47.7H86.8451ZM90.3451 48.5L89.9451 49.5C89.4451 50.9 88.8451 51.5 87.9451 51.5C87.0451 51.5 86.4451 50.9 86.4451 49.9C86.4451 49.3 86.6451 48.7 87.1451 48.5H90.3451Z" fill="white"/>
<path d="M103.046 52.2001H103.546V51.3001H103.246C102.946 51.3001 102.746 51.1001 102.746 50.8001V47.1001H100.846L103.346 43.1001H102.346L99.8457 47.1001H97.3457V40.1001H96.3457V52.1001H97.3457V47.9001H101.846V50.7001C101.746 51.7001 102.246 52.2001 103.046 52.2001Z" fill="white"/>
<path d="M107.145 50.7001C107.845 51.7001 108.945 52.3001 110.345 52.3001C112.745 52.3001 114.445 50.4001 114.445 47.7001C114.445 45.0001 112.745 43.1001 110.345 43.1001C108.945 43.1001 107.845 43.8001 107.145 44.9001L107.045 43.3001H106.245V55.3001H107.245V50.7001H107.145ZM110.245 43.9001C112.145 43.9001 113.445 45.4001 113.445 47.7001C113.445 50.0001 112.145 51.5001 110.245 51.5001C108.345 51.5001 107.045 50.0001 107.045 47.7001C107.045 45.4001 108.245 43.9001 110.245 43.9001Z" fill="white"/>
<path d="M120.145 47.1001C118.445 47.5001 116.445 47.8001 116.445 49.9001C116.445 51.4001 117.545 52.4001 119.345 52.4001C120.845 52.4001 122.145 51.7001 122.745 50.8001C122.745 51.9001 123.245 52.4001 124.245 52.4001C124.345 52.4001 124.545 52.4001 124.645 52.3001V51.5001H124.345C123.845 51.5001 123.745 51.3001 123.745 50.8001V46.0001C123.745 44.2001 122.545 43.1001 120.545 43.1001C119.045 43.1001 117.745 43.7001 116.845 44.8001L117.545 45.5001C118.345 44.5001 119.245 44.0001 120.445 44.0001C121.845 44.0001 122.745 44.7001 122.745 45.8001C122.545 46.6001 121.445 46.8001 120.145 47.1001ZM122.645 47.0001V48.6001C122.645 50.2001 121.145 51.4001 119.345 51.4001C118.145 51.4001 117.445 50.8001 117.445 49.8001C117.445 48.3001 118.845 48.0001 120.245 47.7001C121.145 47.7001 122.045 47.5001 122.645 47.0001Z" fill="white"/>
<path d="M128.046 43.2002H127.046V52.2002H128.046V43.2002Z" fill="white"/>
<path d="M129.346 40.5H128.146V41.6H129.346V40.5Z" fill="white"/>
<path d="M126.846 40.5H125.646V41.6H126.846V40.5Z" fill="white"/>
<path d="M138.846 52.2002V43.2002H137.846V47.2002H132.246V43.2002H131.346V52.2002H132.246V48.0002H137.846V52.2002H138.846Z" fill="white"/>
<path d="M149.245 52.2002V43.2002H148.245L142.645 50.9002V43.2002H141.745V52.2002H142.745L148.345 44.6002V52.2002H149.245Z" fill="white"/>
</g>
<defs>
<clipPath id="clip0_329_15943">
<rect width="193.5" height="55.8" fill="white" transform="translate(0.545898 0.100098)"/>
</clipPath>
</defs>
</svg>
