<svg width="60" height="61" viewBox="0 0 60 61" fill="none" xmlns="http://www.w3.org/2000/svg">
<path d="M29.824 59.9131C39.8858 59.9131 48.0425 51.7564 48.0425 41.6946C48.0425 31.6328 39.8858 23.4761 29.824 23.4761C19.7622 23.4761 11.6055 31.6328 11.6055 41.6946C11.6055 51.7564 19.7622 59.9131 29.824 59.9131Z" fill="url(#paint0_linear_157_4262)"/>
<path d="M53.8801 2.79763C45.7488 0.172275 36.9975 0.172275 28.8661 2.79763C24.8972 4.26511 22.7127 6.47468 22.7127 9.00109V19.6904C21.1702 19.557 19.8611 19.4986 18.6271 19.4986C14.3756 19.4263 10.1439 20.0921 6.12008 21.4664C2.17621 22.9756 0 25.1935 0 27.7032V51.6332C0 54.1346 2.17621 56.3609 6.12008 57.8367C14.2517 60.4604 23.0025 60.4604 31.1341 57.8367C34.3775 56.6027 36.412 54.9267 37.0457 52.9673C38.4728 53.1057 39.906 53.1725 41.3397 53.1674C45.5913 53.2413 49.8233 52.5754 53.8467 51.1997C57.7989 49.7238 59.9752 47.5143 59.9752 44.9879V8.96774C60.0335 6.47468 57.8323 4.27345 53.8801 2.79763ZM37.2625 44.129C38.5299 44.2541 39.8723 44.3125 41.3481 44.3125C45.5991 44.389 49.8311 43.726 53.8551 42.3531C54.6825 42.0481 55.4853 41.6801 56.2564 41.2524V45.0462C56.2564 46.6054 50.5949 49.4654 41.3564 49.4654C39.9922 49.4701 38.6286 49.4061 37.2708 49.2736L37.2625 44.129ZM41.3481 40.5604C39.9839 40.5651 38.6203 40.5011 37.2625 40.3686V35.2324C38.5299 35.3575 39.8723 35.4158 41.3481 35.4158C45.5996 35.4897 49.8316 34.8238 53.8551 33.4481C54.6853 33.1501 55.4887 32.7819 56.2564 32.3475V36.1162C56.2481 37.6838 50.5866 40.5687 41.3481 40.5687V40.5604ZM41.3481 31.6804C39.984 31.6877 38.6204 31.6264 37.2625 31.497V27.7032C37.2609 27.241 37.1849 26.7821 37.0374 26.3441C38.5215 26.4775 39.939 26.5442 41.3481 26.5442C45.5996 26.6181 49.8316 25.9522 53.8551 24.5765C54.6825 24.2715 55.4853 23.9035 56.2564 23.4758V27.2446C56.2481 28.7538 50.9868 31.6888 41.3481 31.6888V31.6804ZM56.2481 14.1123V18.3396C56.2481 19.8488 50.9868 22.7838 41.3481 22.7838C32.1013 22.7838 26.4481 19.9072 26.4481 18.3396V14.1123C27.2164 14.54 28.0164 14.9079 28.8411 15.2129C32.8655 16.5842 37.0972 17.2472 41.3481 17.1723C45.5991 17.2488 49.8311 16.5858 53.8551 15.2129C54.6796 14.9075 55.4796 14.5396 56.2481 14.1123ZM41.3481 13.4536C32.1013 13.4536 26.4481 10.5686 26.4481 9.00109C26.4481 7.43355 32.1013 4.52359 41.3481 4.52359C50.5949 4.52359 56.2481 7.4002 56.2481 8.96774C56.2481 10.5353 50.5866 13.4536 41.3481 13.4536ZM33.5354 48.9818V51.6999C33.5354 53.2675 27.8739 56.1441 18.6354 56.1441C9.39692 56.1441 3.73543 53.3008 3.73543 51.6999V48.9818C4.50369 49.4095 5.30372 49.7774 6.12843 50.0824C14.26 52.706 23.0108 52.706 31.1424 50.0824C31.9664 49.7758 32.7663 49.4079 33.5354 48.9818ZM18.6354 48.298C9.39692 48.298 3.73543 45.4131 3.73543 43.8456V41.1607C4.50369 41.5884 5.30372 41.9564 6.12843 42.2613C14.26 44.885 23.0108 44.885 31.1424 42.2613C31.9671 41.9564 32.7671 41.5884 33.5354 41.1607V43.8706C33.5354 45.3797 28.2741 48.298 18.6354 48.298ZM18.6354 40.477C9.39692 40.477 3.73543 37.5921 3.73543 36.0245V32.8144C4.50369 33.2421 5.30372 33.6101 6.12843 33.915C14.2614 36.5302 23.0095 36.5302 31.1424 33.915C31.9671 33.6101 32.7671 33.2421 33.5354 32.8144V36.0495C33.5354 37.5587 28.2741 40.502 18.6354 40.502V40.477ZM18.6354 32.139C9.39692 32.139 3.73543 29.2624 3.73543 27.6949C3.73543 26.1273 9.39692 23.2174 18.6354 23.2174C20.5101 23.2045 22.3831 23.3327 24.2385 23.6009C24.2908 23.6119 24.3447 23.6119 24.397 23.6009C30.3586 24.4347 33.5688 26.5109 33.5688 27.6615C33.5354 29.2124 28.2741 32.1474 18.6354 32.1474V32.139Z" fill="#34E0A1"/>
<defs>
<linearGradient id="paint0_linear_157_4262" x1="29.824" y1="23.4761" x2="29.824" y2="59.9131" gradientUnits="userSpaceOnUse">
<stop stop-color="#FFC700"/>
<stop offset="1" stop-color="white" stop-opacity="0"/>
</linearGradient>
</defs>
</svg>
