<svg width="60" height="60" viewBox="0 0 60 60" fill="none" xmlns="http://www.w3.org/2000/svg">
<g id="Frame 2356">
<g id="Group 48">
<path id="Vector" d="M18.5419 50.7127C28.504 50.7127 36.5799 42.6369 36.5799 32.6748C36.5799 22.7127 28.504 14.6367 18.5419 14.6367C8.57976 14.6367 0.503906 22.7127 0.503906 32.6748C0.503906 42.6369 8.57976 50.7127 18.5419 50.7127Z" fill="url(#paint0_linear_157_4288)"/>
<path id="Vector_2" d="M44.1175 24.2876H40.6172V27.7879H44.1175V24.2876Z" fill="#34E0A1"/>
<path id="Vector_3" d="M44.2816 24.1226H40.4512V27.9612H44.2816V24.1226ZM44.1991 27.8787H40.5337V24.2051H44.1991V27.8787Z" fill="#E2E2E2"/>
<path id="Vector_4" d="M40.5332 27.8787H44.1986V24.2051H40.5332V27.8787ZM40.6157 24.2876H44.0913V27.7961H40.591L40.6157 24.2876Z" fill="#E2E2E2"/>
<path id="Vector_5" d="M24.9553 20.4568C27.5581 20.3821 30.0292 19.2956 31.8438 17.4281C33.6583 15.5606 34.6734 13.0593 34.6734 10.4555C34.6734 7.85161 33.6583 5.35031 31.8438 3.48285C30.0292 1.61539 27.5581 0.528888 24.9553 0.454102C23.6379 0.457542 22.3339 0.718288 21.1165 1.22179C18.9783 2.10647 17.2133 3.70548 16.1223 5.74612C15.0313 7.78677 14.682 10.1427 15.1339 12.4121C15.5859 14.6815 16.8111 16.7239 18.6006 18.1909C20.3901 19.658 22.6331 20.4588 24.947 20.4568H24.9553ZM24.9553 3.94611C26.2403 3.94611 27.4964 4.32711 28.5648 5.04101C29.6332 5.75491 30.466 6.76962 30.9577 7.95679C31.4494 9.14396 31.5781 10.4503 31.3274 11.7106C31.0767 12.9709 30.458 14.1285 29.5493 15.0371C28.6407 15.9458 27.4831 16.5645 26.2228 16.8152C24.9625 17.0659 23.6562 16.9373 22.469 16.4455C21.2818 15.9538 20.2671 15.121 19.5532 14.0526C18.8393 12.9842 18.4583 11.7281 18.4583 10.4431C18.4649 8.72351 19.152 7.07649 20.3694 5.86211C21.5869 4.64773 23.2357 3.9648 24.9553 3.96263V3.94611Z" fill="#34E0A1"/>
<path id="Vector_6" d="M12.9683 16.0237C12.9591 15.7152 12.8685 15.4147 12.7057 15.1525C12.5429 14.8903 12.3137 14.6759 12.0413 14.5309C11.7689 14.3859 11.463 14.3155 11.1546 14.3269C10.8462 14.3382 10.5463 14.4309 10.2853 14.5955C7.17953 16.5108 4.62044 19.195 2.85547 22.3885L5.76137 24.3946C7.23292 21.5897 9.43122 19.2317 12.1263 17.5674C12.3915 17.4086 12.6095 17.1817 12.7575 16.9103C12.9056 16.6389 12.9784 16.3327 12.9683 16.0237Z" fill="#34E0A1"/>
<path id="Vector_7" d="M5.86219 24.5515C7.32536 21.739 9.52174 19.3744 12.2188 17.7079C12.5023 17.5365 12.736 17.2939 12.8968 17.0043C13.0575 16.7147 13.1397 16.388 13.1352 16.0568C13.128 15.7186 13.0311 15.3883 12.8542 15.0999C12.6772 14.8115 12.4267 14.5753 12.1284 14.4156C11.8301 14.256 11.4947 14.1785 11.1566 14.1913C10.8185 14.2041 10.4899 14.3066 10.2045 14.4883C7.04951 16.4291 4.45687 19.1611 2.6839 22.4134L2.64258 22.4794L5.82092 24.6671L5.86219 24.5515ZM2.7499 22.4217C4.51575 19.1788 7.10013 16.455 10.2458 14.5213C10.5195 14.3488 10.834 14.2518 11.1574 14.2402C11.4807 14.2286 11.8013 14.3027 12.0867 14.4552C12.3712 14.6097 12.6107 14.8355 12.7815 15.1106C12.9522 15.3856 13.0485 15.7003 13.0608 16.0238C13.0757 16.353 13.0014 16.6801 12.846 16.9706C12.6905 17.2612 12.4596 17.5045 12.1776 17.6748C9.46103 19.3397 7.25365 21.7183 5.79613 24.5515L2.7499 22.4217Z" fill="#E2E2E2"/>
<path id="Vector_8" d="M12.1777 17.6419C12.4597 17.4715 12.6906 17.2283 12.8461 16.9377C13.0015 16.6471 13.0757 16.32 13.0609 15.9908C13.0486 15.6673 12.9523 15.3526 12.7816 15.0776C12.6108 14.8026 12.3713 14.5768 12.0868 14.4224C11.8014 14.2699 11.4808 14.1956 11.1575 14.2072C10.8341 14.2188 10.5196 14.3159 10.2459 14.4884C7.10023 16.4221 4.51585 19.1459 2.75 22.3887L5.79623 24.4856C7.25866 21.6646 9.46561 19.2977 12.1777 17.6419ZM5.76323 24.3948L2.85732 22.3887C4.6223 19.1951 7.18138 16.511 10.2872 14.5957C10.4823 14.4609 10.7028 14.3672 10.9353 14.3202C11.1678 14.2732 11.4074 14.274 11.6396 14.3225C11.8718 14.371 12.0916 14.4662 12.2859 14.6023C12.4802 14.7383 12.6448 14.9125 12.7697 15.1141C12.8946 15.3157 12.9772 15.5406 13.0125 15.7752C13.0478 16.0097 13.035 16.249 12.975 16.4785C12.915 16.7079 12.809 16.9228 12.6634 17.11C12.5179 17.2973 12.3357 17.4529 12.1281 17.5676C9.43308 19.2319 7.23477 21.5899 5.76323 24.3948Z" fill="#E2E2E2"/>
<path id="Vector_9" d="M57.0357 27.9612H53.7336V27.887C52.6769 22.2238 50.3736 18.4924 46.4771 16.1313H46.4193V16.0653L49.4821 8.50339C49.5811 8.25707 49.6228 7.99145 49.604 7.72663C49.5852 7.4618 49.5064 7.20473 49.3736 6.97486C49.2408 6.74498 49.0574 6.54826 48.8373 6.39974C48.6173 6.25122 48.3663 6.15476 48.1034 6.11758C47.2118 5.99375 39.2619 5.10215 37.0577 10.8479C36.9491 11.1349 36.9175 11.4453 36.966 11.7483C37.0146 12.0513 37.1416 12.3364 37.3344 12.5751C37.5272 12.8139 37.7791 12.9979 38.0651 13.1091C38.3511 13.2203 38.6613 13.2547 38.9647 13.2089C39.2684 13.1592 39.5539 13.0309 39.7928 12.8369C40.0318 12.6428 40.2158 12.3898 40.3268 12.1027C41.0533 10.2122 43.3565 9.62612 45.1562 9.53531H45.2883L45.2388 9.65916L42.5723 16.2635C42.5463 16.3523 42.5297 16.4436 42.5228 16.5358C42.4832 16.6591 42.4583 16.7865 42.4485 16.9156C42.4576 17.013 42.4742 17.1097 42.498 17.2046C42.5124 17.3276 42.5372 17.449 42.5723 17.5678C42.6879 17.7604 42.8117 17.9503 42.9438 18.1374C43.0201 18.2037 43.1031 18.2618 43.1914 18.3108C43.2789 18.3875 43.3728 18.4565 43.4721 18.5172C47.4925 20.3581 49.5976 23.7924 50.4975 30.0004C50.5619 30.4155 50.7715 30.7942 51.0889 31.0693C51.4063 31.3444 51.811 31.498 52.2311 31.5028H55.269V38.9327H50.5717C50.1352 38.929 49.7133 39.0902 49.3904 39.384C49.0674 39.6779 48.8673 40.0827 48.8299 40.5177C48.5774 42.3383 47.7824 44.0405 46.5484 45.4026C45.3144 46.7647 43.6987 47.7235 41.9119 48.1539C41.8564 48.1749 41.8037 48.2026 41.755 48.2365C41.6167 48.2795 41.4859 48.3435 41.367 48.4263C41.2897 48.4828 41.2179 48.5463 41.1524 48.6162C41.0657 48.7007 40.9857 48.7919 40.913 48.8887C40.852 48.9904 40.8022 49.0982 40.7644 49.2105C40.7202 49.2805 40.6843 49.3553 40.6571 49.4335L39.1381 55.4434H34.4325V55.3856L33.0126 51.1424C32.8981 50.7947 32.6769 50.4918 32.3805 50.2769C32.0842 50.0621 31.7276 49.946 31.3615 49.9453H24.0308C23.6647 49.946 23.3081 50.0621 23.0117 50.2769C22.7153 50.4918 22.4942 50.7947 22.3797 51.1424L20.9763 55.4434H16.2707V55.3774L14.7765 49.4417C14.7795 49.4198 14.7795 49.3976 14.7765 49.3757C14.7334 49.2496 14.6781 49.1278 14.6114 49.0124C14.5673 48.9241 14.5176 48.8387 14.4628 48.7566L14.2316 48.5502C14.1353 48.4686 14.0332 48.3941 13.9262 48.3273C10.5028 46.6722 7.69936 43.9643 5.92674 40.6003L2.81445 42.1935C4.78319 45.9713 7.85171 49.0628 11.6147 51.0597L13.2657 57.664C13.3598 58.0438 13.5785 58.3811 13.8867 58.622C14.195 58.8629 14.5751 58.9937 14.9663 58.9932H22.2971C22.6629 58.9913 23.0189 58.8747 23.315 58.66C23.6112 58.4453 23.8326 58.1432 23.9482 57.7962L25.3846 53.4951H30.1892V53.5529L31.6092 57.7962C31.7237 58.1439 31.9448 58.4467 32.2412 58.6616C32.5376 58.8765 32.8942 58.9925 33.2603 58.9932H40.591C40.9823 58.9937 41.3624 58.8629 41.6706 58.622C41.9789 58.3811 42.1975 58.0438 42.2916 57.664L43.8932 51.2414C45.8628 50.5865 47.6376 49.4497 49.0563 47.9345C50.475 46.4192 51.4925 44.5735 52.0164 42.565V42.5072H57.0357C57.2644 42.5072 57.4908 42.462 57.7019 42.3742C57.913 42.2863 58.1046 42.1576 58.2657 41.9954C58.5961 41.6677 58.7831 41.2224 58.7858 40.7571V29.7527C58.7815 29.2906 58.5955 28.8488 58.268 28.5229C57.9404 28.1969 57.4978 28.013 57.0357 28.0108V27.9612Z" fill="#34E0A1"/>
<path id="Vector_10" d="M1.94093 29.4307C1.58988 29.4307 1.24674 29.5347 0.954858 29.7298C0.662977 29.9248 0.435478 30.2021 0.30114 30.5264C0.166802 30.8507 0.13163 31.2075 0.200115 31.5518C0.2686 31.8961 0.437669 32.2124 0.685893 32.4606C0.934118 32.7088 1.25037 32.8779 1.59467 32.9463C1.93897 33.0148 2.29582 32.9797 2.62014 32.8454C2.94446 32.711 3.22168 32.4835 3.4167 32.1917C3.61173 31.8998 3.71585 31.5566 3.71585 31.2056C3.71585 30.7349 3.52882 30.2834 3.19596 29.9506C2.8631 29.6177 2.41166 29.4307 1.94093 29.4307Z" fill="#34E0A1"/>
<path id="Vector_11" d="M3.87998 31.2056C3.88161 30.8215 3.76923 30.4456 3.55705 30.1255C3.34488 29.8054 3.04247 29.5555 2.68813 29.4074C2.33379 29.2593 1.94344 29.2197 1.56657 29.2936C1.1897 29.3675 0.843273 29.5516 0.571132 29.8226C0.29899 30.0935 0.113416 30.4392 0.0378885 30.8158C-0.0376388 31.1923 0.00028591 31.5828 0.146875 31.9378C0.293464 32.2928 0.542099 32.5963 0.861309 32.8098C1.18052 33.0233 1.55594 33.1373 1.93999 33.1373C2.45308 33.1373 2.94531 32.9341 3.3089 32.5721C3.67248 32.21 3.8778 31.7187 3.87998 31.2056ZM1.93999 33.0548C1.57227 33.0548 1.21279 32.9456 0.907161 32.7412C0.601527 32.5367 0.363501 32.2461 0.223161 31.9063C0.0828199 31.5664 0.046518 31.1924 0.11886 30.8319C0.191202 30.4714 0.368933 30.1404 0.62953 29.881C0.890126 29.6216 1.22184 29.4453 1.5827 29.3745C1.94355 29.3038 2.31728 29.3418 2.65654 29.4837C2.9958 29.6255 3.28532 29.8648 3.48842 30.1713C3.69153 30.4779 3.79908 30.8379 3.79745 31.2056C3.79745 31.4491 3.74936 31.6902 3.65591 31.9151C3.56246 32.14 3.42551 32.3442 3.25292 32.516C3.08033 32.6879 2.8755 32.824 2.65019 32.9164C2.42488 33.0089 2.18352 33.0559 1.93999 33.0548Z" fill="#E2E2E2"/>
<path id="Vector_12" d="M1.9395 29.3481C1.57213 29.3481 1.21299 29.457 0.907532 29.6611C0.602075 29.8652 0.364018 30.1553 0.223431 30.4947C0.0828445 30.8342 0.0460493 31.2077 0.11772 31.568C0.18939 31.9283 0.366302 32.2592 0.626072 32.519C0.885842 32.7788 1.21681 32.9557 1.57712 33.0274C1.93743 33.0991 2.3109 33.0623 2.65031 32.9217C2.98972 32.7811 3.27981 32.543 3.48391 32.2375C3.68801 31.9321 3.79696 31.573 3.79696 31.2056C3.79696 30.713 3.60128 30.2405 3.25293 29.8921C2.90459 29.5438 2.43213 29.3481 1.9395 29.3481ZM1.9395 32.9723C1.58811 32.9723 1.24464 32.868 0.952578 32.6726C0.66052 32.4772 0.433003 32.1994 0.29891 31.8746C0.164818 31.5498 0.130189 31.1926 0.199346 30.8481C0.268503 30.5035 0.438341 30.1873 0.687392 29.9394C0.936444 29.6915 1.25349 29.5231 1.59833 29.4556C1.94317 29.388 2.30029 29.4243 2.62446 29.5599C2.94863 29.6955 3.22528 29.9244 3.41931 30.2173C3.61334 30.5103 3.71606 30.8542 3.71443 31.2056C3.71443 31.4383 3.66844 31.6687 3.57914 31.8836C3.48984 32.0985 3.35896 32.2936 3.19403 32.4577C3.02911 32.6219 2.83341 32.7519 2.61811 32.8401C2.40282 32.9284 2.1722 32.9734 1.9395 32.9723Z" fill="#E2E2E2"/>
</g>
</g>
<defs>
<linearGradient id="paint0_linear_157_4288" x1="18.5419" y1="14.6367" x2="18.5419" y2="50.7127" gradientUnits="userSpaceOnUse">
<stop stop-color="#FFC700"/>
<stop offset="1" stop-color="white" stop-opacity="0"/>
</linearGradient>
</defs>
</svg>
