<svg width="60" height="61" viewBox="0 0 60 61" fill="none" xmlns="http://www.w3.org/2000/svg">
<g id="Frame 2353">
<g id="Group 53">
<path id="Vector" d="M38.7314 56.1096C48.796 56.1096 56.9549 47.9507 56.9549 37.8861C56.9549 27.8215 48.796 19.6626 38.7314 19.6626C28.6668 19.6626 20.5078 27.8215 20.5078 37.8861C20.5078 47.9507 28.6668 56.1096 38.7314 56.1096Z" fill="url(#paint0_linear_157_4326)"/>
<path id="Vector_2" d="M50.6502 33.007H27.3975V8.95361H0.375V59.9878H27.3975H50.6502V33.007ZM4.17822 36.7101H23.6778V56.2263H4.17822V36.7101ZM4.17822 12.7067H23.6778V33.007H4.17822V12.7067ZM46.9555 36.7101V56.243H27.4393V36.7101H46.9555Z" fill="#34E0A1"/>
<path id="Vector_3" d="M45.3047 29.9628C42.5335 29.9628 39.8244 29.141 37.5202 27.6014C35.216 26.0618 33.4201 23.8735 32.3596 21.3132C31.2991 18.7529 31.0216 15.9356 31.5622 13.2176C32.1028 10.4996 33.4374 8.00293 35.397 6.04336C37.3565 4.0838 39.8531 2.74933 42.5711 2.20869C45.2891 1.66804 48.1064 1.94553 50.6667 3.00604C53.227 4.06655 55.4153 5.86245 56.9549 8.16666C58.4946 10.4709 59.3163 13.1799 59.3163 15.9511C59.3119 19.6659 57.8343 23.2272 55.2076 25.854C52.5808 28.4807 49.0195 29.9584 45.3047 29.9628ZM45.3047 5.52576C43.2428 5.52576 41.2271 6.1372 39.5126 7.28275C37.7982 8.4283 36.4619 10.0565 35.6729 11.9615C34.8838 13.8665 34.6774 15.9627 35.0796 17.985C35.4819 20.0073 36.4748 21.8649 37.9329 23.3229C39.3909 24.781 41.2484 25.7739 43.2708 26.1761C45.2931 26.5784 47.3893 26.3719 49.2942 25.5829C51.1992 24.7938 52.8275 23.4576 53.973 21.7431C55.1186 20.0287 55.7301 18.013 55.7301 15.9511C55.7279 13.1868 54.6287 10.5364 52.674 8.58172C50.7194 6.62706 48.069 5.52797 45.3047 5.52576Z" fill="#34E0A1"/>
</g>
</g>
<defs>
<linearGradient id="paint0_linear_157_4326" x1="38.7313" y1="19.6626" x2="38.7313" y2="56.1096" gradientUnits="userSpaceOnUse">
<stop stop-color="#FFC700"/>
<stop offset="1" stop-color="white" stop-opacity="0"/>
</linearGradient>
</defs>
</svg>
