<svg width="64" height="65" viewBox="0 0 64 65" fill="none" xmlns="http://www.w3.org/2000/svg">
<g id="Frame 2355">
<g id="Group 49">
<path id="Vector" d="M25.459 28.3467L32.418 55.4473L58.8567 28.3467H25.459Z" fill="url(#paint0_linear_157_4353)"/>
<path id="Vector_2" d="M58.6371 29.4649C58.7918 29.3377 58.9152 29.1766 58.9975 28.9941C59.0989 28.7952 59.1566 28.577 59.1668 28.3541V28.229H59.255H59.1668C59.1668 28.229 59.1668 28.1628 59.1668 28.1261V28.0892C59.1668 28.0892 59.1668 28.0451 59.1668 28.0231C59.1134 27.7181 58.9577 27.4404 58.7253 27.2359L58.6077 27.1476L44.0937 14.149C43.9652 13.9814 43.8021 13.8434 43.6155 13.7444C43.4473 13.6505 43.2624 13.5905 43.0711 13.5679H42.8504H21.1787C20.8317 13.5756 20.4974 13.7 20.2298 13.921L5.42148 27.1623L5.30375 27.2727C5.09357 27.4677 4.94737 27.7217 4.88434 28.0014C4.82132 28.2811 4.84443 28.5733 4.95066 28.8396C5.04539 29.1344 5.23072 29.3919 5.48029 29.5752C7.9888 32.1941 29.5575 54.6309 30.8596 55.9771C31.0196 56.1582 31.2217 56.2971 31.4481 56.3816H31.5511H31.61H31.735H31.7865H31.9704H32.0146V56.4699V56.3816C32.3976 56.3756 32.7658 56.2321 33.0518 55.9771L33.1695 55.852L33.2504 55.8962L33.1842 55.8299L58.6371 29.4649ZM54.0615 29.9283L38.6941 45.8695L47.4555 29.7739H54.2159L54.0615 29.9283ZM53.907 26.8902H47.7056L45.6605 19.5338L53.907 26.8902ZM18.4127 19.5338L16.3603 26.8902H10.1442L18.4127 19.5338ZM23.7387 44.2217L10.0118 29.9504L9.86468 29.7959H16.6178V29.8401L25.3571 45.9357L23.7387 44.2217ZM32.0366 51.9458L31.9557 51.7987L19.1263 28.2584C19.1335 28.2023 19.1335 28.1454 19.1263 28.0892V27.9936L22.3263 16.5104H41.7764L44.6674 26.8902H31.9484V29.7739H44.1304L44.0568 29.9062L32.0366 51.9458Z" fill="#34E0A1"/>
<path id="Vector_3" d="M28.6889 26.9048H24.459V29.7884H28.6889V26.9048Z" fill="#34E0A1"/>
</g>
</g>
<defs>
<linearGradient id="paint0_linear_157_4353" x1="42.1578" y1="28.3467" x2="42.1578" y2="55.4473" gradientUnits="userSpaceOnUse">
<stop stop-color="#FFC700"/>
<stop offset="1" stop-color="white" stop-opacity="0"/>
</linearGradient>
</defs>
</svg>
