<svg width="55" height="54" viewBox="0 0 55 54" fill="none" xmlns="http://www.w3.org/2000/svg">
<rect x="2.5" y="2" width="50" height="50" rx="4" stroke="white" stroke-width="4"/>
<rect x="30.0312" y="29.5312" width="21.9375" height="21.9375" fill="white"/>
<path d="M36.0809 39.8993C35.4228 39.8993 35.0938 39.5775 35.0938 38.934C35.0938 38.2905 35.4228 37.9687 36.0809 37.9687L45.1631 37.9687C45.8212 37.9687 46.1503 38.2905 46.1503 38.934C46.1503 39.5775 45.8212 39.8993 45.1631 39.8993L36.0809 39.8993ZM36.0809 44.2648C35.4228 44.2648 35.0938 43.9431 35.0938 43.2996C35.0938 42.6707 35.4228 42.3563 36.0809 42.3563L45.1631 42.3563C45.8212 42.3563 46.1503 42.6707 46.1503 43.2996C46.1503 43.9431 45.8212 44.2648 45.1631 44.2648L36.0809 44.2648Z" fill="#34E0A1"/>
<path d="M10.9408 46.4062C10.6138 46.4062 10.3387 46.3256 10.1157 46.1642C9.90761 45.9894 9.79612 45.7676 9.78125 45.4986C9.78125 45.2297 9.90761 44.9473 10.1603 44.6515L13.2376 41.2227L10.3833 38.036C10.1157 37.7402 9.98938 37.4578 10.0042 37.1889C10.0191 36.9199 10.1306 36.7048 10.3387 36.5435C10.5617 36.3687 10.8367 36.2812 11.1638 36.2812C11.5057 36.2812 11.7882 36.335 12.0112 36.4426C12.249 36.5502 12.4646 36.7183 12.6578 36.9468L14.8432 39.4882L17.0508 36.9468C17.2589 36.7183 17.4745 36.5502 17.6975 36.4426C17.9204 36.335 18.1955 36.2812 18.5225 36.2812C18.8644 36.2812 19.1395 36.3687 19.3476 36.5435C19.5557 36.7183 19.6598 36.9401 19.6598 37.209C19.6747 37.478 19.5483 37.7603 19.2807 38.0562L16.4264 41.2227L19.526 44.6515C19.7936 44.9339 19.9199 45.2095 19.9051 45.4785C19.8902 45.7474 19.7713 45.9692 19.5483 46.144C19.3402 46.3189 19.0651 46.4062 18.7232 46.4062C18.1286 46.4062 17.638 46.1844 17.2515 45.7407L14.8209 42.9775L12.4126 45.7407C12.2193 45.9558 12.0112 46.1239 11.7882 46.2449C11.5652 46.3525 11.2827 46.4062 10.9408 46.4062Z" fill="white"/>
<path d="M38.2013 16.2844C37.7929 16.2844 37.4495 16.1544 37.1711 15.8946C36.9112 15.6161 36.7813 15.282 36.7813 14.8922C36.7813 14.4838 36.9112 14.1497 37.1711 13.8898C37.4495 13.6299 37.7929 13.5 38.2013 13.5L44.132 13.5C44.5218 13.5 44.8467 13.6299 45.1065 13.8898C45.385 14.1497 45.5242 14.4838 45.5242 14.8922C45.5242 15.282 45.385 15.6161 45.1065 15.8946C44.8467 16.1544 44.5218 16.2844 44.132 16.2844L38.2013 16.2844Z" fill="white"/>
<path d="M14.891 21.1883C14.1665 21.1883 13.8043 20.8181 13.8043 20.0779L13.8043 16.2034L10.0006 16.2034C9.29188 16.2034 8.9375 15.8569 8.9375 15.1639C8.9375 14.4709 9.29188 14.1244 10.0006 14.1244L13.8043 14.1244L13.8043 10.368C13.8043 9.6435 14.1665 9.28125 14.891 9.28125C15.6155 9.28125 15.9778 9.6435 15.9778 10.368L15.9778 14.1244L19.7814 14.1244C20.4901 14.1244 20.8445 14.4709 20.8445 15.1639C20.8445 15.8569 20.4901 16.2034 19.7814 16.2034L15.9778 16.2034L15.9778 20.0779C15.9778 20.8181 15.6155 21.1883 14.891 21.1883Z" fill="white"/>
<line x1="28.6562" y1="6.50051e-08" x2="28.6562" y2="54" stroke="white" stroke-width="4"/>
<line x1="0.5" y1="27.5312" x2="54.5" y2="27.5312" stroke="white" stroke-width="4"/>
</svg>
