<svg width="55" height="49" viewBox="0 0 55 49" fill="none" xmlns="http://www.w3.org/2000/svg">
<rect x="0.5" y="9.45715" width="54" height="38.5714" rx="6" fill="white"/>
<rect x="6.67188" y="7.14288" width="4.62857" height="6.94286" rx="2.31429" fill="white"/>
<rect x="42.9277" y="7.14288" width="4.62857" height="6.94286" rx="2.31429" fill="white"/>
<rect x="16.6992" y="0.971436" width="21.6" height="4.62857" rx="2.31429" fill="white"/>
<rect x="23.6426" y="20.2571" width="7.71429" height="4.62857" rx="2.31429" fill="#34E0A1"/>
<rect x="21.3281" y="0.971436" width="11.5714" height="4.62857" rx="2.31429" transform="rotate(90 21.3281 0.971436)" fill="white"/>
<rect x="38.3008" y="0.971436" width="11.5714" height="4.62857" rx="2.31429" transform="rotate(90 38.3008 0.971436)" fill="white"/>
<path d="M0.5 20.2571L18.2429 20.2571C19.521 20.2571 20.5571 21.2933 20.5571 22.5714C20.5571 23.8496 19.521 24.8857 18.2429 24.8857L0.5 24.8857L0.5 20.2571Z" fill="#34E0A1"/>
<path d="M34.4434 22.5714C34.4434 21.2933 35.4795 20.2571 36.7576 20.2571L54.5005 20.2571L54.5005 24.8857L36.7576 24.8857C35.4795 24.8857 34.4434 23.8496 34.4434 22.5714Z" fill="#34E0A1"/>
</svg>
